<?xml version="1.0" standalone="no"?>
<!DOCTYPE svg PUBLIC "-//W3C//DTD SVG 20010904//EN"
 "http://www.w3.org/TR/2001/REC-SVG-20010904/DTD/svg10.dtd">
<svg version="1.0" xmlns="http://www.w3.org/2000/svg"
 width="4167.000000pt" height="4167.000000pt" viewBox="0 0 4167.000000 4167.000000"
 preserveAspectRatio="xMidYMid meet">
<metadata>
Created by potrace 1.11, written by Peter Selinger 2001-2013
</metadata>
<g transform="translate(0.000000,4167.000000) scale(0.100000,-0.100000)"
fill="#000000" stroke="none">
<path d="M27851 36370 c-50 -133 -160 -355 -262 -525 -345 -578 -886 -1115
-1497 -1484 -529 -320 -1099 -514 -1647 -561 -66 -5 -132 -10 -147 -10 l-28 0
0 -98 0 -99 126 -17 c242 -34 431 -91 649 -195 253 -122 425 -242 629 -440
553 -539 863 -1331 844 -2157 l-4 -185 98 3 99 3 48 120 c143 357 360 709 649
1058 105 128 404 429 542 548 687 591 1514 1004 2243 1121 l137 23 0 97 0 97
-32 5 c-18 3 -76 10 -128 17 -447 55 -914 291 -1284 649 -442 428 -720 978
-797 1580 -14 104 -17 443 -5 503 l7 37 -103 0 -103 0 -34 -90z"/>
<path d="M22190 29170 l0 -99 33 -5 c17 -3 93 -15 167 -26 1002 -153 1668
-583 2020 -1305 241 -494 341 -1062 327 -1860 -31 -1743 -630 -3829 -1464
-5099 -423 -644 -871 -1076 -1377 -1325 -318 -157 -593 -227 -927 -238 -273
-9 -478 19 -709 96 -775 259 -1271 1033 -1361 2126 -15 184 -6 674 16 860 55
471 172 930 360 1418 7 16 -27 17 -623 17 l-630 0 -32 -87 c-56 -154 -268
-789 -350 -1048 -375 -1187 -700 -2414 -1300 -4910 -558 -2321 -808 -3291
-1136 -4406 -923 -3148 -1979 -5369 -3375 -7099 -131 -163 -344 -413 -431
-506 -72 -77 -77 -108 -20 -123 1127 -300 2471 -406 3872 -306 2480 179 4208
1044 5558 2783 578 744 1095 1656 1599 2822 570 1317 1089 2939 1777 5550 345
1312 570 2218 1232 4960 706 2922 909 3712 1155 4500 409 1305 716 2018 1083
2515 116 157 329 369 455 454 212 141 417 215 654 236 l77 7 0 99 0 99 -3325
0 -3325 0 0 -100z"/>
</g>
</svg>
