<?xml version="1.0" encoding="utf-8"?>
<!-- Generator: Adobe Illustrator 24.2.3, SVG Export Plug-In . SVG Version: 6.00 Build 0)  -->
<svg version="1.1" id="Layer_1" xmlns="http://www.w3.org/2000/svg" xmlns:xlink="http://www.w3.org/1999/xlink" x="0px" y="0px"
	 viewBox="0 0 825.96 150" style="enable-background:new 0 0 825.96 150;" xml:space="preserve">
<g>
	<path d="M23.52,105.27l38.75-84.83h32.2l-43.96,96.21c-2.12,4.63-4.24,8.29-6.36,11.38c-2.51,3.47-5.21,6.17-8.29,8.48
		c-7.33,5.21-17.35,7.71-30.85,7.71l2.7-28.73C14.85,114.91,20.24,112.6,23.52,105.27z M38.56,129.37c-0.58,0-11.38,7.71-22.94,7.71
		c-2.7,0-2.89-1.35-3.08-4.05c0-0.77-0.39-5.78-1.74-7.71l-1.54,15.23C21.79,139.78,31.23,137.08,38.56,129.37z M11.76,145.37
		c9.45-0.58,16.58-2.7,21.98-5.78l-0.19,1.54c-5.59,2.89-12.72,5.01-22.17,5.59L11.76,145.37z M30.27,106.81
		c4.43-9.83,11.76-15.42,20.44-15.42c5.98,0,4.82,3.66,5.4,3.66L64.4,77.7c-0.77-0.19-7.71,10.03-18.89,10.03
		c-5.98,0-5.4-8.29-5.78-8.29c-4.63,11.18-9.64,21.98-12.92,29.11c-1.74,3.09-3.28,5.78-9.25,9.06
		C22.56,117.61,26.41,115.3,30.27,106.81z M25.84,93.51h1.35l-3.28,7.13h-1.35L25.84,93.51z M48.39,44.54h1.35L39.72,66.32h-1.35
		L48.39,44.54z M74.23,43.19c3.86,0,3.86,1.54,4.24,1.54l6.56-13.11C77.7,34.7,67.67,37.6,57.65,40.3l-8.48,17.16
		C50.13,57.46,59.38,43.19,74.23,43.19z M57.07,25.45h1.35l-4.63,10.22h-1.35L57.07,25.45z M87.53,24.68l0.39-0.77H64.4l-4.05,9.06
		C65.55,30.08,80.01,25.84,87.53,24.68z M67.67,4.63h33.35l-2.89,6.75H64.78L67.67,4.63z M89.07,8.87l0.77-1.74H70.76l-0.77,1.74
		H89.07z"/>
	<path d="M72.69,127.44c-1.54-2.31-3.08-7.52-1.16-18.12c0.58-3.47,1.54-7.33,2.89-11.57c2.12-7.52,5.59-16.2,9.83-25.64
		c10.03-21.79,18.12-35.67,25.84-43.77c6.75-6.94,13.11-10.03,21.4-10.03c8.48,0,13.69,4.24,22.56,14.46l5.59-12.53h32.39
		l-49.74,109.13h-27.38l5.01-20.05l1.74-5.98c-8.68,9.25-26.41,27.96-40.68,27.96C77.12,131.3,74.23,129.95,72.69,127.44z
		 M78.47,78.47h1.35c-2.31,5.78-4.24,10.8-5.98,15.42h-1.16C74.23,89.27,76.16,84.25,78.47,78.47z M81.75,127.63
		c3.47,0,6.94-1.35,11.76-5.21c-0.77,0-5.4,2.7-11.57,2.7c-3.28,0-5.4-1.93-5.4-7.52c0-14.85,10.41-26.22,20.82-26.22
		c4.24,0,5.59,3.28,6.36,3.28c1.16-5.59,3.47-10.6,6.56-16.97c-0.58-0.58-7.71,9.83-20.44,9.83c-5.98,0-4.43-8.1-4.82-8.1
		c-4.43,9.25-8.68,22.94-10.03,30.66c-0.58,3.28-0.77,5.78-0.77,7.9C74.23,125.51,77.89,127.63,81.75,127.63z M76.54,132.07
		c1.35,0.39,2.89,0.58,4.43,0.58c2.7,0,5.01-0.58,7.33-1.35v1.35c-2.31,0.96-4.63,1.35-7.33,1.35c-1.54,0-3.09-0.19-4.43-0.58
		V132.07z M86.76,60.15h1.54c-1.35,2.7-2.51,5.21-3.86,8.1H82.9C84.25,65.36,85.6,62.85,86.76,60.15z M137.47,39.33
		c8.68,0,9.64,3.28,10.22,3.28l3.28-7.33l-4.24-4.63c-11.95,4.63-28.73,10.22-42.99,13.69c-1.54,2.12-5.98,9.45-9.06,15.81
		C109.12,47.04,128.6,39.33,137.47,39.33z M109.7,24.87h1.74c-4.05,3.66-8.1,8.87-12.73,16.2h-1.54
		C101.61,33.93,105.65,28.73,109.7,24.87z M111.44,103.92c3.86,0,11.18-6.75,14.07-10.99c2.51-3.66,3.47-6.36,7.33-14.46
		c10.03-21.4,12.53-27.19,9.83-31.43c-0.58-0.96-2.12-2.7-5.4-2.7s-5.98,1.74-9.06,5.59c-3.08,4.43-7.13,12.15-12.34,23.91
		c-3.86,8.48-8.68,19.86-8.68,25.45C107.2,102.57,108.35,103.92,111.44,103.92z M141.52,25.45c-0.96-1.16-5.59-3.47-9.64-3.47
		c-10.6,0-17.35,6.56-23.14,13.88C118.38,31.81,133.61,26.99,141.52,25.45z M112.98,84.83h1.35c-0.77,1.54-1.35,3.09-2.12,4.82
		h-1.35C111.63,87.92,112.21,86.38,112.98,84.83z M115.49,114.91l1.93-1.93l-2.51,10.03h-1.35L115.49,114.91z M118.57,130.72h22.94
		l-0.58,1.35h-22.75L118.57,130.72z M140.55,125.71c0-2.31-3.86-1.54-7.71-1.74c-4.24-0.19-8.68-0.58-8.68-4.82
		c0-3.66,1.54-10.41,2.51-14.07c5.21-7.33,15.62-13.88,22.75-13.69c5.21,0,4.05,3.66,4.63,3.66l9.64-20.44
		c-1.16-0.19-9.45,13.11-20.44,13.11c-7.13,0-5.98-8.29-6.36-8.29l-10.22,20.63c-1.35,2.89-2.12,4.63-2.7,6.94l-4.63,18.7H140.55z
		 M130.33,77.31l2.31-4.82H134c-0.77,1.74-1.54,3.47-2.51,5.4l-0.58,1.16h-1.35C129.75,78.47,130.14,77.89,130.33,77.31z
		 M140.55,52.63h1.54c-0.58,2.51-1.93,5.98-4.24,11.57h-1.54C138.82,58.42,140.17,54.95,140.55,52.63z M171.98,43.19
		c3.86,0,4.43,1.54,4.82,1.54l6.17-13.11c-7.33,3.09-17.35,5.98-27.38,8.68l-7.52,17.16C149.03,57.46,157.13,43.19,171.98,43.19z
		 M185.28,24.68l0.39-0.77h-23.52l-4.05,9.06C163.49,29.88,177.95,25.64,185.28,24.68z"/>
	<path d="M168.31,98.72h1.16c-0.58,1.93-1.16,3.66-1.54,5.4h-1.16C167.16,102.38,167.74,100.64,168.31,98.72z M168.7,109.32
		c1.74-9.83,5.98-22.36,12.72-37.21c10.03-21.59,18.12-35.67,25.84-43.77c6.75-6.94,13.11-10.03,21.4-10.03
		c14.27,0,22.56,14.46,22.56,14.46l13.5-29.88h32.39l-57.65,126.48h-27.38l8.29-26.61c-8.29,8.87-26.8,28.53-42.22,28.53
		C167.35,131.3,166.58,121.47,168.7,109.32z M178.92,127.63c3.47,0,6.94-1.35,11.76-5.21c-0.77,0-5.4,2.7-11.57,2.7
		c-3.28,0-5.4-1.93-5.4-7.52c0-14.85,10.41-26.22,20.82-26.22c4.24,0,5.59,3.28,6.36,3.28c1.16-5.59,3.47-10.6,6.56-16.97
		c-0.77,0-8.1,10.03-18.7,10.03c-6.94,0-6.17-8.29-6.56-8.29c-4.43,9.25-8.68,22.94-10.03,30.66c-0.58,3.28-0.77,5.78-0.77,7.9
		C171.4,125.51,175.06,127.63,178.92,127.63z M172.94,131.88c1.54,0.39,3.28,0.77,5.21,0.77c3.08,0,6.17-0.77,8.87-1.93l-0.19,1.54
		c-2.7,1.16-5.59,1.74-8.68,1.74c-2.12,0-4.05-0.39-5.78-0.96L172.94,131.88z M178.92,70.95c0.39-0.77,0.77-1.74,1.16-2.51h1.54
		c-0.58,0.96-0.96,2.12-1.54,3.09c-0.39,0.58-0.58,1.35-0.96,1.93h-1.35L178.92,70.95z M195.11,39.91h1.35
		c-2.89,4.63-5.78,10.03-9.06,16.2h-1.35C189.33,49.94,192.22,44.54,195.11,39.91z M234.64,39.33c8.68,0,9.64,3.28,10.22,3.28
		l3.28-7.33l-4.24-4.63c-11.95,4.63-29.11,10.22-43.38,13.69c-1.54,2.12-5.98,9.45-9.06,15.81
		C205.91,47.04,225.77,39.33,234.64,39.33z M206.3,25.26h1.93c-2.7,2.51-5.21,5.59-8.1,9.25h-1.54
		C201.28,30.85,203.79,27.76,206.3,25.26z M209.57,103.92c3.86,0,10.22-6.17,12.92-10.6c2.12-3.66,2.89-5.21,7.52-14.85
		c7.52-16,10.8-23.33,10.8-27.76c0-3.86-2.51-6.36-6.36-6.36c-3.28,0-5.98,1.74-9.06,5.59c-3.08,4.43-7.13,12.15-12.34,23.91
		c-3.86,8.48-7.71,20.82-7.71,25.45C205.33,102.57,206.49,103.92,209.57,103.92z M238.69,25.45c-0.96-1.16-5.59-3.47-9.64-3.47
		c-10.6,0-17.35,6.56-23.14,13.88C215.55,31.81,230.78,26.99,238.69,25.45z M210.15,84.83h1.35l-1.74,4.82h-1.35L210.15,84.83z
		 M213.43,115.1l1.93-1.93l-2.31,7.52h-1.35L213.43,115.1z M216.51,130.72h22.37l-0.77,1.35h-22.36L216.51,130.72z M236.76,125.71
		c0-2.31-3.86-1.54-6.75-1.74c-3.66-0.19-8.1-0.58-8.1-4.82c0-3.66,2.31-12.73,3.28-16.39c5.21-7.13,14.27-11.38,21.4-11.38
		c5.21,0,4.05,3.66,4.63,3.66l9.45-20.44c-1.16,0-8.68,12.92-20.44,12.92c-8.29,0-5.4-8.1-6.36-8.1l-10.41,21.79l-6.36,24.49H236.76
		z M227.5,77.31c0.19-0.39,0.39-0.77,0.58-1.16h1.35c-0.19,0.58-0.39,1.16-0.77,1.74l-3.08,6.36h-1.35L227.5,77.31z M236.18,57.84
		h1.35c-1.35,3.47-3.28,7.9-5.78,13.5h-1.54C232.9,65.75,234.83,61.12,236.18,57.84z M271.85,38.37c3.86,0,3.86,1.54,4.24,1.54
		l5.98-13.11c-9.25,3.86-19.86,7.33-28.15,9.45l-10.03,21.21C244.86,57.26,257.2,38.37,271.85,38.37z M260.47,5.78h1.54l-5.21,11.38
		h-1.54L260.47,5.78z M285.54,18.51l5.01-10.22c-5.01,4.43-15.42,10.41-21.98,10.41c-1.35,0-2.12-0.58-2.12-1.35
		c0-5.4,16.39-10.6,16.39-10.8h-15.23l-9.83,21.79C265.29,24.68,278.98,19.86,285.54,18.51z"/>
	<path d="M299.42,90.04h1.35c-1.93,4.63-4.05,9.83-5.21,14.46h-1.35C295.37,99.87,297.3,94.86,299.42,90.04z M301.54,125.13
		c-3.66-2.89-5.59-7.33-5.59-13.5c0-7.71,5.59-19.86,9.25-27.96l15.42-34.13h-6.17l13.3-29.31h6.17l7.9-17.35h32.39l-7.9,17.35h10.8
		l-13.3,29.31h-10.8l-15.81,34.51c-1.74,3.66-2.31,6.17-2.31,8.48c0,3.09,1.35,4.82,2.51,5.78c0.96,0.77,1.93,1.16,3.08,1.54
		l-13.5,29.88c-1.74,0.19-4.24,0.19-5.98,0.19C312.14,129.95,305.59,128.21,301.54,125.13z M323.52,126.28
		c0.19-3.08-21.02,1.93-21.02-16.77c0-11.76,10.99-18.12,20.05-18.12c6.36,0,7.71,3.66,8.29,3.66v-2.51c0-3.86,2.7-10.22,5.59-15.42
		c-0.58,0-8.48,10.41-18.89,10.41c-7.33,0-6.75-6.75-7.13-6.75c-5.59,12.73-10.22,21.21-10.22,28.53
		C300.19,123.39,309.83,126.28,323.52,126.28z M305.78,129.18c3.86,1.35,8.87,2.12,15.23,2.12h5.01l-0.58,1.35h-4.43
		c-6.56,0-11.76-0.77-15.81-2.31L305.78,129.18z M315.04,55.33h1.35l-2.7,5.98h-1.35L315.04,55.33z M323.33,23.52h1.54l-9.45,20.63
		h-1.54L323.33,23.52z M354.17,40.87c6.56,0,6.56,3.66,6.94,3.47l7.13-15.42c-14.46,5.98-30.46,10.6-46.08,14.65l-0.96,2.12h1.93
		c2.89,0,3.47,0.19,1.54,4.44l-3.47,7.52C321.98,57.65,335.47,40.87,354.17,40.87z M360.54,23.33l5.01-10.6
		c-0.39,0-12.15,9.45-20.63,9.45c-1.74,0-2.51-0.58-2.51-1.93c0-1.93,3.47-12.34,1.74-12.34l-5.4,12.34
		c-1.54,3.28-2.12,4.24-5.78,4.24h-2.51l-5.01,10.6C331.81,32.01,354.17,24.87,360.54,23.33z M337.21,6.36h1.74l-3.86,8.48h-1.74
		L337.21,6.36z M340.87,79.82h1.35l-1.74,3.86h-1.35L340.87,79.82z M357.26,50.9h5.78l-0.58,1.35h-5.78L357.26,50.9z M374.03,6.36
		h1.54l-2.12,4.63h-1.54L374.03,6.36z"/>
	<path d="M355.72,101.61c0-2.12,0.19-4.43,0.77-6.94h1.35c-0.39,2.51-0.77,4.82-0.77,6.94v2.89h-1.35V101.61z M358.42,101.8
		c0.39-9.45,4.05-22.75,13.11-40.68c15.23-28.73,30.27-42.8,54.18-42.8c18.7,0,30.46,10.99,29.88,29.5
		c-0.39,9.64-3.47,22.56-13.3,40.49c-15.23,28.92-30.27,43-53.79,43C368.44,131.3,357.65,122.81,358.42,101.8z M369.02,59.96
		c2.12-4.24,4.43-8.29,6.75-11.95h1.54c-2.31,3.86-4.82,7.91-7.13,12.53c-3.08,6.17-5.59,11.57-7.52,16.77h-1.54
		C363.04,71.92,365.74,66.32,369.02,59.96z M389.07,128.02c8.68,0,21.79-3.86,30.46-13.11c-3.08,0.19-14.85,10.6-30.85,10.6
		c-14.85,0-22.37-7.13-22.37-20.05c0-6.36,4.44-14.07,10.99-14.07c6.17,0,6.17,4.82,6.75,4.82c1.16-4.82,5.21-13.88,7.52-19.09
		c-1.16,0-6.36,10.41-16.77,10.41c-7.13,0-7.13-6.75-7.52-6.75c-2.51,5.21-4.82,15.81-4.63,22.75
		C363.24,121.47,371.91,128.02,389.07,128.02z M396.21,50.13c5.21,0,6.17,1.93,6.75,1.93c1.74-3.66,5.78-9.83,11.57-14.07V37.6
		c-11.95,4.05-22.17,6.94-28.73,8.29c-2.31,2.31-8.48,11.95-10.8,16.2C375.96,62.08,385.79,50.13,396.21,50.13z M381.17,132.26
		c1.35,0.19,3.28,0.39,4.82,0.39l-0.39,1.16c-1.54,0-3.47-0.19-5.01-0.39L381.17,132.26z M396.4,25.06h2.31
		c-4.63,3.09-9.06,6.94-13.11,11.95h-1.74C387.72,32.2,391.77,28.15,396.4,25.06z M392.74,109.9c3.86,0,6.56-3.09,9.06-6.36
		c3.47-4.82,8.1-12.92,14.07-24.87c9.06-17.74,10.99-26.8,11.18-31.23c0.19-3.86-2.31-6.56-5.98-6.56c-4.05,0-6.75,3.09-9.26,6.17
		c-3.47,4.82-7.9,12.92-13.5,24.29c-7.71,15.62-11.38,26.03-11.57,32.01C386.57,106.62,388.69,109.9,392.74,109.9z M389.84,132.65
		c7.71-0.19,12.53-1.54,18.7-4.24v1.35c-6.17,2.89-11.18,4.24-19.09,4.24L389.84,132.65z M437.08,23.91
		c-1.54-0.77-5.78-1.93-10.6-1.93c-15.81,0-27.76,8.68-34.13,15.04C410.09,30.08,425.7,25.45,437.08,23.91z M395.24,81.36h1.54
		c-0.96,1.74-1.74,3.47-2.31,5.21h-1.74C393.7,84.83,394.28,83.1,395.24,81.36z M429.75,91.39c5.21,0,3.86,3.66,4.43,3.66
		c4.82-8.48,6.56-11.57,10.8-20.44c-0.77-0.19-11.76,12.92-19.86,12.92c-7.13,0-5.4-8.1-5.78-8.1c-5.4,11.95-7.52,16-12.92,23.33
		C407.39,102.96,418.38,91.39,429.75,91.39z M417.22,69.79h1.35l-2.12,4.43h-1.35C415.68,72.69,416.45,71.34,417.22,69.79z
		 M423.2,54.56h1.35c-0.77,2.89-2.12,6.36-3.86,10.8h-1.54C421.08,60.93,422.43,57.26,423.2,54.56z M422.62,35.86
		c6.75,0.39,9.64,5.4,9.06,11.38c0.58,0,3.86-10.41,13.11-10.41c4.63,0,6.56,3.66,6.94,3.66c-0.58-4.05-4.05-10.03-7.52-11.95
		c-4.24,1.54-10.6,4.44-21.79,7.13L422.62,35.86z M451.15,26.41c1.35,1.74,2.89,3.66,4.05,5.98h-1.54c-1.16-2.31-2.7-4.24-4.05-5.98
		H451.15z"/>
	<path d="M434.77,137.08l10.99-24.1c8.68,4.24,18.32,6.36,28.34,6.36c10.03,0,17.74-4.63,21.59-13.11l9.83-21.79
		c-8.1,7.9-22.36,19.67-34.32,19.67c-5.21,0-8.87-1.74-10.99-5.01c-2.12-3.66-2.89-9.06-1.74-16c0.96-7.52,3.86-16.39,8.48-25.84
		c6.94-15.81,12.34-24.87,18.12-30.66c5.59-5.78,11.76-8.29,20.24-8.29c7.33,0,12.92,1.54,19.47,9.64l4.43,5.4l5.78-13.11h32.2
		l-37.21,81.75c-7.13,15.62-14.46,26.03-22.56,32.58c-8.48,6.75-18.7,9.83-32.2,9.83C458.29,144.41,445.95,142.1,434.77,137.08z
		 M475.25,140.75c22.94,0,37.02-11.95,44.73-25.84c-3.28,0-13.5,23.33-44.15,23.33c-13.69,0-30.65-1.54-30.65-8.29
		c0-7.71,16-7.52,16-8.48c-7.91-1.16-11.18-2.51-13.69-3.66l-1.74,3.86l-6.17,13.5C449.42,139.01,460.6,140.75,475.25,140.75z
		 M452.89,144.22c6.36,1.16,13.5,1.74,22.36,1.74c2.89,0,5.59-0.19,8.1-0.39l-0.19,1.35c-2.51,0.19-5.21,0.39-7.91,0.39
		c-9.06,0-16.58-0.77-23.14-1.74L452.89,144.22z M456.36,85.22c-0.39,3.86-0.19,7.33,0.58,10.22h-1.16
		c-0.77-2.89-0.96-6.36-0.58-10.22H456.36z M461.76,102.76c2.31,1.74,5.4,2.7,9.45,2.7c4.05,0,7.33-0.96,10.8-2.51l-0.77,1.74
		c-3.09,1.35-6.36,2.12-10.03,2.12c-4.24,0-7.52-0.96-10.03-2.7L461.76,102.76z M464.07,57.07h1.35c-0.96,2.12-1.93,4.05-2.7,5.98
		h-1.35C462.14,61.12,463.11,59.19,464.07,57.07z M462.72,96.4c4.05-2.89,8.48-5.01,15.23-5.01c4.05,0,6.75,0.77,7.33,1.74
		c1.93-1.54,3.47-3.08,4.63-5.4c-2.51-1.93-3.09-6.36-1.54-10.03c-0.39,0-6.94,10.03-18.51,10.03c-7.52,0-6.75-8.29-7.13-8.29
		c-0.77,1.74-1.35,5.21-1.35,9.83C461.37,91.97,461.76,94.67,462.72,96.4z M512.27,39.33c8.68,0,9.64,3.28,10.22,3.28l3.28-7.33
		l-4.24-4.63c-11.95,4.63-28.73,10.22-42.99,13.69c-1.54,2.12-5.98,9.45-9.06,15.81C483.93,47.04,503.4,39.33,512.27,39.33z
		 M482.39,25.26h1.74c-3.47,3.47-6.56,7.91-9.83,13.88h-1.54C476.03,33.35,479.11,28.73,482.39,25.26z M516.32,25.45
		c-0.96-1.16-5.59-3.47-9.64-3.47c-10.6,0-17.35,6.56-23.14,13.88C493.18,31.81,508.42,26.99,516.32,25.45z M491.84,107.78h1.35
		c-0.96,1.74-2.12,3.28-3.66,4.63h-1.93C489.33,111.05,490.68,109.51,491.84,107.78z M490.49,144.22c3.09-0.77,5.98-1.74,8.68-2.89
		l-0.58,1.74c-2.89,1.16-5.78,2.12-8.87,2.7L490.49,144.22z M494.92,84.83c4.63,0,12.92-6.17,15.81-11.95
		c7.52-14.85,8.1-19.09,8.1-21.4c0-4.05-2.7-6.75-6.94-6.75c-5.59,0-8.48,5.01-10.99,9.45c-6.94,13.69-9.45,22.94-9.45,26.03
		C491.45,83.48,492.61,84.83,494.92,84.83z M494.53,72.88h1.35c-0.58,1.93-1.16,3.66-1.35,5.01h-1.35
		C493.38,76.54,493.96,74.81,494.53,72.88z M523.65,91.39c5.59,0,4.43,3.66,5.01,3.66l9.64-20.63c-0.96,0-9.26,13.11-20.44,13.11
		c-7.13,0-4.82-8.1-5.59-8.1c-4.82,11.95-6.75,16-10.41,23.33C502.63,102.76,512.85,91.39,523.65,91.39z M514.39,58.03h1.35
		c-1.16,2.51-2.7,6.56-5.4,12.53h-1.54L514.39,58.03z M546.98,43.19c3.86,0,3.86,1.54,4.24,1.54l6.56-13.11
		c-7.33,3.09-16.97,5.98-26.99,8.68l-8.1,17.16C523.45,57.84,531.94,43.19,546.98,43.19z M531.75,20.63h1.54l-2.31,5.4h-1.54
		L531.75,20.63z M560.09,24.68l0.39-0.77h-23.14l-4.05,9.06C538.49,30.08,552.57,25.84,560.09,24.68z"/>
	<path d="M590.36,2.7h32.2L605.4,40.49l-3.28,7.13c7.91-8.48,27.18-29.31,43.19-29.31c4.63,0,7.71,1.54,9.64,4.63
		c3.28,5.01,2.89,13.3-1.16,21.98l-38.37,84.25h-32.2l27.38-59.96c5.01-11.18,7.33-15.62,7.33-19.47c0-2.7-1.16-4.05-4.24-4.05
		c-4.63,0-14.27,7.71-16.39,12.34l-32.39,71.14h-32.2L590.36,2.7z M561.24,125.71c0-4.05-16.39,0.58-16.39-7.13
		c0-8.87,14.27-27.19,26.22-27.19c5.21,0,4.05,3.66,4.63,3.66L584,77.7c-0.77,0-10.6,10.03-18.89,10.03c-7.13,0-5.4-8.29-5.78-8.29
		l-21.21,46.27H561.24z M548.33,87.92h1.54l-7.33,16.2H541L548.33,87.92z M543.7,130.72h20.24l-0.77,1.35h-20.44L543.7,130.72z
		 M560.86,60.54h1.54l-3.09,6.56h-1.54L560.86,60.54z M576.48,26.41h1.54l-9.45,20.63h-1.54L576.48,26.41z M597.11,38.37
		c3.86,0,3.86,1.54,4.24,1.54l5.98-13.11c-9.25,3.86-19.86,7.33-28.15,9.45l-10.03,21.21C570.11,57.26,582.45,38.37,597.11,38.37z
		 M573.58,113.75h1.35l-3.28,7.13h-1.35L573.58,113.75z M585.92,5.78h1.54l-3.86,8.29h-1.54L585.92,5.78z M610.79,18.51l5.01-10.22
		c-5.01,4.43-15.42,10.41-21.98,10.41c-1.35,0-2.12-0.58-2.12-1.35c0-5.4,16.39-10.6,16.39-10.8h-15.23l-9.83,21.79
		C590.55,24.68,604.24,19.86,610.79,18.51z M611.95,125.71c0-4.05-16.39,0.58-16.39-7.13c0-8.87,14.27-27.19,26.22-27.19
		c5.21,0,4.05,3.66,4.63,3.66l9.45-20.44c-1.16-0.19-11.95,13.11-20.05,13.11c-7.13,0-5.4-8.29-5.78-8.29l-21.21,46.27H611.95z
		 M593.44,100.26h1.35l-4.44,9.45h-1.35L593.44,100.26z M611.57,60.35h1.35L602.7,82.71h-1.35L611.57,60.35z M606.75,130.72h7.71
		l-0.58,1.35h-8.1L606.75,130.72z M625.26,22.75h2.31c-3.28,2.12-7.13,5.01-11.38,8.48h-1.93
		C618.31,27.76,621.98,25.06,625.26,22.75z M652.05,26.8c-0.39-2.51-2.7-4.24-6.56-4.24c-6.17,0-15.04,5.4-25.45,13.69
		C634.51,31.04,643.76,28.53,652.05,26.8z M621.21,53.21c0.58,0,10.41-9.83,20.24-9.83c7.13,0,6.17,4.43,6.75,4.43
		c2.89-5.4,4.44-10.8,4.82-14.46c-6.56,2.89-25.83,8.87-32.97,10.6C621.98,45.12,622.56,49.55,621.21,53.21z M659.57,26.8
		c0.39,2.12,0.58,4.63,0.19,7.13h-1.16c0.39-2.51,0.39-5.01-0.19-7.13H659.57z"/>
	<path d="M639.33,119.73c0-5.21,1.16-10.6,9.25-28.53l32.39-70.95h32.39L683.48,85.8c-4.24,9.25-4.63,11.57-4.63,13.88
		c0,2.31,0.96,4.24,3.86,4.24c3.86,0,12.15-5.4,18.89-17.74c7.91-14.27,15.42-34.13,29.88-65.94h32.39l-49.74,109.13h-27.38
		c0,0,5.4-21.02,5.78-22.94c0.19-0.58,0.96-2.51,1.93-4.63c-7.71,8.29-27.19,29.5-43.19,29.5
		C643.19,131.3,639.52,125.9,639.33,119.73z M644.15,94.47h1.35l-4.24,10.03h-1.35C641.06,101.8,642.22,98.52,644.15,94.47z
		 M651.28,128.02c10.41,0,17.74-9.26,21.59-13.11c-3.08,0-10.41,10.6-20.82,10.6c-3.86,0-5.98-2.12-5.98-6.17
		c0.19-10.41,10.99-27.96,23.14-27.96c4.24,0,5.21,3.28,5.98,3.28c1.93-5.59,4.43-10.6,7.71-17.16c-0.77,0-6.56,10.03-19.28,10.03
		c-5.98,0-3.47-8.1-4.82-8.1c-3.86,7.71-15.42,30.46-15.42,40.3C643.38,124.74,646.46,128.02,651.28,128.02z M651.67,132.65
		c5.98-0.19,10.6-1.93,16-5.59l0.58,0.96c-5.21,3.86-10.6,5.78-16.77,5.78L651.67,132.65z M658.8,62.28h1.35l-3.09,6.94h-1.54
		L658.8,62.28z M675.77,25.26h1.35l-7.13,15.62h-1.35L675.77,25.26z M692.74,43.19c3.86,0,4.44,1.54,4.82,1.54l6.36-13.11
		c-7.33,3.09-17.55,5.98-27.57,8.68l-7.71,17.16C669.6,57.46,677.89,43.19,692.74,43.19z M706.42,24.68l0.39-0.77h-23.52l-4.24,9.06
		C684.44,29.88,699.1,25.64,706.42,24.68z M687.14,115.49h1.35l-2.51,9.45h-1.35L687.14,115.49z M688.3,78.86h1.35l-2.7,5.78h-1.35
		L688.3,78.86z M690.04,130.72h22.94l-0.77,1.35h-22.56L690.04,130.72z M711.44,125.71c0-1.35-3.86-1.54-6.75-1.74
		c-4.24-0.19-7.91-0.58-7.91-4.82c0-3.66,1.16-9.25,2.12-12.92c5.21-7.33,15.23-15.04,22.36-14.85c5.21,0,4.05,3.66,4.63,3.66
		l9.64-20.44c-1.16-0.19-9.45,13.11-20.44,13.11c-7.13,0-5.98-8.29-6.36-8.29l-9.83,21.79c-1.35,2.89-2.12,4.63-2.7,6.94
		l-4.24,17.54H711.44z M704.88,72.49h1.35l-1.93,4.24h-1.35L704.88,72.49z M716.84,46.08h1.35l-9.06,19.86h-1.35L716.84,46.08z
		 M742.67,43.19c3.86,0,4.43,1.54,4.82,1.54l6.56-13.11c-7.52,3.09-17.55,5.98-27.76,8.68l-8.1,17.16
		C719.15,57.46,727.83,43.19,742.67,43.19z M722.81,32.58h1.54l-3.47,7.33h-1.35L722.81,32.58z M757.13,24.68l0.39-0.77H734
		l-4.05,9.06C735.35,29.88,749.8,25.64,757.13,24.68z"/>
	<path d="M743.44,105.27l38.75-84.83h32.2l-43.96,96.21c-2.12,4.63-4.24,8.29-6.36,11.38c-2.51,3.47-5.21,6.17-8.29,8.48
		c-7.33,5.21-17.35,7.71-30.85,7.71l2.7-28.73C734.77,114.91,740.17,112.6,743.44,105.27z M758.48,129.37
		c-0.58,0-11.38,7.71-22.94,7.71c-2.7,0-2.89-1.35-3.09-4.05c0-0.77-0.39-5.78-1.74-7.71l-1.54,15.23
		C741.71,139.78,751.15,137.08,758.48,129.37z M731.68,145.37c9.45-0.58,16.58-2.7,21.98-5.78l-0.19,1.54
		c-5.59,2.89-12.73,5.01-22.17,5.59L731.68,145.37z M750.19,106.81c4.44-9.83,11.76-15.42,20.44-15.42c5.98,0,4.82,3.66,5.4,3.66
		l8.29-17.35c-0.77-0.19-7.71,10.03-18.89,10.03c-5.98,0-5.4-8.29-5.78-8.29c-4.63,11.18-9.64,21.98-12.92,29.11
		c-1.74,3.09-3.28,5.78-9.25,9.06C742.48,117.61,746.33,115.3,750.19,106.81z M745.76,93.51h1.35l-3.28,7.13h-1.35L745.76,93.51z
		 M768.31,44.54h1.35l-10.03,21.79h-1.35L768.31,44.54z M794.15,43.19c3.86,0,3.86,1.54,4.24,1.54l6.56-13.11
		c-7.33,3.09-17.35,5.98-27.38,8.68l-8.48,17.16C770.05,57.46,779.3,43.19,794.15,43.19z M776.99,25.45h1.35l-4.63,10.22h-1.35
		L776.99,25.45z M807.45,24.68l0.39-0.77h-23.52l-4.05,9.06C785.47,30.08,799.93,25.84,807.45,24.68z M787.59,4.63h33.35l-2.89,6.75
		H784.7L787.59,4.63z M809,8.87l0.77-1.74h-19.09l-0.77,1.74H809z"/>
</g>
</svg>
