<?xml version="1.0" encoding="utf-8"?>
<!-- Generator: Adobe Illustrator 24.2.3, SVG Export Plug-In . SVG Version: 6.00 Build 0)  -->
<svg version="1.1" id="Layer_1" xmlns="http://www.w3.org/2000/svg" xmlns:xlink="http://www.w3.org/1999/xlink" x="0px" y="0px"
	 viewBox="0 0 498.22 150" style="enable-background:new 0 0 498.22 150;" xml:space="preserve">
<g>
	<path d="M1.13,142.67c12.62,3.07,17.63-1.78,20.22-6.96c4.69-9.54,1.46-19.73,3.72-29.12c2.26-9.22,9.06-14.4,10.84-21.84
		c2.43-10.35-4.53-25.4-0.16-37.69c3.88-11,14.07-10.84,23.46-14.07l0.81,0.97c-5.5,4.37-9.38,9.71-11.32,15.21
		c-4.37,12.94,2.43,25.88-1.13,39.31c-2.59,9.38-8.74,13.26-11.49,23.46c-3.4,12.46,2.43,18.6-2.43,27.82
		c-5.18,10.19-18.12,14.72-33.65,4.37L1.13,142.67z M46.59,19.09c0-5.5,5.18-8.57,11.49-9.71c4.85-0.81,11-1.78,16.98-7.12
		l0.97,0.97c-6.63,8.09-10.51,22.81-21.19,22.81C49.66,26.04,46.59,22.81,46.59,19.09z"/>
	<path d="M95.11,125.69c-3.88-5.34-7.93-10.19-6.79-18.76l-0.65-0.32c-5.5,12.29-11.81,18.76-21.35,18.76
		c-7.6,0-14.07-5.82-14.07-14.88c0-12.46,11.81-16.34,11.81-29.76c0-6.79-2.59-14.23-2.59-22.81c0-16.5,9.06-25.07,21.51-25.07
		c7.93,0,13.26,3.56,18.6,3.56c6.15,0,8.41-2.43,11.16-4.85l0.81,0.97c-7.12,11.32-10.35,21.03-10.35,31.22
		c0,5.66,1.13,11.32,1.13,17.31c0,16.82-9.54,22.81-7.93,44.32L95.11,125.69z M84.92,102.88c4.53-7.12,7.76-14.23,7.76-23.45
		c0-6.31-1.46-9.38-1.46-15.85c0-10.84,4.21-17.96,10.35-21.51l-0.48-1.13c-10.03,3.24-15.69-0.97-21.51,2.26
		c-4.69,2.59-6.15,8.41-6.15,14.88c0,8.09,2.1,13.1,2.1,19.74c0,15.21-11.16,22.65-11.16,31.22c0,4.04,2.43,6.63,5.99,6.63
		C76.19,115.66,81.04,108.87,84.92,102.88z"/>
	<path d="M107.57,112.59c0-14.56,11.81-18.44,11.81-31.54c0-7.12-2.91-14.23-2.91-20.22c0-19.09,10.84-27.98,21.84-27.98
		c8.41,0,12.62,3.56,17.96,3.56c2.1,0,3.07-1.13,3.07-3.56c0-3.24-2.43-7.44-2.43-13.59c0-5.82,1.94-9.22,4.37-12.29
		c4.53-5.5,11-5.18,16.5-6.96l0.65,0.97c-5.5,5.01-8.41,8.25-9.87,14.56c-1.46,6.15-0.49,10.68-0.49,16.5
		c0,11.32-9.54,16.01-9.54,31.71c0,5.66,1.13,11.32,1.13,17.79c0,16.34-10.35,21.03-9.71,41.73l-1.46,0.16
		c-2.91-6.15-5.5-7.93-5.34-15.37l-0.65-0.32c-5.82,11-12.78,17.63-22.32,17.63C112.58,125.37,107.57,119.54,107.57,112.59z
		 M140.24,101.75c4.53-7.12,7.76-13.1,7.76-21.51c0-7.12-1.46-10.19-1.46-18.12c0-9.38,4.04-16.66,10.19-20.22l-0.49-1.13
		c-4.04,2.43-10.68,1.78-15.53,2.26c-6.96,0.65-11.97,6.96-11.97,16.01c0,7.12,2.75,11.16,2.75,20.22
		c0,12.78-11.81,21.19-11.81,29.93c0,3.88,2.43,6.47,6.15,6.47C131.51,115.66,136.36,107.73,140.24,101.75z"/>
	<path d="M187.15,109.35c0-12.78,12.62-23.62,12.62-38.5c0-5.5-1.78-11.32-1.78-16.34c0-19.25,11.32-21.35,21.03-38.5l1.29,0.32
		c-0.97,6.63-1.94,14.88-5.34,20.71l0.32,0.32c6.15-2.1,14.72,2.1,21.03-0.65l0.97,0.81c-5.18,4.85-6.47,10.19-14.72,10.19
		c-3.4,0-5.82-1.13-8.57-1.13c-4.21,0-5.34,2.91-5.34,8.09c0,4.69,2.1,10.35,2.1,17.79c0,16.99-12.29,25.07-12.29,35.1
		c0,4.37,2.26,8.9,8.9,8.9c6.63,0,9.71-4.53,15.85-7.76l0.81,1.29c-5.01,4.21-6.79,15.85-19.9,15.85
		C193.3,125.85,187.15,118.25,187.15,109.35z"/>
	<path d="M224.03,108.06c0-11.65,11.32-18.44,11.65-34.29c0-5.18-1.46-9.71-1.29-15.37c0.16-13.59,7.44-26.21,23.62-26.21
		c12.13,0,18.76,7.28,18.76,17.47c0,11-7.6,20.54-7.6,34.62c0,4.85,0.97,9.71,0.97,15.04c-0.32,16.34-9.38,27.5-24.1,27.5
		C233.58,126.82,224.03,118.89,224.03,108.06z M259.14,96.9c0.16-4.53-0.16-8.9-0.16-12.78c0-16.66,6.96-23.94,6.96-32.51
		c0-5.82-3.24-9.38-8.9-9.38c-7.76,0-11,6.79-11,16.01c0,5.18,0.81,10.84,0.81,15.37c0,16.18-10.51,22-10.68,31.87
		c0,5.98,3.72,11.32,10.19,11.32C255.74,116.79,258.97,106.44,259.14,96.9z"/>
	<path d="M264.31,144.29l-0.97-1.13c7.44-7.28,9.71-10.51,16.66-10.51c8.9,0,12.13,8.74,18.44,8.74c5.5,0,6.79-4.37,7.12-10.03
		c0.49-9.22,4.85-17.47,9.22-25.56l-1.13-0.65c-7.44,11-13.26,20.22-24.43,20.22c-7.6,0-12.62-5.82-12.62-12.78
		c0-14.56,11.81-18.44,11.81-31.54c0-7.12-2.91-14.23-2.91-20.22c0-19.09,10.84-27.98,23.46-27.98c7.76,0,11.65,3.56,16.98,3.56
		c6.15,0,8.41-2.43,11.16-4.85l0.81,0.97c-7.12,11.32-10.35,21.03-10.35,31.22c0,5.66,1.13,11.32,1.13,17.79
		c0,9.87-5.01,14.23-8.57,22.49c-2.1,5.01-3.07,11.65-3.07,23.45c0,12.13-9.38,19.74-21.19,19.74
		C286.47,147.2,275.15,138.47,264.31,144.29z M317.05,80.23c0-7.12-1.46-10.19-1.46-18.12c0-9.38,4.04-16.66,10.19-20.22l-0.49-1.13
		c-6.79,2.43-10.68,1.78-15.53,2.26c-6.96,0.65-11.97,6.96-11.97,16.01c0,7.12,2.75,11.16,2.75,20.22
		c0,12.78-11.81,21.19-11.81,29.93c0,3.88,2.43,6.47,6.15,6.47C303.14,115.66,317.05,96.09,317.05,80.23z"/>
	<path d="M326.59,124.39c7.44-5.98,12.94-15.85,12.94-27.66c0-5.66-1.29-12.94-1.29-19.41c0-16.18,12.46-27.5,12.46-41.9
		c0-11.65-0.97-23.13,8.9-28.79c4.37-2.59,9.06-2.59,13.59-2.59l0.16,0.81c-3.88,1.46-5.99,4.21-7.44,7.12
		c-3.56,6.96-2.1,15.37-4.37,24.75c-0.81,3.24-2.59,6.47-3.72,8.25l1.13,0.81c1.29-1.78,3.07-4.53,5.18-6.63
		c3.88-3.88,7.44-5.66,13.75-5.66c7.6,0,12.94,5.82,12.94,12.78c0,14.56-11.81,18.44-11.81,31.54c0,7.12,2.91,15.85,2.91,22.97
		c0,8.09-1.94,15.53-8.09,19.41c-5.5,3.4-9.06,0.81-14.4,4.21l-0.81-0.97c7.44-5.98,11-15.2,11-23.62c0-6.96-2.75-11-2.75-19.9
		c0-12.94,11.81-21.35,11.81-30.25c0-3.88-2.43-6.47-6.15-6.47c-10.68,0-22.32,20.22-22.32,35.1c0,7.12,1.62,12.13,1.62,20.06
		c0,11.48-2.43,18.6-8.57,22.49c-5.5,3.4-10.51,1.13-15.85,4.53L326.59,124.39z"/>
	<path d="M389.35,111.29c0-14.56,11.81-18.44,11.81-31.54c0-7.12-2.91-15.85-2.91-22.97c0-8.09,1.94-15.53,8.09-19.41
		c5.5-3.4,9.06-0.81,14.4-4.21l0.81,0.97c-7.44,5.98-11,15.2-11,23.62c0,6.96,2.75,11,2.75,19.9c0,12.94-11.81,21.35-11.81,30.25
		c0,3.88,2.43,6.47,6.15,6.47c10.68,0,22.32-20.22,22.32-35.1c0-7.12-1.62-12.13-1.62-20.06c0-11.49,2.43-18.6,8.57-22.49
		c5.5-3.4,10.51-1.13,15.85-4.53l0.81,0.97c-7.44,5.98-12.94,15.85-12.94,27.66c0,5.66,1.29,12.94,1.29,19.41
		c0,16.18-11.48,22.65-9.38,43.84l-1.46,0.16c-3.4-4.37-6.96-9.38-6.15-16.5l-0.65-0.16c-6.15,10.68-12.29,17.79-22,17.79
		C394.69,125.37,389.35,118.73,389.35,111.29z"/>
	<path d="M423.32,142.67c12.62,3.07,17.63-1.78,20.22-6.96c4.69-9.54,1.46-19.73,3.72-29.12c2.26-9.22,9.06-14.4,10.84-21.84
		c2.43-10.35-4.53-25.4-0.16-37.69c3.88-11,14.07-10.84,23.45-14.07l0.81,0.97c-5.5,4.37-9.38,9.71-11.32,15.21
		c-4.37,12.94,2.43,25.88-1.13,39.31c-2.59,9.38-8.74,13.26-11.49,23.46c-3.4,12.46,2.43,18.6-2.43,27.82
		c-5.18,10.19-18.12,14.72-33.65,4.37L423.32,142.67z M468.78,19.09c0-5.5,5.18-8.57,11.49-9.71c4.85-0.81,11-1.78,16.98-7.12
		l0.97,0.97c-6.63,8.09-10.51,22.81-21.19,22.81C471.85,26.04,468.78,22.81,468.78,19.09z"/>
</g>
</svg>
