<?xml version="1.0" encoding="utf-8"?>
<!-- Generator: Adobe Illustrator 24.2.3, SVG Export Plug-In . SVG Version: 6.00 Build 0)  -->
<svg version="1.1" id="Layer_1" xmlns="http://www.w3.org/2000/svg" xmlns:xlink="http://www.w3.org/1999/xlink" x="0px" y="0px"
	 viewBox="0 0 1283.89 150" style="enable-background:new 0 0 1283.89 150;" xml:space="preserve">
<g>
	<path d="M107.66,5.39c6.59,0,13.18,4.59,13.18,13.18v71.5c0,33.36-21.37,59.92-59.12,59.92C30.96,150,0,132.82,0,94.07V65.51h55.33
		V33.16c-3.4-0.8-5.19-3.4-5.19-5.79c0-1.2,0.4-2.8,1.4-3.99c-1.2-1-1.8-2.4-1.8-3.99c0-1.4,0.6-2.8,1.6-3.99
		c-1.2-1-1.8-2.6-1.8-3.99c0-1.6,0.8-3.2,2.2-4.39c1.4-1,3.4-1.6,5.59-1.6H107.66z M75.7,21.57v3.2l-18.38,0.2c-1.6,0-3,0.8-3,2.2
		c0,1,1,2,3,2h22.77v51.13c9.19,2.2,20.37,8.59,23.37,23.17l-4.19,1c-3.4-16.58-18.97-20.97-26.96-20.97
		c-10.39,0-19.57,4.59-28.76,14.58c-6.99,7.39-7.59,8.19-7.59,8.19l-3.2-2.8c0,0,1.4-1.2,7.79-8.19c2.8-3.2,5.79-5.79,8.79-7.99
		C43.54,80.69,35.35,76.7,27.96,76.7c-10.39,0-15.78,1.8-23.77,7.79v9.59c0,35.75,28.96,51.73,57.52,51.73
		c31.96,0,54.93-21.97,54.93-55.73v-71.5c0-6.19-4.79-8.99-8.99-8.99H57.32c-1.6,0-3.59,0.4-3.59,2s1.8,2,3.59,2l18.38,0.2v3.2
		l-18.38,0.2c-2,0-3.59,0.6-3.59,2.2c0,1.2,1.4,2,3.59,2L75.7,21.57z"/>
	<path d="M105.86,145.81L185.75,0l79.29,145.81H105.86z M185.75,9.19l-39.35,72.3c3.2,5.99,8.79,10.99,16.58,11.78
		c-0.2-1-0.2-1.8-0.2-2.8c0-7.59,1.4-18.98,7.99-29.16l3.6,2.2c-6.19,9.39-7.39,19.97-7.39,26.96c0,9.19,9.79,31.36,34.15,31.36
		c8.19,0,15.18-1.8,20.97-5.19l2.2,3.8c-6.59,3.79-14.18,5.59-23.17,5.59c-7.79,0-14.78-2.2-14.78-2.2v17.78h71.9L185.75,9.19z"/>
	<path d="M276.63,110.45V6.79h45.94c13.18,0,26.56,5.39,37.75,14.58c29.56,5.39,42.94,32.16,42.94,56.33
		c0,16.98-7.39,35.95-23.57,44.74c-13.78,16.18-35.55,23.37-58.12,23.37h-48.94c-3.79,0-5.79-3-5.79-5.79c0-1.4,0.2-2.4,1-3.6
		c-1-1-1.4-2.2-1.4-3.79c0-1.2,0.4-2.6,1.2-3.6c-0.8-1-1.2-2.2-1.2-3.6c0-1.2,0.4-2.6,1.2-3.59c-1-1-1.4-2.4-1.4-3.8
		c0-3.79,2.8-4.39,5.99-5.79L276.63,110.45z M272.44,116.25c-1.6,0.6-2,1.2-2,2.2c0,0.8,0.6,1.6,2,1.6l6.39,0.2v3.2l-5.99,0.2
		c-1.2,0-2.2,0.6-2.2,1.6s0.6,1.8,2.4,1.8l5.79,0.2v3.2l-6.19,0.2c-1.4,0-2,1-2,2s1,1.8,2.6,1.8l5.59,0.2v3.2l-6.19,0.4
		c-1.2,0.2-1.6,1.4-1.6,1.8c0,0.4,0.4,1.6,2,1.6h48.54c15.98,0,17.98-5.99,17.98-11.98v-74.5h4.19v74.7
		c19.17-6.99,26.96-27.16,28.56-32.96l3.99,1.2c-1,3.99-4.59,13.78-13.18,23.17c0.8,0,1.8,0.2,3,0.2
		c21.57,0,32.96-24.17,32.96-43.74c0-20.37-9.99-42.54-32.36-50.33c8.19,8.59,13.78,18.78,15.58,28.56l-3.99,0.8
		c-3.99-21.37-27.76-45.74-55.73-45.74c-11.58,0-18.98,6.79-18.98,20.17v74.5L272.44,116.25z"/>
	<path d="M560.25,6.79h26.76v61.92h-39.15c0.4,1.8,0.6,3.6,0.6,5.19v71.9h-65.51v-77.1h-39.15V31.16c-3.8-3.99-5.99-7.79-5.99-11.38
		c0-15.18,16.38-16.78,27.56-17.18c9.59-0.4,17.78-0.8,72.9-0.8C547.87,1.8,555.06,3,560.25,6.79z M540.28,42.54v-9.79
		c-12.38-0.6-18.97-6.59-18.97-16.98h4.19c0,8.39,5.59,12.78,16.78,12.78h2.2v14.38c0,2.2,1.2,3.2,2.4,3.2c2,0,3.2-1.4,3.2-3.2
		V27.36h3.2v15.58c0,1.2,0.8,3.4,3,3.4c1.6,0,2.8-1.4,2.8-3.59V27.36h3.2v15.38c0,2.2,1.2,3.4,2.8,3.4c1.6,0,2.2-2,2.2-3.6V28.56
		c0-4.79-2.4-12.98-8.19-17.78c-4.59-3.6-11.78-4.79-20.77-4.79c-54.73,0-64.51,0.4-72.9,0.8c-7.79,0.4-23.37,0.6-23.37,12.98
		c0,7.79,17.78,20.57,43.54,31.36c4.79-14.18,17.18-19.57,17.38-19.57l1.4,3.8c-1.6,0.8-16.18,7.79-16.18,27.16
		c0,25.97,21.77,32.96,33.36,32.96v4.19c-2.4,0-5.19-0.4-8.19-1c-1.2,5.59-1.8,11.98-1.8,17.98c0,10.79,1.4,20.97,2,24.97h30.76
		V73.9c0-9.19-4.99-13.58-15.58-13.58v-4.19c9.99,0,15.18,3.8,17.78,8.39h36.35V10.99h-17.78c4.59,5.19,6.59,12.78,6.59,17.58v13.78
		c0,2.4-0.8,4.39-2,5.79c-1.2,1.4-2.8,2.2-4.59,2.2c-1.6,0-3.2-0.6-4.39-1.8c-1.2,1.4-3,2-4.79,2c-1.8,0-3.2-0.6-4.39-1.8
		c-1.2,1-2.6,1.6-4.19,1.6C543.87,50.33,540.28,47.34,540.28,42.54z"/>
	<path d="M734.02,74.9c0,41.35-31.96,74.9-71.11,74.9c-39.15,0-71.11-33.56-71.11-74.9c0-41.15,31.96-73.7,71.11-73.7
		C702.66,1.2,734.02,33.75,734.02,74.9z M729.83,74.9c0-27.36-14.58-49.93-35.95-61.52c-13.98,5.79-22.97,17.58-22.97,33.36
		c0,11.98,4.39,24.97,12.38,35.15l-3.2,2.6c-5.19-6.59-8.99-14.18-11.19-21.97c-32.96,0.6-54.53,19.37-60.92,53.13
		c12.18,18.18,32.36,29.96,54.93,29.96C699.67,145.61,729.83,113.85,729.83,74.9z"/>
	<path d="M856.46,144.21c-1,1.2-2.4,1.6-3.79,1.6c-2.4,0-5.19-1.8-5.59-5.99c-2.8,2.4-15.78,9.39-37.55,9.39
		c-26.76,0-47.34-18.18-54.33-28.36c-10.79-1.8-15.58-9.19-15.58-16.58c0-3.4,0.6-5.59,1.8-8.79c-1-4.19-2.4-11.18-2.4-16.78
		c0-44.14,32.16-77.5,77.5-77.5c17.38,0,34.15,6.99,51.33,21.57l1.4,1.2L835.49,76.3h35.55c8.59,0,10.79,3.4,10.79,11.78v50.93
		c0,4.99-3.2,6.79-6.19,6.79c-1.4,0-2.6-0.6-3.6-1.6c-0.6,0.8-2,1.6-3.6,1.6c-2.2,0-3.59-1-3.99-1.8c-1,1.4-2.6,1.8-3.99,1.8
		C858.86,145.81,857.46,145.41,856.46,144.21z M855.06,139.21v-12.78h3.2v12.78c0,2.2,0.6,3.2,2.2,3.2c1,0,2.4-0.8,2.4-3.2v-12.78
		h3.2v12.78c0,1.8,0.6,3.2,2.4,3.2c1,0,2.2-0.8,2.2-3.2v-12.78h3.2v12.78c0,2.2,1.2,3.2,2.2,3.2c1.2,0,2.2-0.8,2.2-3.2V88.08
		c0-4.19-0.4-8.19-6.19-8.19h-73.9v-3.6h32.36l20.97-34.15c-4.19-3.79-15.38-12.78-28.76-12.78c-10.19,0-19.57,1-33.16,11.98
		l-2.8-3.2c5.19-4.19,9.79-6.99,13.98-8.79c-3.99-6.39-11.98-11.78-22.17-11.78c-1.2,0-2.6,0-3.99,0.2
		c-18.18,11.38-31.36,31.76-31.36,60.92c0,3.4,0.2,6.59,1,10.19c4.59-6.79,9.99-12.98,17.18-19.37l7.99-6.99l2.8,3l-7.99,7.19
		c-11.38,10.39-19.97,20.97-19.97,31.16c0,13.18,12.38,13.58,21.37,13.58h85.09v21.77c0,2.4,1,3.2,2,3.2
		C853.46,142.41,855.06,141.81,855.06,139.21z"/>
	<path d="M1021.64,110.25v35.55h-63.52v-39.95c-2.4,2-4.79,3.6-7.39,4.99v34.95h-62.92V6.39h62.92v44.74h7.39V6.39h63.52v63.72
		c4.39,8.19,4.79,17.18,4.79,20.77C1026.43,98.07,1024.24,104.66,1021.64,110.25z M962.32,103.86v37.75h50.33l-8.39-16.98
		c1.8-1.6,17.98-16.18,17.98-33.75c0-4.99-1.2-21.57-15.98-29.96l9.99-50.33h-53.93v44.74h-15.78V10.59h-18.38
		c-18.98,16.38-35.95,49.33-35.95,83.09v47.94h54.33v-28.96c-3.99,1.6-8.19,2.2-12.58,2.2c-24.57,0-31.56-13.18-31.76-13.58l3.6-2
		c1.2,1.6,7.99,11.38,28.16,11.38c21.17,0,38.35-21.77,38.35-48.34h4.19c0,13.78-4.39,26.76-12.58,37.55
		c7.19,6.59,15.18,10.79,29.56,10.79v4.19C977.9,114.85,969.11,109.85,962.32,103.86z"/>
	<path d="M1161.65,27.16c1.2,1,1.8,2.6,1.8,3.99c0,3.79-3.59,5.19-6.59,5.39V75.5c0,47.14-23.37,74.1-64.11,74.1
		c-32.76,0-62.12-19.77-62.12-56.13c0-6.99,1-12.98,2.6-18.58V6.59h62.12c1.8-2.6,4.99-4.99,11.38-4.99h48.73
		c3.4,0,7.99,1.4,7.99,5.59c0,1.8-0.8,3.2-2.2,3.99c1.4,1,2.2,2.6,2.2,4.39c0,1.4-0.8,2.8-2,3.79c1.2,1.2,2,2.6,2,3.99
		S1162.85,26.16,1161.65,27.16z M1156.06,10.19c2.4,0,3.2-1.2,3.2-2.4c0-1.2-1.2-2-3.4-2h-49.13c-7.39,0-8.79,3.2-8.79,8.39v35.95
		c3.99-1.8,8.59-2.6,13.78-2.6h20.37v4.19h-20.37c-21.97,0-27.76,18.18-27.76,28.76c0,14.18,11.19,22.37,11.19,22.57l-2.4,3.4
		c-0.6-0.4-12.98-9.59-12.98-25.97c0-8.19,2.6-16.18,7.19-21.97c2-2.4,4.19-4.39,6.79-6.19c-1.8-1.2-8.59-4.99-20.57-4.99
		c-26.96,0-38.35,23.97-38.35,46.14c0,23.97,14.38,51.93,57.92,51.93c38.15,0,59.92-25.57,59.92-69.91V36.55l-3.99-0.2v-3.2h7.39
		c1.8,0,3.2-0.8,3.2-2.2c0-1.2-0.8-2.2-3.2-2.2h-7.39v-3.2h7.19c1.4,0,3.4-0.6,3.4-2.2c0-1-0.4-2.2-3.4-2.2h-7.19v-3.2h7.39
		c2.4,0,3.2-1,3.2-2.4c0-1.2-1.4-2.2-3.2-2.2h-7.39v-3.2H1156.06z"/>
	<path d="M1270.71,5.39c6.59,0,13.18,4.59,13.18,13.18v71.5c0,33.36-21.37,59.92-59.12,59.92c-30.76,0-61.72-17.18-61.72-55.93
		V65.51h55.33V33.16c-3.4-0.8-5.19-3.4-5.19-5.79c0-1.2,0.4-2.8,1.4-3.99c-1.2-1-1.8-2.4-1.8-3.99c0-1.4,0.6-2.8,1.6-3.99
		c-1.2-1-1.8-2.6-1.8-3.99c0-1.6,0.8-3.2,2.2-4.39c1.4-1,3.4-1.6,5.59-1.6H1270.71z M1238.75,21.57v3.2l-18.38,0.2
		c-1.6,0-3,0.8-3,2.2c0,1,1,2,3,2h22.77v51.13c9.19,2.2,20.37,8.59,23.37,23.17l-4.19,1c-3.4-16.58-18.98-20.97-26.96-20.97
		c-10.39,0-19.57,4.59-28.76,14.58c-6.99,7.39-7.59,8.19-7.59,8.19l-3.2-2.8c0,0,1.4-1.2,7.79-8.19c2.8-3.2,5.79-5.79,8.79-7.99
		c-5.79-6.59-13.98-10.59-21.37-10.59c-10.39,0-15.78,1.8-23.77,7.79v9.59c0,35.75,28.96,51.73,57.52,51.73
		c31.96,0,54.93-21.97,54.93-55.73v-71.5c0-6.19-4.79-8.99-8.99-8.99h-50.33c-1.6,0-3.6,0.4-3.6,2s1.8,2,3.6,2l18.38,0.2v3.2
		l-18.38,0.2c-2,0-3.6,0.6-3.6,2.2c0,1.2,1.4,2,3.6,2L1238.75,21.57z"/>
</g>
</svg>
