<?xml version="1.0" encoding="utf-8"?>
<!-- Generator: Adobe Illustrator 24.2.3, SVG Export Plug-In . SVG Version: 6.00 Build 0)  -->
<svg version="1.1" id="Layer_1" xmlns="http://www.w3.org/2000/svg" xmlns:xlink="http://www.w3.org/1999/xlink" x="0px" y="0px"
	 viewBox="0 0 1240.22 150" style="enable-background:new 0 0 1240.22 150;" xml:space="preserve">
<g>
	<path d="M56.92,16.69c-2.35,0-3.85-0.86-3.85-2.14c0-1.71,1.71-2.35,3.85-2.35l19.69-0.21V8.56L56.92,8.35
		c-1.93,0-3.85-0.43-3.85-2.14s2.14-2.14,3.85-2.14h53.92c4.49,0,9.63,3,9.63,9.63v76.6c0,36.16-24.61,59.7-58.84,59.7
		C31.03,150,0,132.88,0,94.58V84.31c8.56-6.42,14.34-8.35,25.46-8.35c7.92,0,16.69,4.28,22.9,11.34c-3.21,2.35-6.42,5.14-9.42,8.56
		c-6.85,7.49-8.35,8.77-8.35,8.77l3.42,3c0,0,0.64-0.86,8.13-8.77C52,88.16,61.84,83.24,72.97,83.24c8.56,0,25.25,4.71,28.89,22.47
		l4.49-1.07c-3.21-15.62-15.19-22.47-25.04-24.82V25.04H56.92c-2.14,0-3.21-1.07-3.21-2.14c0-1.5,1.5-2.35,3.21-2.35l19.69-0.21
		V16.9L56.92,16.69z"/>
	<path d="M246.5,145.51h-77.03v-19.04c0,0,7.49,2.35,15.83,2.35c9.63,0,17.76-1.93,24.82-5.99l-2.35-4.07
		c-6.21,3.64-13.69,5.56-22.47,5.56c-26.11,0-36.59-23.75-36.59-33.59c0-7.49,1.28-18.83,7.92-28.89l-3.85-2.35
		c-7.06,10.91-8.56,23.11-8.56,31.24c0,1.07,0,1.93,0.21,3c-8.35-0.86-14.34-6.21-17.76-12.62l42.15-77.46L246.5,145.51z"/>
	<path d="M288.66,106.99V27.18c0-14.34,7.92-21.61,20.33-21.61c29.96,0,55.42,26.11,59.7,49l4.28-0.86
		c-1.93-10.48-7.92-21.4-16.69-30.6c23.97,8.35,34.66,32.1,34.66,53.92c0,20.97-12.2,46.86-35.31,46.86c-1.28,0-2.35-0.21-3.21-0.21
		c9.2-10.06,13.05-20.54,14.12-24.82l-4.28-1.28c-1.71,6.21-10.06,27.82-30.6,35.31V52.85h-4.49v79.81
		c0,6.42-2.14,12.84-19.26,12.84h-52c-1.71,0-2.14-1.28-2.14-1.71c0-0.43,0.43-1.71,1.71-1.93l6.63-0.43v-3.42l-5.99-0.21
		c-1.71,0-2.78-0.86-2.78-1.93s0.64-2.14,2.14-2.14l6.63-0.21v-3.42l-6.21-0.21c-1.93,0-2.57-0.86-2.57-1.93
		c0-1.07,1.07-1.71,2.35-1.71l6.42-0.21v-3.42l-6.85-0.21c-1.5,0-2.14-0.86-2.14-1.71c0-1.07,0.43-1.71,2.14-2.35L288.66,106.99z"/>
	<path d="M549.71,47.72c1.71,0,3.21-0.64,4.49-1.71c1.28,1.28,2.78,1.93,4.71,1.93s3.85-0.64,5.14-2.14c1.28,1.28,3,1.93,4.71,1.93
		c1.93,0,3.64-0.86,4.92-2.35s2.14-3.64,2.14-6.21V24.39c0-5.14-2.14-13.27-7.06-18.83h19.04v57.35h-38.94
		c-2.78-4.92-8.35-8.99-19.04-8.99v4.49c11.34,0,16.69,4.71,16.69,14.55v72.54h-32.95c-0.64-4.28-2.14-15.19-2.14-26.75
		c0-6.42,0.64-13.27,1.93-19.26c3.21,0.64,6.21,1.07,8.77,1.07v-4.49c-12.41,0-35.73-7.49-35.73-35.31
		c0-20.76,15.62-28.25,17.33-29.1l-1.5-4.07c-0.21,0-13.48,5.78-18.62,20.97c-27.6-11.56-46.65-25.25-46.65-33.6
		c0-13.27,16.69-13.48,25.04-13.91c8.99-0.43,19.47-0.86,78.1-0.86c9.63,0,17.33,1.28,22.25,5.14c6.21,5.14,8.77,13.91,8.77,19.04
		v14.98c0,1.71-0.64,3.85-2.35,3.85c-1.71,0-3-1.28-3-3.64V23.11h-3.42v16.48c0,2.35-1.28,3.85-3,3.85c-2.35,0-3.21-2.35-3.21-3.64
		V23.11h-3.42V39.8c0,1.93-1.28,3.42-3.42,3.42c-1.28,0-2.57-1.07-2.57-3.42V24.39h-2.35c-11.98,0-17.97-4.71-17.97-13.69h-4.49
		c0,11.13,7.06,17.55,20.33,18.19v10.48C542.22,44.51,546.07,47.72,549.71,47.72z"/>
	<path d="M613.69,149.79c-24.18,0-45.79-12.62-58.85-32.1c6.85-36.16,29.96-56.28,65.26-56.92c2.35,8.35,6.42,16.48,11.98,23.54
		l3.42-2.78c-8.56-10.91-13.27-24.82-13.27-37.66c0-16.9,9.63-29.53,24.61-35.74c22.9,12.41,38.52,36.59,38.52,65.91
		C685.38,115.76,653.06,149.79,613.69,149.79z"/>
	<path d="M808.42,146.36c-1.07,0-2.14-0.86-2.14-3.42v-23.32h-91.16c-9.63,0-22.9-0.43-22.9-14.55c0-10.91,9.2-22.25,21.4-33.38
		l8.56-7.7l-3-3.21l-8.56,7.49c-7.7,6.85-13.48,13.48-18.4,20.76c-0.86-3.85-1.07-7.28-1.07-10.91c0-31.24,14.12-53.07,33.59-65.26
		c1.5-0.21,3-0.21,4.28-0.21c10.91,0,19.47,5.78,23.75,12.62c-4.49,1.93-9.42,4.92-14.98,9.42l3,3.42
		c14.55-11.77,24.61-12.84,35.52-12.84c14.34,0,26.32,9.63,30.81,13.69l-22.47,36.59H750v3.85h79.17c6.21,0,6.63,4.28,6.63,8.77
		v54.78c0,2.57-1.07,3.42-2.35,3.42c-1.07,0-2.35-1.07-2.35-3.42v-13.69h-3.42v13.69c0,2.57-1.28,3.42-2.35,3.42
		c-1.93,0-2.57-1.5-2.57-3.42v-13.69h-3.42v13.69c0,2.57-1.5,3.42-2.57,3.42c-1.71,0-2.35-1.07-2.35-3.42v-13.69h-3.42v13.69
		C810.98,145.72,809.27,146.36,808.42,146.36z"/>
	<path d="M952.85,116.83v-4.49c-15.41,0-23.97-4.49-31.67-11.56c8.77-11.55,13.48-25.46,13.48-40.23h-4.49
		c0,28.46-18.4,51.78-41.08,51.78c-21.61,0-28.89-10.49-30.17-12.2l-3.85,2.14c0.21,0.43,7.7,14.55,34.02,14.55
		c4.71,0,9.2-0.64,13.48-2.35v31.03h-58.2V94.15c0-36.16,18.19-71.47,38.52-89.02h19.69v47.93h16.9V5.14h57.77l-10.7,53.92
		c15.83,8.99,17.12,26.75,17.12,32.1c0,18.83-17.33,34.45-19.26,36.16l8.99,18.19h-53.92v-40.44
		C926.74,111.48,936.16,116.83,952.85,116.83z"/>
	<path d="M1110.55,4.71v3.42h7.92c1.93,0,3.42,1.07,3.42,2.35c0,1.5-0.86,2.57-3.42,2.57h-7.92v3.42h7.7c3.21,0,3.64,1.28,3.64,2.35
		c0,1.71-2.14,2.35-3.64,2.35h-7.7v3.42h7.92c2.57,0,3.42,1.07,3.42,2.35c0,1.5-1.5,2.35-3.42,2.35h-7.92v3.42l4.28,0.21v41.73
		c0,47.5-23.32,74.89-64.19,74.89c-46.65,0-62.05-29.96-62.05-55.64c0-23.75,12.2-49.43,41.08-49.43c12.84,0,20.11,4.07,22.04,5.35
		c-2.78,1.93-5.14,4.07-7.28,6.63c-4.92,6.21-7.7,14.76-7.7,23.54c0,17.55,13.27,27.39,13.91,27.82l2.57-3.64
		c0-0.21-11.98-8.99-11.98-24.18c0-11.34,6.21-30.81,29.74-30.81h21.83v-4.49h-21.83c-5.56,0-10.48,0.86-14.76,2.78V8.99
		c0-5.56,1.5-8.99,9.42-8.99h52.64c2.35,0,3.64,0.86,3.64,2.14c0,1.28-0.86,2.57-3.42,2.57H1110.55z"/>
	<path d="M1176.67,16.69c-2.35,0-3.85-0.86-3.85-2.14c0-1.71,1.71-2.35,3.85-2.35l19.69-0.21V8.56l-19.69-0.21
		c-1.93,0-3.85-0.43-3.85-2.14s2.14-2.14,3.85-2.14h53.92c4.49,0,9.63,3,9.63,9.63v76.6c0,36.16-24.61,59.7-58.84,59.7
		c-30.6,0-61.63-17.12-61.63-55.42V84.31c8.56-6.42,14.34-8.35,25.46-8.35c7.92,0,16.69,4.28,22.9,11.34
		c-3.21,2.35-6.42,5.14-9.42,8.56c-6.85,7.49-8.35,8.77-8.35,8.77l3.42,3c0,0,0.64-0.86,8.13-8.77
		c9.84-10.7,19.69-15.62,30.81-15.62c8.56,0,25.25,4.71,28.89,22.47l4.49-1.07c-3.21-15.62-15.19-22.47-25.04-24.82V25.04h-24.39
		c-2.14,0-3.21-1.07-3.21-2.14c0-1.5,1.5-2.35,3.21-2.35l19.69-0.21V16.9L1176.67,16.69z"/>
</g>
</svg>
