<?xml version="1.0" encoding="utf-8"?>
<!-- Generator: Adobe Illustrator 24.2.3, SVG Export Plug-In . SVG Version: 6.00 Build 0)  -->
<svg version="1.1" id="Layer_1" xmlns="http://www.w3.org/2000/svg" xmlns:xlink="http://www.w3.org/1999/xlink" x="0px" y="0px"
	 viewBox="0 0 1564.28 150" style="enable-background:new 0 0 1564.28 150;" xml:space="preserve">
<g>
	<path d="M21.43,0v21.43H0V0H21.43z M0,42.86h150V150H0V85.71h107.14v21.43H21.43v21.43h107.14V64.29H0V42.86z M42.86,0H150v21.43
		H42.86V0z"/>
	<path d="M321.43,0v150H300V21.43H171.43V0H321.43z M278.57,42.86v21.43h-85.71v64.29h85.71V150H171.43V42.86H278.57z
		 M214.29,107.14V85.71h64.29v21.43H214.29z"/>
	<path d="M471.43,0h21.43v150h-150V42.86H450v64.29h-64.29V85.71h42.86V64.29h-64.29v64.29h107.14V0z M450,0v21.43H342.86V0H450z"/>
	<path d="M557.14,21.43V0h64.29v21.43H557.14z M621.43,42.86V150h-64.29v-21.43H600V64.29h-21.43v42.86h-21.43V42.86H621.43z
		 M642.86,0h64.29v21.43h-64.29V0z M707.14,42.86v64.29h-21.43V64.29h-21.43v64.29h42.86V150h-64.29V42.86H707.14z"/>
	<path d="M792.86,0v21.43H750v107.14h42.86V150h-64.29V0H792.86z M771.43,107.14V42.86h21.43v64.29H771.43z M878.57,0v150h-64.29
		v-21.43h42.86V21.43h-42.86V0H878.57z M835.71,42.86v64.29h-21.43V42.86H835.71z"/>
	<path d="M1050,64.29H942.86V42.86h85.71V21.43H921.43v42.86H900V0h150V64.29z M900,85.71h150V150H900v-21.43h128.57v-21.43H900
		V85.71z"/>
	<path d="M1071.43,150V0h21.43v150H1071.43z M1114.28,0h107.14v21.43h-107.14V0z M1114.28,42.86h107.14V150H1200V64.29h-85.71V42.86
		z M1178.57,85.71V150h-21.43v-42.86h-21.43V150h-21.43V85.71H1178.57z"/>
	<path d="M1371.43,0h21.43v150h-150V0h21.43v128.57h107.14V0z M1285.71,107.14V0h21.43v85.71h21.43V0H1350v107.14H1285.71z"/>
	<path d="M1435.71,0v21.43h-21.43V0H1435.71z M1414.28,42.86h150V150h-150V85.71h107.14v21.43h-85.71v21.43h107.14V64.29h-128.57
		V42.86z M1457.14,0h107.14v21.43h-107.14V0z"/>
</g>
</svg>
