<?xml version="1.0" encoding="utf-8"?>
<!-- Generator: Adobe Illustrator 24.2.3, SVG Export Plug-In . SVG Version: 6.00 Build 0)  -->
<svg version="1.1" id="Layer_1" xmlns="http://www.w3.org/2000/svg" xmlns:xlink="http://www.w3.org/1999/xlink" x="0px" y="0px"
	 viewBox="0 0 409.41 150" style="enable-background:new 0 0 409.41 150;" xml:space="preserve">
<g>
	<path d="M48.41,23.86h11.93v86.93c0,25.06-20.79,39.21-46.36,39.21c-5.8,0-10.06-0.51-13.98-1.36v-13.47
		c5.45,2.39,13.47,3.24,27.61,3.24c16.53,0,20.8-2.39,20.8-9.2V23.86z M45.34,10.4h18.07V1.7H45.34V10.4z"/>
	<path d="M77.21,127.84c-6.48,0-9.89-3.92-9.89-12.1v-11.76c0-13.81,7.16-19.26,20.62-31.88V40.57c0-5.45-1.36-6.82-6.99-6.82
		c-8.86,0-11.08,3.75-11.08,9.72c0,7.16,2.9,13.47,16.88,27.61H70.4c-3.41-8.18-4.43-17.9-4.43-25.74
		c0-10.74,8.35-23.18,19.09-23.18c9.89,0,14.83,5.28,14.83,13.98v69.89c0,9.21,1.7,10.23,3.58,10.23c1.53,0,2.73-1.02,2.9-6.65
		l0.51-29.83h2.39l0.51,29.15c0.17,10.74-1.53,18.92-9.55,18.92c-6.99,0-10.06-4.94-8.01-29.15l-1.7-0.34
		C87.95,123.75,83.69,127.84,77.21,127.84z M82.16,115.4c3.75,0,5.8-10.4,5.8-26.08V75.68c-7.5,7.16-8.69,11.42-8.69,18.58v17.05
		C79.26,114.37,80.45,115.4,82.16,115.4z"/>
	<path d="M115.99,51.14c0-20.45,4.94-28.98,15.85-28.98c4.26,0,8.01,2.22,11.76,5.62l1.02-1.02l-4.26-4.43V1.7h11.93v124.43h-11.76
		v-1.87l3.92-25.91l-1.7-0.34c-3.58,25.57-9.38,29.83-15.85,29.83c-6.31,0-10.91-5.28-10.91-13.81V51.14z M128.26,107.39
		c0,6.14,1.53,8.86,4.43,8.86c3.75,0,7.67-11.59,7.67-27.27v-52.5c-2.22-2.22-4.6-3.41-7.33-3.41c-3.24,0-4.77,2.39-4.77,17.05
		V107.39z"/>
	<path d="M196.87,32.56v69.55c0,12.27,3.07,14.15,5.97,14.15c4.09,0,5.45-4.26,5.8-15.68l0.51-21.82h2.39l0.51,22.33
		c0.34,15.17-4.26,26.76-13.98,26.76c-8.69,0-13.12-5.28-13.12-19.94V32.56h-7.84v-8.69h7.84V6.99c3.92-0.85,9.03-2.9,11.76-6.99
		l1.87,0.51l-3.58,21.99l0.85,1.36h15.85v8.69H196.87z"/>
	<path d="M235.64,127.84c-10.74,0-16.53-5.28-16.53-19.94V45.17c0-16.71,8.52-23.01,18.58-23.01c10.91,0,16.53,5.28,16.53,19.94
		v62.73C254.22,121.53,245.7,127.84,235.64,127.84z M235.64,33.75c-3.75,0-4.6,3.75-4.6,9.72v58.64c0,12.27,3.07,14.15,6.65,14.15
		c3.75,0,4.6-3.75,4.6-9.72V47.9C242.29,35.62,239.05,33.75,235.64,33.75z"/>
	<path d="M303.48,43.47c-9.89-14.15-15.85-16.53-23.86-16.7v2.05c9.37,1.19,15.85,7.5,15.85,18.41v36.82
		c0,16.02-8.52,22.16-18.58,22.16c-2.9,0-5.45-0.34-7.5-1.36c-2.9,2.73-5.28,5.63-5.28,7.33c0,1.53,1.02,2.39,4.26,2.39h18.07
		c10.57,0,15.51,3.58,15.51,10.57c0,9.03-16.36,23.18-30.51,23.18c-10.23,0-14.32-5.28-14.32-10.4c0-6.14,3.75-10.06,8.35-12.1
		v-1.02c-3.92-1.02-6.65-3.24-6.65-7.67c0-5.8,4.94-10.06,7.84-13.64c-4.09-3.07-6.31-8.52-6.31-17.22V46.87
		c0-16.7,8.52-23.01,18.58-23.01h24.55V43.47z M286.44,126.14h-16.19c-2.73,1.36-3.58,3.07-3.58,4.94c0,3.41,2.56,6.31,15.85,6.31
		c7.84,0,11.08-1.36,11.08-4.77C293.59,128.52,292.23,126.14,286.44,126.14z M283.54,49.6c0-12.27-3.24-14.15-6.65-14.15
		c-3.75,0-4.6,3.75-4.6,9.72v36.65c0,12.27,3.07,14.15,6.65,14.15c3.75,0,4.6-3.75,4.6-9.72V49.6z"/>
	<path d="M319.07,1.7v24.03l-4.09,25.91l1.7,0.34c3.58-25.57,9.38-29.83,15.85-29.83c6.31,0,10.91,5.28,10.91,13.81v90.17h-11.93
		V42.61c0-6.14-0.85-8.86-4.09-8.86c-4.77,0-8.35,11.76-8.35,27.78v64.6h-11.93V1.7H319.07z"/>
	<path d="M375.15,126.14v-1.87l4.09-25.91l-1.7-0.34c-3.58,25.57-9.38,29.83-15.85,29.83c-6.31,0-10.91-5.28-10.91-13.81V23.86
		h11.93v83.52c0,6.14,0.85,8.86,4.09,8.86c4.77,0,8.35-11.76,8.35-27.61V23.86h11.93v102.27H375.15z"/>
	<path d="M394.41,23.86h11.93v86.93c0,25.06-20.79,39.21-46.36,39.21c-5.8,0-10.06-0.51-13.98-1.36v-13.47
		c5.45,2.39,13.47,3.24,27.61,3.24c16.53,0,20.8-2.39,20.8-9.2V23.86z M391.34,10.4h18.07V1.7h-18.07V10.4z"/>
</g>
</svg>
