<?xml version="1.0" encoding="utf-8"?>
<!-- Generator: Adobe Illustrator 24.2.3, SVG Export Plug-In . SVG Version: 6.00 Build 0)  -->
<svg version="1.1" id="Layer_1" xmlns="http://www.w3.org/2000/svg" xmlns:xlink="http://www.w3.org/1999/xlink" x="0px" y="0px"
	 viewBox="0 0 825.96 150" style="enable-background:new 0 0 825.96 150;" xml:space="preserve">
<g>
	<path d="M19.28,104.69l39.91-87.34h41.65L53.98,119.73c-7.9,17.16-18.32,30.08-49.74,30.08H0l3.47-37.21
		C12.15,112.6,16.39,111.05,19.28,104.69z M35.48,137.85c3.09-2.31,5.78-5.01,8.29-8.48c2.12-3.09,4.24-6.75,6.36-11.38l43.96-96.21
		h-32.2l-38.75,84.83c-3.28,7.33-8.68,9.64-15.81,10.22l-2.7,28.73C18.12,145.57,28.15,143.06,35.48,137.85z M10.41,126.67
		c1.35,1.93,1.74,6.94,1.74,7.71c0.19,2.7,0.39,4.05,3.08,4.05c11.57,0,22.37-7.71,22.94-7.71c-7.33,7.71-16.77,10.41-29.31,11.18
		L10.41,126.67z M33.16,142.48l0.19-1.54c-5.4,3.08-12.53,5.21-21.98,5.78l-0.39,1.35C20.44,147.49,27.57,145.37,33.16,142.48z
		 M26.41,109.9c3.28-7.13,8.29-17.93,12.92-29.11c0.39,0-0.19,8.29,5.78,8.29c11.18,0,18.12-10.22,18.89-10.03L55.72,96.4
		c-0.58,0,0.58-3.66-5.4-3.66c-8.68,0-16,5.59-20.44,15.42c-3.86,8.48-7.71,10.8-12.72,10.8C23.14,115.68,24.68,112.98,26.41,109.9z
		 M23.52,101.99l3.28-7.13h-1.35l-3.28,7.13H23.52z M39.33,67.67l10.03-21.79h-1.35L37.98,67.67H39.33z M57.26,41.65
		c10.03-2.7,20.05-5.59,27.38-8.68l-6.56,13.11c-0.39,0-0.39-1.54-4.24-1.54C59,44.54,49.74,58.8,48.78,58.8L57.26,41.65z
		 M53.41,37.02l4.63-10.22h-1.35l-4.63,10.22H53.41z M64.01,25.26h23.52l-0.39,0.77c-7.52,1.16-21.98,5.4-27.19,8.29L64.01,25.26z
		 M64.4,6.17h41.65l-2.51,5.59H61.89L64.4,6.17z M98.71,9.64l0.77-1.74H76.74l-0.77,1.74H98.71z"/>
	<path d="M80.01,71.72c20.44-44.92,33.55-56.3,51.09-56.3c8.48,0,14.27,3.09,21.4,10.99l4.05-9.06h41.65l-53.6,117.61h-35.67
		l7.13-28.15c-12.72,19.09-21.79,30.08-35.48,30.08C63.05,136.89,59.38,117.03,80.01,71.72z M72.3,128.79
		c1.54,2.51,4.43,3.86,8.29,3.86c5.4,0,10.22-2.12,15.23-6.75c3.47-3.28,7.13-7.52,10.99-13.3l3.66-5.59
		c-2.31-0.96-3.66-3.09-3.66-6.36c0-5.59,4.82-16.97,8.68-25.45c5.21-11.76,9.25-19.47,12.34-23.91c3.09-3.86,5.78-5.59,9.06-5.59
		s4.82,1.74,5.4,2.7c2.7,4.24,0.19,10.03-9.83,31.43c-3.86,8.1-6.56,13.88-8.68,17.74c-0.39,0.77-1.74,3.47-2.51,6.56
		c-0.96,3.28-1.74,6.55-1.74,6.55l-5.01,20.05h27.38l49.74-109.13h-32.39l-5.59,12.53c-8.87-10.22-14.07-14.46-22.56-14.46
		c-8.29,0-14.65,3.09-21.4,10.03c-7.71,8.1-15.81,21.98-25.84,43.77c-4.24,9.45-7.71,18.12-9.83,25.64
		c-1.35,4.24-2.31,8.1-2.89,11.57C69.21,121.27,70.76,126.48,72.3,128.79z M73.46,95.24c1.74-4.63,3.66-9.64,5.98-15.42h-1.35
		c-2.31,5.78-4.24,10.8-5.78,15.42H73.46z M74.61,111.44c1.35-7.71,5.59-21.4,10.03-30.66c0.39,0-1.16,8.1,4.82,8.1
		c12.72,0,19.86-10.41,20.44-9.83c-3.08,6.36-5.4,11.38-6.56,16.97c-0.77,0-2.12-3.28-6.36-3.28c-10.41,0-20.82,11.38-20.82,26.22
		c0,5.59,2.12,7.52,5.4,7.52c6.17,0,10.8-2.7,11.57-2.7c-4.82,3.86-8.29,5.21-11.76,5.21c-3.86,0-7.52-2.12-7.52-9.64
		C73.84,117.22,74.04,114.72,74.61,111.44z M80.59,135.35c2.7,0,5.01-0.39,7.33-1.35v-1.35c-2.31,0.77-4.63,1.35-7.33,1.35
		c-1.54,0-3.09-0.19-4.43-0.58v1.35C77.51,135.15,79.05,135.35,80.59,135.35z M84.06,69.6c1.35-2.89,2.51-5.4,3.86-8.1h-1.54
		c-1.16,2.7-2.51,5.21-3.86,8.1H84.06z M103.34,45.69c14.27-3.47,31.04-9.06,42.99-13.69l4.24,4.63l-3.28,7.33
		c-0.58,0-1.54-3.28-10.22-3.28c-8.87,0-28.34,7.71-42.8,20.82C97.36,55.14,101.8,47.82,103.34,45.69z M98.33,42.42
		c4.63-7.33,8.68-12.53,12.73-16.19h-1.74c-4.05,3.86-8.1,9.06-12.53,16.19H98.33z M131.49,23.33c4.05,0,8.68,2.31,9.64,3.47
		c-7.9,1.54-23.14,6.36-32.78,10.41C114.14,29.88,120.89,23.33,131.49,23.33z M111.82,91c0.77-1.74,1.35-3.28,2.12-4.82h-1.35
		c-0.77,1.54-1.35,3.08-2.12,4.82H111.82z M128.6,78.09c10.22-21.79,12.92-28.15,8.29-28.15c-2.7,0-6.36,1.54-17.54,26.99
		c-8.29,18.51-10.6,25.45-5.98,25.45C117.03,102.38,119.34,97.56,128.6,78.09z M114.52,124.36l2.51-10.41h-1.35l-2.51,10.41H114.52z
		 M140.55,133.42l0.58-1.35h-22.94l-0.39,1.35H140.55z M123.58,108.35c0.58-2.31,1.35-4.05,2.7-6.94l10.22-20.63
		c0.39,0-0.77,8.29,6.36,8.29c10.99,0,19.28-13.3,20.44-13.11l-9.64,20.44c-0.58,0,0.58-3.66-4.63-3.66
		c-7.13-0.19-17.54,6.36-22.75,13.69c-0.96,3.66-2.51,10.41-2.51,14.07c0,4.24,4.43,4.63,8.68,4.82c3.86,0.19,7.71-0.58,7.71,1.74
		h-21.21L123.58,108.35z M130.53,80.4l0.58-1.16c0.96-1.93,1.74-3.66,2.51-5.4h-1.35l-2.31,4.82c-0.19,0.58-0.58,1.16-0.77,1.74
		H130.53z M137.47,65.55c2.31-5.59,3.66-9.06,4.24-11.57h-1.54c-0.39,2.31-1.74,5.78-4.24,11.57H137.47z M155.2,41.65
		c10.03-2.7,20.05-5.59,27.38-8.68l-6.17,13.11c-0.39,0-0.96-1.54-4.82-1.54c-14.85,0-22.94,14.27-23.91,14.27L155.2,41.65z
		 M161.76,25.26h23.52l-0.39,0.77c-7.33,0.96-21.79,5.21-27.19,8.29L161.76,25.26z"/>
	<path d="M177.18,71.72c20.44-44.92,33.55-56.3,51.09-56.3c8.48,0,15.81,3.47,21.4,10.99L261.63,0h41.65l-61.5,134.96H206.1
		l7.13-28.15c-12.72,19.09-21.79,30.08-35.48,30.08C160.22,136.89,156.55,117.03,177.18,71.72z M167.54,105.46
		c0.39-1.74,0.96-3.47,1.54-5.4h-1.16c-0.58,1.93-1.16,3.66-1.54,5.4H167.54z M177.76,132.65c5.4,0,10.22-2.12,15.23-6.75
		c3.47-3.28,6.94-7.71,10.99-13.3c3.08-4.43,3.66-5.4,3.66-5.59c0-0.19,0-0.19-0.19-0.39c-3.08-3.09-3.47-3.86-3.47-7.13
		c0-4.63,4.82-15.81,8.68-24.29c5.21-11.76,9.25-19.47,12.34-23.91c3.09-3.86,5.78-5.59,9.06-5.59c3.86,0,6.36,2.51,6.36,6.36
		c0,4.43-3.28,11.76-10.8,27.76c-4.63,9.64-7.91,16-9.83,19.86c-0.77,1.35-1.16,3.86-2.31,8.29c-1.35,4.24-5.78,22.75-5.78,22.75
		h27.38L296.72,4.24h-32.39l-13.5,29.88c0,0-8.29-14.46-22.56-14.46c-8.29,0-14.65,3.09-21.4,10.03
		c-7.71,8.1-15.81,22.17-25.84,43.77c-6.75,14.85-10.99,27.38-12.72,37.21C166.19,122.82,166.96,132.65,177.76,132.65z
		 M171.78,111.44c1.35-7.71,5.59-21.4,10.03-30.66c0.39,0-0.39,8.29,6.56,8.29c10.6,0,17.93-10.03,18.7-10.03
		c-3.08,6.36-5.4,11.38-6.56,16.97c-0.77,0-2.12-3.28-6.36-3.28c-10.41,0-20.82,11.38-20.82,26.22c0,5.59,2.12,7.52,5.4,7.52
		c6.17,0,10.8-2.7,11.57-2.7c-4.82,3.86-8.29,5.21-11.76,5.21c-3.86,0-7.52-2.12-7.52-9.64
		C171.01,117.22,171.21,114.72,171.78,111.44z M177.76,135.35c3.08,0,5.98-0.58,8.68-1.73l0.19-1.54c-2.7,1.16-5.78,1.93-8.87,1.93
		c-1.93,0-3.66-0.39-5.21-0.77l-0.58,1.16C173.71,134.96,175.64,135.35,177.76,135.35z M178.73,74.81c0.39-0.58,0.58-1.35,0.96-1.93
		c0.58-0.96,0.96-2.12,1.54-3.08h-1.54l-1.16,2.51c-0.39,0.77-0.77,1.74-1.16,2.51H178.73z M187.02,57.45
		c3.28-6.17,6.17-11.57,9.06-16.19h-1.35c-2.89,4.63-5.78,10.03-9.06,16.19H187.02z M192.22,130.14v-1.54
		c-0.96,0.77-1.93,1.35-2.89,1.93v1.54L192.22,130.14z M200.13,45.69c14.27-3.47,31.43-9.06,43.38-13.69l4.24,4.63l-3.28,7.33
		c-0.58,0-1.54-3.28-10.22-3.28c-8.87,0-28.73,7.71-43.19,20.82C194.15,55.14,198.58,47.82,200.13,45.69z M199.74,35.86
		c2.89-3.66,5.4-6.75,8.1-9.26h-1.93c-2.51,2.51-5.01,5.59-7.71,9.26H199.74z M228.66,23.33c4.05,0,8.68,2.31,9.64,3.47
		c-7.9,1.54-23.14,6.36-32.78,10.41C211.31,29.88,218.06,23.33,228.66,23.33z M208.8,91c0.77-1.74,1.35-3.28,2.12-4.82h-1.35
		c-0.77,1.54-1.35,3.08-2.12,4.82H208.8z M225.77,78.09c10.22-21.79,12.92-28.15,8.29-28.15c-2.7,0-6.36,1.54-17.54,26.99
		c-8.29,18.51-10.6,25.45-5.98,25.45C214.2,102.38,216.51,97.56,225.77,78.09z M212.27,122.04l3.09-12.15h-1.35l-3.08,12.15H212.27z
		 M237.72,133.42l0.77-1.35h-22.37l-0.77,1.35H237.72z M223.07,102.57l10.41-21.79c0.96,0-1.93,8.1,6.36,8.1
		c11.76,0,19.28-12.92,20.44-12.92l-9.45,20.44c-0.58,0,0.58-3.66-4.63-3.66c-7.13,0-16.2,4.24-21.4,11.38
		c-0.96,3.66-3.28,12.72-3.28,16.39c0,4.24,4.43,4.63,8.1,4.82c2.89,0.19,6.75-0.58,6.75,1.74h-19.67L223.07,102.57z M225.19,85.6
		l3.08-6.36c0.39-0.58,0.58-1.16,0.77-1.73h-1.35l-0.58,1.16c-1.16,2.51-2.31,4.82-3.28,6.94H225.19z M231.36,72.69
		c2.51-5.59,4.43-10.03,5.78-13.5h-1.35c-1.35,3.28-3.28,7.9-5.98,13.5H231.36z M253.53,37.6c8.29-2.12,18.89-5.59,28.15-9.45
		l-5.98,13.11c-0.39,0-0.39-1.54-4.24-1.54c-14.65,0-26.99,18.89-27.96,19.09L253.53,37.6z M256.42,18.51l5.21-11.38h-1.54
		l-5.21,11.38H256.42z M267.22,7.91h15.23c0,0.19-16.39,5.4-16.39,10.8c0,0.77,0.77,1.35,2.12,1.35c6.56,0,16.97-5.98,21.98-10.41
		l-5.01,10.22c-6.56,1.35-20.24,6.17-27.76,9.83L267.22,7.91z"/>
	<path d="M291.32,112.98c0-8.87,5.98-21.79,9.83-30.27l12.53-27.57h-6.17l17.16-37.79h6.17L338.75,0h41.65l-7.9,17.35h10.8
		l-17.16,37.79h-10.8l-14.65,32.01c-1.54,3.47-1.93,5.21-1.93,6.75c0,2.31,1.35,3.28,3.86,3.28c1.35,0,2.51,0,4.24-0.39
		l-17.35,38.18c-1.35,0.58-5.21,0.58-8.87,0.58C300.58,135.54,291.32,127.83,291.32,112.98z M295.18,105.85
		c1.16-4.63,3.28-9.83,5.21-14.46h-1.35c-2.12,4.82-4.05,9.83-5.21,14.46H295.18z M301.15,126.48c4.05,3.08,10.6,4.82,19.47,4.82
		c1.74,0,4.24,0,5.98-0.19l13.5-29.88c-1.16-0.39-2.12-0.77-3.08-1.54c-1.16-0.96-2.51-2.7-2.51-5.78c0-2.31,0.58-4.82,2.31-8.48
		l15.81-34.51h10.8l13.3-29.31h-10.8l7.9-17.35h-32.39l-7.9,17.35h-6.17l-13.3,29.31h6.17l-15.42,34.12
		c-3.66,8.1-9.25,20.24-9.25,27.96C295.56,119.15,297.49,123.59,301.15,126.48z M310.02,82.13c0.39,0-0.19,6.75,7.13,6.75
		c10.41,0,18.32-10.41,18.89-10.41c-2.89,5.21-5.59,11.57-5.59,15.42v2.51c-0.58,0-1.93-3.66-8.29-3.66
		c-9.06,0-20.05,6.36-20.05,18.12c0,18.7,21.21,13.69,21.02,16.77c-13.69,0-23.33-2.89-23.33-16.97
		C299.8,103.34,304.43,94.86,310.02,82.13z M320.63,134h4.43l0.58-1.35h-5.01c-6.36,0-11.38-0.77-15.23-2.12l-0.58,1.16
		C308.87,133.23,314.07,134,320.63,134z M313.3,62.66l2.7-5.98h-1.35l-2.7,5.98H313.3z M315.04,45.5l9.45-20.63h-1.54l-9.45,20.63
		H315.04z M324.29,51.48c1.93-4.24,1.35-4.43-1.54-4.43h-1.93l0.96-2.12c15.62-4.05,31.62-8.68,46.08-14.65l-7.13,15.42
		c-0.39,0.19-0.39-3.47-6.94-3.47c-18.7,0-32.2,16.77-32.97,16.77L324.29,51.48z M330.07,25.84h2.51c3.66,0,4.24-0.96,5.78-4.24
		l5.4-12.34c1.74,0-1.74,10.41-1.74,12.34c0,1.35,0.77,1.93,2.51,1.93c8.48,0,20.24-9.45,20.63-9.45l-5.01,10.6
		c-6.36,1.54-28.73,8.68-35.09,11.76L330.07,25.84z M334.7,16.2l3.86-8.48h-1.74l-3.86,8.48H334.7z M340.1,85.03l1.74-3.86h-1.35
		l-1.74,3.86H340.1z M362.08,53.6l0.58-1.35h-5.78l-0.58,1.35H362.08z M373.07,12.34l2.12-4.63h-1.54l-2.12,4.63H373.07z"/>
	<path d="M353.6,102.96c0.39-10.02,3.86-24.1,13.69-42.42c15.23-29.5,32.58-45.12,58.03-45.12c20.44,0,34.7,13.5,34.13,33.93
		c-0.39,10.03-3.86,23.91-13.69,42.42c-15.42,29.5-32.2,45.12-57.46,45.12C366.13,136.89,352.83,126.09,353.6,102.96z
		 M356.68,105.85v-2.89c0-2.12,0.39-4.43,0.77-6.94h-1.35c-0.58,2.51-0.77,4.82-0.77,6.94v2.89H356.68z M388.11,132.65
		c23.52,0,38.56-14.07,53.79-43c9.83-17.93,12.92-30.85,13.3-40.49c0.58-18.51-11.18-29.5-29.88-29.5
		c-23.91,0-38.95,14.07-54.18,42.8c-9.06,17.93-12.72,31.23-13.11,40.68C357.26,124.16,368.06,132.65,388.11,132.65z M362.27,78.66
		c1.93-5.21,4.43-10.6,7.52-16.77c2.31-4.63,4.82-8.68,7.13-12.53h-1.54c-2.31,3.66-4.63,7.71-6.75,11.95
		c-3.28,6.36-5.98,11.95-7.91,17.35H362.27z M366.9,82.13c0.39,0,0.39,6.75,7.52,6.75c10.41,0,15.62-10.41,16.77-10.41
		c-2.31,5.21-6.36,14.27-7.52,19.09c-0.58,0-0.58-4.82-6.75-4.82c-6.56,0-10.99,7.71-10.99,14.07c0,12.92,7.52,20.05,22.36,20.05
		c16,0,27.76-10.41,30.85-10.6c-8.68,9.25-21.79,13.11-30.46,13.11c-17.16,0-25.84-6.56-26.41-24.49
		C362.08,97.94,364.39,87.34,366.9,82.13z M385.41,47.24c6.56-1.35,16.77-4.24,28.73-8.29v0.39c-5.78,4.24-9.83,10.41-11.57,14.07
		c-0.58,0-1.54-1.93-6.75-1.93c-10.41,0-20.24,11.95-21.21,11.95C376.93,59.19,383.1,49.55,385.41,47.24z M385.22,135.15l0.39-1.16
		c-1.54,0-3.47-0.19-4.82-0.39l-0.58,1.16C381.75,134.96,383.67,135.15,385.22,135.15z M385.22,38.37
		c4.05-5.01,8.48-8.87,13.11-11.95h-2.31c-4.63,3.09-8.68,7.13-12.53,11.95H385.22z M397.94,72.69
		c5.59-11.38,10.03-19.47,13.5-24.29c2.51-3.09,5.21-6.17,9.25-6.17c3.66,0,6.17,2.7,5.98,6.56c-0.19,4.43-2.12,13.5-11.18,31.23
		c-5.98,11.95-10.6,20.05-14.07,24.87c-2.51,3.28-5.21,6.36-9.06,6.36c-4.05,0-6.17-3.28-5.98-6.56
		C386.57,98.71,390.23,88.3,397.94,72.69z M408.16,131.11v-1.35c-6.17,2.7-10.99,4.05-18.7,4.24l-0.39,1.35
		C396.98,135.35,401.99,134,408.16,131.11z M392.54,107.01c2.12,0,5.78-2.51,19.09-28.73c8.87-17.54,10.8-26.03,10.8-29.5
		c0.19-1.54-0.58-2.31-1.74-2.31c-2.31,0-6.56,2.31-18.89,27.96c-8.87,18.51-10.99,26.61-11.18,30.27
		C390.61,106.43,391.58,107.01,392.54,107.01z M426.09,23.33c4.82,0,9.06,1.16,10.6,1.93c-11.38,1.54-26.99,6.17-44.73,13.11
		C398.33,32.01,410.28,23.33,426.09,23.33z M394.08,87.92c0.58-1.73,1.35-3.47,2.31-5.21h-1.54c-0.96,1.74-1.54,3.47-2.51,5.21
		H394.08z M418.96,80.78c0.39,0-1.35,8.1,5.78,8.1c8.1,0,19.09-13.11,19.86-12.92c-4.24,8.87-5.98,11.95-10.8,20.44
		c-0.58,0,0.77-3.66-4.43-3.66c-11.38,0-22.36,11.57-23.33,11.38C411.44,96.79,413.56,92.74,418.96,80.78z M416.06,75.58l2.12-4.44
		h-1.35c-0.77,1.54-1.54,2.89-2.12,4.44H416.06z M420.31,66.71c1.74-4.44,3.08-7.91,3.86-10.8h-1.35c-0.77,2.7-2.12,6.36-4.05,10.8
		H420.31z M443.83,29.88c3.47,1.93,6.94,7.91,7.52,11.95c-0.39,0-2.31-3.66-6.94-3.66c-9.25,0-12.53,10.41-13.11,10.41
		c0.58-5.98-2.31-10.99-9.06-11.38l-0.19-0.19C433.22,34.32,439.59,31.43,443.83,29.88z M453.28,33.74h1.54
		c-1.16-2.31-2.7-4.24-4.05-5.98h-1.54C450.58,29.5,452.12,31.43,453.28,33.74z"/>
	<path d="M428.79,140.36l14.46-31.81c8.87,5.01,19.09,7.9,30.46,7.9c9.06,0,14.85-4.24,17.74-10.6l7.33-16
		c-10.22,14.07-17.54,19.86-27.96,19.86c-20.82,0-22.56-23.14-8.1-52.83c13.3-30.08,23.14-41.45,42.22-41.45
		c8.68,0,15.62,2.31,22.75,11.18l4.05-9.25h41.65l-39.91,87.73C519.21,136.31,503.79,150,474.87,150
		C453.66,150,440.36,146.53,428.79,140.36z M474.87,145.76c13.5,0,23.71-3.09,32.2-9.83c8.1-6.56,15.42-16.97,22.56-32.58
		l37.21-81.75h-32.2l-5.78,13.11l-4.44-5.4c-6.56-8.1-12.15-9.64-19.47-9.64c-8.48,0-14.65,2.51-20.24,8.29
		c-5.78,5.78-11.18,14.85-18.12,30.66c-4.63,9.45-7.52,18.32-8.48,25.83c-1.16,6.94-0.39,12.34,1.74,16
		c2.12,3.28,5.78,5.01,10.99,5.01c10.41,0,18.32-8.87,24.29-16.77c-2.7-0.77-4.05-3.28-4.05-5.98c0-4.24,2.51-13.5,9.45-27.19
		c2.51-4.43,5.4-9.45,10.99-9.45c4.24,0,6.94,2.7,6.94,6.75c0,2.51,0,4.05-9.64,24.87c-2.31,5.4-13.5,29.88-13.5,29.88
		c-3.86,8.48-11.57,13.11-21.59,13.11c-10.03,0-19.67-2.12-28.34-6.36l-10.99,24.1C445.56,143.44,457.9,145.76,474.87,145.76z
		 M445.37,123.01l1.74-3.86c2.51,1.16,5.78,2.51,13.69,3.66c0,0.96-16,0.77-16,8.48c0,6.75,16.97,8.29,30.66,8.29
		c30.66,0,40.87-23.33,44.15-23.33c-7.71,13.88-21.79,25.83-44.73,25.83c-14.65,0-25.84-1.73-35.67-5.59L445.37,123.01z
		 M474.87,148.46c2.7,0,5.4-0.19,7.9-0.39l0.19-1.35c-2.51,0.19-5.21,0.39-8.1,0.39c-8.87,0-16-0.58-22.37-1.74l-0.77,1.35
		C458.29,147.69,465.81,148.46,474.87,148.46z M455.4,96.79h1.16c-0.77-2.89-0.96-6.36-0.58-10.22h-1.16
		C454.43,90.42,454.62,93.9,455.4,96.79z M470.82,108.16c3.66,0,6.94-0.77,10.03-2.51l0.77-1.74c-3.47,1.93-6.75,2.89-10.8,2.89
		s-7.13-0.96-9.45-2.7l-0.58,1.35C463.3,107.2,466.58,108.16,470.82,108.16z M462.34,64.4c0.77-1.93,1.74-3.86,2.7-5.98h-1.35
		c-0.96,2.12-1.93,4.05-2.7,5.98H462.34z M462.34,80.78c0.39,0-0.39,8.29,7.13,8.29c11.57,0,18.12-10.03,18.51-10.03
		c-1.54,3.66-0.96,8.1,1.54,10.03c-1.16,2.31-2.7,3.86-4.63,5.4c-0.58-0.96-3.28-1.74-7.33-1.74c-6.75,0-11.18,2.12-15.23,5.01
		c-0.96-1.74-1.35-4.43-1.35-7.13C460.99,85.99,461.57,82.52,462.34,80.78z M478.15,45.69c14.27-3.47,31.04-9.06,43-13.69l4.24,4.63
		l-3.28,7.33c-0.58,0-1.54-3.28-10.22-3.28c-8.87,0-28.34,7.71-42.8,20.82C472.17,55.14,476.6,47.82,478.15,45.69z M473.9,40.49
		c3.28-5.98,6.36-10.41,9.83-13.88H482c-3.28,3.47-6.36,8.1-9.64,13.88H473.9z M506.29,23.33c4.05,0,8.68,2.31,9.64,3.47
		c-7.9,1.54-23.14,6.36-32.78,10.41C488.94,29.88,495.69,23.33,506.29,23.33z M489.14,113.75c1.54-1.35,2.7-2.89,3.66-4.63h-1.35
		c-1.16,1.74-2.51,3.28-4.24,4.63H489.14z M498.2,144.41l0.58-1.74c-2.7,1.16-5.59,2.12-8.68,2.89l-0.77,1.54
		C492.41,146.53,495.31,145.57,498.2,144.41z M494.15,79.24c0.19-1.35,0.77-3.08,1.35-5.01h-1.35c-0.58,1.93-1.16,3.66-1.35,5.01
		H494.15z M497.81,85.03c2.7,0,5.01-4.24,7.13-9.06c9.25-20.05,9.25-21.4,9.25-23.14c0-1.74-0.96-2.51-2.7-2.51
		c-2.7,0-4.43,2.31-7.33,7.33c-6.36,12.53-8.87,21.4-8.87,24.48C495.31,83.68,495.88,85.03,497.81,85.03z M511.89,80.78
		c0.77,0-1.54,8.1,5.59,8.1c11.18,0,19.47-13.11,20.44-13.11l-9.64,20.63c-0.58,0,0.58-3.66-5.01-3.66
		c-10.8,0-21.02,11.38-21.79,11.38C505.14,96.79,507.07,92.74,511.89,80.78z M509.96,71.91c2.7-5.98,4.24-10.03,5.4-12.53h-1.35
		l-5.59,12.53H509.96z M530.01,41.65c10.03-2.7,20.05-5.59,27.38-8.68l-6.56,13.11c-0.39,0-0.39-1.54-4.24-1.54
		c-15.04,0-24.68,14.65-25.06,14.27L530.01,41.65z M530.59,27.38l2.31-5.4h-1.54l-2.31,5.4H530.59z M536.57,25.26h23.52l-0.39,0.77
		c-7.52,1.16-21.98,5.4-27.18,8.29L536.57,25.26z"/>
	<path d="M587.08,0h41.65l-19.86,43.77c12.15-18.12,21.21-28.15,36.05-28.15c15.81,0,19.86,16,12.34,32.58l-39.52,86.76h-41.65
		l29.88-65.55c5.59-12.34,6.75-15.23,6.75-16.97c0-1.93-0.96-2.7-2.7-2.7c-2.7,0-5.01,2.51-6.94,6.75l-35.86,78.47h-41.65L587.08,0z
		 M564.52,130.53l34.7-75.96c2.7-5.78,5.78-12.72,5.78-12.72l17.16-37.79h-32.2l-57.65,126.48H564.52z M558.93,80.78
		c0.39,0-1.35,8.29,5.78,8.29c8.29,0,18.12-10.03,18.9-10.03l-8.29,17.35c-0.58,0,0.58-3.66-4.63-3.66
		c-11.95,0-26.22,18.32-26.22,27.19c0,7.71,16.39,3.09,16.39,7.13h-23.14L558.93,80.78z M542.16,105.46l7.33-16.2h-1.54l-7.33,16.2
		H542.16z M562.79,133.42l0.77-1.35h-20.24l-0.96,1.35H562.79z M558.93,68.44l3.08-6.56h-1.54l-3.09,6.56H558.93z M568.19,48.39
		l9.45-20.63h-1.54l-9.45,20.63H568.19z M578.79,37.6c8.29-2.12,18.89-5.59,28.15-9.45l-5.98,13.11c-0.39,0-0.39-1.54-4.24-1.54
		c-14.65,0-26.99,18.89-27.96,19.09L578.79,37.6z M571.27,122.24l3.28-7.13h-1.35l-3.28,7.13H571.27z M583.22,15.42l3.86-8.29h-1.54
		l-3.86,8.29H583.22z M592.48,7.91h15.23c0,0.19-16.39,5.4-16.39,10.8c0,0.77,0.77,1.35,2.12,1.35c6.56,0,16.97-5.98,21.98-10.41
		l-5.01,10.22c-6.56,1.35-20.24,6.17-27.76,9.83L592.48,7.91z M615.04,130.53l38.37-84.25c4.05-8.68,4.43-16.97,1.16-21.98
		c-1.93-3.09-5.01-4.63-9.64-4.63c-5.98,0-10.99,1.93-16.2,6.36c-4.63,3.86-12.15,13.5-16.77,20.05c3.08-0.39,5.59,1.74,5.59,5.01
		c0,3.86-2.31,8.29-7.33,19.47l-27.38,59.96H615.04z M609.64,80.78c0.39,0-1.35,8.29,5.78,8.29c8.1,0,18.89-13.3,20.05-13.11
		l-9.45,20.44c-0.58,0,0.58-3.66-4.63-3.66c-11.95,0-26.22,18.32-26.22,27.19c0,7.71,16.39,3.09,16.39,7.13h-23.14L609.64,80.78z
		 M589.97,111.05l4.43-9.45h-1.35l-4.44,9.45H589.97z M602.31,84.06l10.22-22.36h-1.35l-10.22,22.36H602.31z M613.49,133.42
		l0.58-1.35h-7.71l-0.96,1.35H613.49z M614.65,40.3c1.16-1.74,2.31-3.28,3.47-4.82h-1.54c-0.96,1.54-2.12,3.08-3.28,4.82H614.65z
		 M616.58,23.52l2.89-6.36h-1.54l-2.89,6.36H616.58z M620.43,32.58c2.89-3.47,5.59-6.36,8.29-8.48h-1.93
		c-2.7,2.31-5.21,5.01-7.91,8.48H620.43z M652.83,34.7c-0.39,3.66-1.93,9.06-4.82,14.46c-0.58,0,0.39-4.43-6.75-4.43
		c-9.83,0-19.86,9.83-20.44,9.83c1.35-3.66,0.77-8.1-1.16-9.25C626.8,43.57,646.27,37.6,652.83,34.7z M645.11,23.91
		c3.86,0,6.17,1.74,6.56,4.24c-8.29,1.73-17.16,4.82-27.57,8.87C630.46,29.31,638.94,23.91,645.11,23.91z M658.22,35.28h1.16
		c0.39-2.51,0.19-5.01-0.19-7.13h-1.16C658.61,30.27,658.61,32.78,658.22,35.28z"/>
	<g>
		<path d="M739.2,104.69l39.91-87.34h41.65L773.9,119.73c-7.9,17.16-18.32,30.08-49.74,30.08h-4.24l3.47-37.21
			C732.07,112.6,736.31,111.05,739.2,104.69z M755.4,137.85c3.09-2.31,5.78-5.01,8.29-8.48c2.12-3.09,4.24-6.75,6.36-11.38
			l43.96-96.21h-32.2l-38.75,84.83c-3.28,7.33-8.68,9.64-15.81,10.22l-2.7,28.73C738.04,145.57,748.07,143.06,755.4,137.85z
			 M730.33,126.67c1.35,1.93,1.74,6.94,1.74,7.71c0.19,2.7,0.39,4.05,3.08,4.05c11.57,0,22.37-7.71,22.94-7.71
			c-7.33,7.71-16.77,10.41-29.31,11.18L730.33,126.67z M753.08,142.48l0.19-1.54c-5.4,3.08-12.53,5.21-21.98,5.78l-0.39,1.35
			C740.36,147.49,747.49,145.37,753.08,142.48z M746.34,109.9c3.28-7.13,8.29-17.93,12.92-29.11c0.39,0-0.19,8.29,5.78,8.29
			c11.18,0,18.12-10.22,18.89-10.03l-8.29,17.35c-0.58,0,0.58-3.66-5.4-3.66c-8.68,0-16,5.59-20.44,15.42
			c-3.86,8.48-7.71,10.8-12.73,10.8C743.06,115.68,744.6,112.98,746.34,109.9z M743.44,101.99l3.28-7.13h-1.35l-3.28,7.13H743.44z
			 M759.25,67.67l10.03-21.79h-1.35L757.9,67.67H759.25z M777.18,41.65c10.03-2.7,20.05-5.59,27.38-8.68l-6.56,13.11
			c-0.39,0-0.39-1.54-4.24-1.54c-14.85,0-24.1,14.27-25.06,14.27L777.18,41.65z M773.33,37.02l4.63-10.22h-1.35l-4.63,10.22H773.33z
			 M783.93,25.26h23.52l-0.39,0.77c-7.52,1.16-21.98,5.4-27.19,8.29L783.93,25.26z M784.32,6.17h41.65l-2.51,5.59h-41.65
			L784.32,6.17z M818.64,9.64l0.77-1.74h-22.75l-0.77,1.74H818.64z"/>
	</g>
	<g>
		<path d="M757.13,25.26h-23.52l-4.05,9.06c5.4-3.08,19.86-7.33,27.18-8.29L757.13,25.26z"/>
		<path d="M717.8,58.8c0.96,0,9.64-14.27,24.49-14.27c3.86,0,4.44,1.54,4.82,1.54l6.56-13.11c-7.52,3.08-17.54,5.98-27.76,8.68
			L717.8,58.8z"/>
		<path d="M720.88,92.74c5.21,0,4.05,3.66,4.63,3.66l9.64-20.44c-1.16-0.19-9.45,13.11-20.44,13.11c-7.13,0-5.98-8.29-6.36-8.29
			l-9.83,21.79c-1.35,2.89-2.12,4.63-2.7,6.94l-4.24,17.54h19.47c0-1.35-3.86-1.54-6.75-1.74c-4.24-0.19-7.9-0.58-7.9-4.82
			c0-3.66,1.16-9.25,2.12-12.92C703.72,100.26,713.75,92.55,720.88,92.74z"/>
		<path d="M716.28,134.96l1.15-12.32l-3.68,8.08h-27.38c0,0,5.4-21.02,5.78-22.94c1.54-4.43,19.86-43.96,38.95-86.18h32.39
			l-39.2,85.99c2-0.03,3.57-0.16,4.81-0.4l40.94-89.84H728.4l-35.67,78.28c-1.93,4.44-3.66,6.94-6.75,6.94
			c-2.12,0-3.28-1.16-3.28-2.51c0-2.12,3.09-8.87,4.05-10.99l32.78-71.72h-41.65l-34.13,74.81c-7.71,17.16-9.06,22.56-9.06,28.34
			c0,8.87,5.21,16.2,16,16.2c15.42,0,24.68-10.8,37.4-29.88l-7.13,28.15H716.28z M689.65,132.07h22.94l-0.77,1.35h-22.56
			L689.65,132.07z M722.43,33.93h1.54l-3.47,7.33h-1.35L722.43,33.93z M716.45,47.43h1.35l-9.06,19.86h-1.35L716.45,47.43z
			 M704.5,73.84h1.35l-1.93,4.24h-1.35L704.5,73.84z M686.57,85.99h-1.35l2.7-5.78h1.35L686.57,85.99z M675.38,26.61h1.35
			l-7.13,15.62h-1.35L675.38,26.61z M658.42,63.62h1.35l-3.08,6.94h-1.54L658.42,63.62z M643.76,95.82h1.35l-4.24,10.03h-1.35
			C640.68,103.15,641.84,99.87,643.76,95.82z M650.7,135.15c-1.35,0-2.51-0.19-3.47-0.39l0.39-1.16c0.96,0.19,1.93,0.19,3.09,0.19
			c6.17,0,11.18-1.93,16-5.59l0.77,1.16C662.46,133.23,657.07,135.15,650.7,135.15z M650.7,132.45c-8.1,0-11.57-5.21-11.76-11.37
			c0-5.21,1.16-10.6,9.26-28.53l32.39-70.95h32.39L683.1,87.15c-4.24,9.25-4.63,11.57-4.63,13.88c0,2.31,1.93,4.43,4.82,5.01
			C675.38,118.38,665.74,132.45,650.7,132.45z M687.92,119.34l-2.51,9.45h-1.35l2.51-9.45H687.92z"/>
		<path d="M692.35,44.54c3.86,0,4.43,1.54,4.82,1.54l6.36-13.11c-7.33,3.08-17.54,5.98-27.57,8.68l-7.71,17.16
			C669.21,58.8,677.5,44.54,692.35,44.54z"/>
		<path d="M706.42,25.26H682.9l-4.24,9.06c5.4-3.08,20.05-7.33,27.38-8.29L706.42,25.26z"/>
		<path d="M663.24,88.88c-5.98,0-3.47-8.1-4.82-8.1c-3.86,7.71-15.42,30.46-15.42,40.3c0,5.01,3.09,8.29,7.91,8.29
			c10.41,0,17.74-9.25,21.59-13.11c-3.09,0-10.41,10.6-20.82,10.6c-3.86,0-5.98-2.12-5.98-6.17c0.19-10.41,10.99-27.96,23.14-27.96
			c4.24,0,5.21,3.28,5.98,3.28c1.93-5.59,4.44-10.6,7.71-17.16C681.75,78.86,675.96,88.88,663.24,88.88z"/>
	</g>
</g>
</svg>
