<?xml version="1.0" encoding="utf-8"?>
<!-- Generator: Adobe Illustrator 24.2.3, SVG Export Plug-In . SVG Version: 6.00 Build 0)  -->
<svg version="1.1" id="Layer_1" xmlns="http://www.w3.org/2000/svg" xmlns:xlink="http://www.w3.org/1999/xlink" x="0px" y="0px"
	 viewBox="0 0 1271.6 150" style="enable-background:new 0 0 1271.6 150;" xml:space="preserve">
<g>
	<path d="M69.29,39.25v-4.2H58.68c-1.4,0-3.8-0.4-3.8-2c0-1.2,0.8-2.2,3.8-2.2h10.61v-3.2H59.08c-2.2,0-4.21-0.6-4.21-2.2
		c0-1.2,0.8-2.2,4-2.2h10.41v-3.2H58.88c-2.6,0-3.8-0.8-3.8-2c0-1.2,1.2-2.2,3.8-2.2h10.41v-3.21H58.88c-2.6,0-3.8-1.2-3.8-2.4
		c0-1.6,2.4-2,3.8-2h47.86c7.41,0,9.01,3.2,9.01,8.41v78.51c0,32.64-27.84,49.67-55.07,49.67c-22.63,0-56.48-13.02-56.48-49.06
		c0-17.22,9.41-35.85,35.65-35.85c23.23,0,37.05,17.22,37.05,46.06h4.21c0-10.61-1.8-20.03-5.41-27.64c3.2-2.4,8.41-4.61,14.82-4.61
		c3,0,6.61,0.6,10.21,1.8l1.4-3.8c-4.01-1.4-8.01-2-11.62-2c-6.61,0-12.42,2-16.62,4.81c-1-1.8-2.2-3.4-3.4-5.01
		c-1.8-2-3.6-4.01-5.61-5.61V39.25H69.29z"/>
	<path d="M136.38,137.18v-3.2h-8.81c-2.6,0-3.2-1-3.2-1.8c0-1.6,1.6-2.4,3.2-2.4h8.81v-3.2h-8.61c-2,0-3.2-0.6-3.2-2
		c0-1.6,2.2-2,3.2-2h8.61v-3.2h-8.81c-2,0-3-1-3-2s0.8-1.6,3.2-1.6h12.22l5.61-21.83c7.01-26.83,17.82-27.64,50.67-27.64h21.43
		l-8.41-15.62c4.61-2.6,7.01-7.01,7.01-11.82c0-2-0.4-4.01-1.2-6.01l-3.8,1.6c0.6,1.2,0.8,2.8,0.8,4.2c0,4.21-2.4,7.81-8.81,9.61
		l7.41,14.02h-6.21l-7.21-13.82l-2.8,1.6l6.41,12.22h-5.81l-7.01-13.42l-2.8,1.6l6.01,11.81h-5.21l-10.21-19.23
		c2-4.61,11.62-25.43,16.42-32.84c2.6-4.01,5.81-6.01,9.21-6.01c4.01,0.2,8.01,3.61,11.62,10.21l25.23,47.26
		c2,3.6,2.8,7.41,2.8,11.21c0,7.41-3.2,14.62-8.81,20.23l3,3c3.81-3.8,6.61-8.61,8.21-13.62c1.4-0.2,3-0.4,4.41-0.4
		c8.01,0,14.82,5.81,14.82,13.62v47.06c0,2.4-1,3.21-2.2,3.21c-1.4,0-2.8-1-2.8-3.21v-12.22h-3.2v12.22c0,2-0.6,3.21-2.2,3.21
		c-1.2,0-2.6-0.8-2.6-3.21v-12.22h-3.2v12.22c0,2.4-1.2,3.21-2.4,3.21c-1.4,0-2.4-0.8-2.4-3.21v-12.22h-3.2v12.22
		c0,3-1.8,3.21-2.4,3.21c-1.6,0-2-1.4-2-3.21v-12.62l10.41-14.62l-3.4-2.4l-14.02,19.63c-3,4.21-7.21,5.21-10.61,5.21
		c-8.81,0-12.42-7.01-14.62-11.62l-22.23-46.66l-3.8,2l4.81,9.01v50.47h-53.27c-2.4,0-3-1-3-1.6c0-0.8,0.6-2.2,3-2.2L136.38,137.18z
		"/>
	<path d="M347.06,96.93l-17.82-7.41c-12.22-5.01-25.83-10.61-25.83-30.64c0-3.61,0.4-7.41,1.4-10.61
		c8.21-2.6,13.02-9.21,14.22-16.62c4.21-1.8,9.01-2.6,14.62-2.6c1.8,0,3.81,0,5.81,0.2l0.4-4.01c-2.2-0.2-4.41-0.4-6.41-0.4
		c-5.41,0-10.01,0.8-14.42,2.6c-0.6-4.61-2.4-9.01-4.41-11.01l-3,3c1.4,1.4,3.4,6.01,3.4,10.41c0,8.41-8.01,14.62-15.42,14.62h-2
		V73.5c0,2.2-1,3-2.2,3c-1.4,0-2.6-1-2.6-3l-0.4-30.44h-3.2V73.5c0,2-1,3.2-2.6,3.2c-1.4,0-2.6-1.2-2.6-3.2V43.06h-3.2l-0.2,30.44
		c0,2.2-1,3.2-2.4,3.2c-1.6,0-2-1.8-2-3.2V22.03c0-7.61,4.41-12.02,12.02-12.02h36.85c45.86,0,66.89,33.64,66.89,65.29
		c0,44.86-34.45,69.29-71.29,69.29c-25.23,0-44.46-13.02-44.46-36.05c0-16.62,11.01-28.64,27.64-28.64h2.2
		c5.81,7.01,14.42,10.01,21.63,13.22l17.82,7.61L347.06,96.93z"/>
	<path d="M484.74,61.88h-37.05V9.61h137.78v52.27h-35.65v79.31h-32.84c-0.6-4.41-2-16.82-2-30.04c0-8.01,0.4-16.42,2-23.43
		c6.01,3.2,12.62,4.2,17.42,4.2v-4.2c-10.21,0-29.64-6.21-29.64-29.24c0-17.62,14.02-23.83,14.62-24.03l-1.6-3.81
		c-0.8,0.2-17.22,7.41-17.22,27.84c0,13.22,5.41,21.43,12.22,26.44c-2.4,1.2-5.81,2-9.21,2c-3.2,0-6.21-0.6-8.61-1.8l-1.8,3.8
		c3,1.4,6.81,2,10.41,2c3,0,6.21-0.4,8.81-1.4c-1.2,7.01-1.6,15.02-1.6,22.43c0,12.82,1.2,24.63,2,29.24h-28.04V61.88z"/>
	<path d="M671.19,99.13c-5.41-3-11.01-6.61-16.62-10.61c-18.42-13.22-19.23-26.03-19.23-34.44c0.2-17.82,13.02-30.84,30.64-30.84
		c9.21,0,15.62,4.41,15.62,4.41l2.4-3.6c-0.2-0.2-7.41-5.01-18.02-5.01c-19.83,0-34.85,14.82-35.05,34.05c-2-0.4-4.61-0.6-8.21-0.6
		c-7.41,0-17.22,3.61-24.03,12.02c3.6-35.05,30.84-60.08,65.09-60.08c36.05,0,65.49,30.24,65.49,69.29
		c0,39.05-29.44,70.89-65.49,70.89c-18.62,0-36.45-6.61-49.87-18.62c-11.82-10.61-19.03-24.43-19.03-36.85
		c0-23.63,17.02-32.44,27.84-32.44c3.6,0,6.41,0.2,8.21,0.6c1.6,22.83,20.03,35.25,38.25,45.46L671.19,99.13z"/>
	<path d="M748.7,139.99c-1,0-1.8-0.4-1.8-3.21v-8.01h-3.2l-0.2,8.21c0,2-0.8,3-1.8,3c-1.4,0-2-1.4-2-3.61V82.71
		c0-7.01,2.2-7.61,3.6-7.81v0.8c0,21.03,7.21,40.05,20.43,53.47c1.8,2,3.81,3.81,5.81,5.41l-2.2,3c-1.2,1.6-2,2.4-3.4,2.4
		c-1,0-2-1.2-2-3.4l-0.2-7.81h-3.2l-0.2,8.01c0,1.4-0.2,3.21-2,3.21c-1.4,0-2-0.8-2-3.21l-0.2-8.01h-3.2l-0.2,8.01
		C750.7,138.59,750.1,139.99,748.7,139.99z M816.19,109.15c0-0.2,0-8.21-4.21-18.22c-0.8-1.6-1.4-3.2-2.4-4.61
		c2.8-13.02,13.82-31.04,35.05-31.04c24.03,0,32.64,19.43,32.64,37.45c0,29.24-24.83,52.67-62.88,52.67
		c-39.65,0-66.89-29.44-66.89-69.69c0-35.05,23.83-63.28,57.88-68.69c5.61-0.8,10.81-1.4,15.62-1.4c14.82,0,25.83,4.41,30.04,12.22
		c1.6,2.8,3,6.01,3,10.21c0,5.41-2.2,12.62-9.61,23.03c-19.63,0.2-33.44,14.82-38.05,30.64c-3.8-4.61-8.61-8.21-13.82-10.61
		c0.4-19.83,10.41-38.45,16.82-42.26l-2-3.6c-8.61,5.01-18.02,24.43-19.03,44.26c-4.81-1.6-10.01-2.6-14.62-2.6v4.21
		c9.41,0,27.44,4.41,34.45,21.43c3.81,9.21,3.81,16.62,3.81,16.62H816.19z"/>
	<path d="M950.57,124.77v-3.2h-9.01c-2,0-3.4-1-3.4-2.4c0-1.4,1.8-1.8,3.4-1.8h21.43V96.53c17.02-5.61,28.44-19.83,28.44-37.65
		h-4.21c0,21.23-16.62,35.85-40.65,35.85c-12.62,0-27.04-7.41-31.84-16.42l-3.81,2c5.41,10.01,20.03,18.02,33.85,18.62v14.22h-3.2
		c-4.81,0-7.41,2.4-7.41,6.21c0,1,0.6,2.4,1.6,3.4c-1,1-1.6,2.4-1.6,4.01c0,1.4,0.8,3,1.6,3.8c-0.6,0.4-1.6,1.4-1.6,3.2
		c0,1.8,0.6,2.6,1.6,3.8c-1.2,0.6-2,2.4-2,3.6h-44.66l-0.2-108.94c0-22.03,18.42-27.84,28.04-27.84h37.05c3.2,0,5.41,0.6,5.41,2.4
		c0,1.6-2,2.2-4.61,2.2l-10.01,0.2v3.2h9.41c4.61,0,5.61,1.2,5.61,2.6s-2,2.2-4.21,2.2l-10.81,0.2v3.2l10.61,0.2
		c3,0,4.41,1,4.41,2.6c0,1.4-1.4,2.2-5.41,2.2h-9.61v22.03c-1.4,1.6-2.8,3-4.41,4.41l3,3l9.61-10.01
		c11.82-12.22,21.23-21.23,36.85-21.23c17.22,0,25.43,19.83,27.44,36.85c1.8,15.82,6.41,56.07,6.41,67.49
		c0,9.81-2.2,14.62-14.42,14.62h-67.69c-1.8,0-3.4-0.4-3.4-1.6c0-0.8,0.6-2.2,3.4-2.2h9.01v-3.2h-9.21c-2.2,0-3.2-1-3.2-2
		c0-1,0.8-2,2.8-2h9.61v-3.2h-9.41c-2.2,0-3-0.8-3-1.8c0-1,0.8-2,2.8-2H950.57z"/>
	<path d="M1047.3,75.9l4.21-1.4c-0.8-2-1.2-4.61-1.2-7.21c0-5.01,1.6-11.01,5.21-16.22c3.81-5.21,11.22-11.62,25.23-11.62
		c21.23,0,26.64,16.82,26.84,17.42l4.01-1.2c0-0.2-4.81-15.22-21.83-19.43c0-0.8,0.2-3,0.8-4.81c3.8-11.62,12.62-18.43,26.44-18.43
		c27.44,0,28.24,27.24,28.24,30.24v51.87c0,29.04-26.44,49.07-58.88,49.07c-26.64,0-55.07-14.62-55.07-55.87V35.25h-7.41
		c-2.4,0-3.6-0.6-3.6-1.6c0-1.2,1.2-2.2,3.8-2.2h7.21v-3.2h-7.41c-2.6,0-3.6-0.8-3.6-2.2c0-0.8,1-2,3.6-2h7.41v-3.2h-7.21
		c-3.8,0-3.8-1.2-3.8-2.2c0-1.6,2.2-2,3.4-2h7.61v-3.2h-7.01c-2.6,0-4.01-1.4-4.01-2.8c0-1.4,1.8-1.8,4.01-1.8h42.66
		c7.21,0,11.21,3.2,11.21,8.41v18.22c-14.22,0.6-22.03,7.41-26.03,13.22c-4.01,5.41-6.01,12.42-6.01,19.03
		C1046.1,70.49,1046.5,73.3,1047.3,75.9z"/>
	<path d="M1220.93,39.25v-4.2h-10.61c-1.4,0-3.8-0.4-3.8-2c0-1.2,0.8-2.2,3.8-2.2h10.61v-3.2h-10.21c-2.2,0-4.21-0.6-4.21-2.2
		c0-1.2,0.8-2.2,4.01-2.2h10.41v-3.2h-10.41c-2.6,0-3.8-0.8-3.8-2c0-1.2,1.2-2.2,3.8-2.2h10.41v-3.21h-10.41c-2.6,0-3.8-1.2-3.8-2.4
		c0-1.6,2.4-2,3.8-2h47.86c7.41,0,9.01,3.2,9.01,8.41v78.51c0,32.64-27.84,49.67-55.07,49.67c-22.63,0-56.47-13.02-56.47-49.06
		c0-17.22,9.41-35.85,35.65-35.85c23.23,0,37.05,17.22,37.05,46.06h4.21c0-10.61-1.8-20.03-5.41-27.64c3.2-2.4,8.41-4.61,14.82-4.61
		c3,0,6.61,0.6,10.21,1.8l1.4-3.8c-4.01-1.4-8.01-2-11.62-2c-6.61,0-12.42,2-16.62,4.81c-1-1.8-2.2-3.4-3.41-5.01
		c-1.8-2-3.6-4.01-5.61-5.61V39.25H1220.93z"/>
</g>
</svg>
