<?xml version="1.0" encoding="utf-8"?>
<!-- Generator: Adobe Illustrator 24.2.3, SVG Export Plug-In . SVG Version: 6.00 Build 0)  -->
<svg version="1.1" id="Layer_1" xmlns="http://www.w3.org/2000/svg" xmlns:xlink="http://www.w3.org/1999/xlink" x="0px" y="0px"
	 viewBox="0 0 588.42 150" style="enable-background:new 0 0 588.42 150;" xml:space="preserve">
<g>
	<path d="M0,120.48c-0.16-4.37,4.21-0.62,6.24-0.62c0.94,0,4.68-2.65,3.43,1.09c-1.56,4.68,2.65,11.07,4.05,13.72
		c2.03,3.74,10.91,9.04,14.03,5.3c1.72-2.03,0.16-4.37-3.9-4.83c-4.99-0.62-10.6-4.99-10.6-13.41c0-9.04,1.09-13.88,6.55-23.54
		c6.24-11.07,0.16-16.84-2.18-20.27c-3.74-5.3-7.64-8.11-8.89-17.62s8.11-19.49,18.24-15.9c15.75,5.61,12.01,16.37,7.8,24.79
		c-2.65,5.3-3.59,8.89-5.46,13.72c-0.93,2.49,7.95,5.3,0,19.49c-5.61,9.98-6.39,18.24-6.24,20.74c0.31,4.68,18.24,8.89,16.37,16.84
		s-12.32,10.13-18.71,9.2c-4.52-0.62-11.69-2.81-15.59-9.82C2.34,134.36,0.32,128.43,0,120.48z M18.71,20.39
		c-7.48,8.73-4.05,14.65,0.47,14.65c9.51,0,9.04,4.68,15.28,2.81c12.01-3.59,8.26-13.88,1.72-21.2c-2.81-3.12-5.77-3.27-8.57-3.12
		C24.01,13.84,20.9,17.9,18.71,20.39z M21.36,68.25c1.4,0.94,7.95-2.81,7.95-10.76c0-1.25-5.61-8.26-8.42-3.43
		c-2.03,3.43-3.9-1.09-3.9,5.61C17,62.95,18.4,66.38,21.36,68.25z"/>
	<path d="M104.46,116.43c-0.94,1.56,0.94,6.08-2.65,3.27c-3.59-2.81-9.98-12.32-10.91-16.53c-0.31-1.4-0.62-2.49-1.09-3.59
		c-5.46,7.95-10.76,14.19-15.9,17.77c-20.11,13.56-37.26-12.32-21.83-26.5c6.08-5.61,14.19-3.9,17.46-9.51
		c6.86-11.85,19.8-8.57,21.83-3.43c1.4,3.59,2.96,1.56,2.65-1.72c-0.31-4.05-4.52-7.33-13.88-6.39c-8.42,0.78-4.99-13.88,4.68-8.89
		c6.08,3.12,10.6-9.2,4.68-12c-5.92-2.81-21.98-1.09-22.14,14.19l0.47,5.14c0.16,2.49,0.78,14.34-9.2,14.81
		c-1.4,0-2.96-0.31-4.21-0.94c-1.25,0.78-2.96,1.4-5.15,1.56c-2.96,0.16-5.61-1.4-7.33-4.05c-1.25-1.87-2.65-5.92-2.81-8.57
		c-0.16-3.12,0.62-6.55,1.87-8.57c1.56-2.49,5.15-2.34,7.8-2.34c0.31-1.25,0.78-2.49,1.25-3.43c0.94-2.03,3.12-2.49,5.3-2.65
		C58.62,37.54,85.6,36.29,96.2,41.13c10.45,4.83,5.61,37.1-1.09,50.51c1.56,4.99,4.05,11.69,5.3,13.72
		c1.87,3.12,4.52,5.77,6.86,7.02C109.29,113.47,105.4,114.87,104.46,116.43z M83.26,82.44c-2.34-1.25-5.77-0.78-9.98,5.14
		c-5.3,7.17-8.89,4.83-14.5,9.98c-5.61,5.3-2.34,9.98,1.09,12.32c3.43,2.34,7.8,1.71,10.91,0.16c2.96-1.56,10.45-14.34,12.94-18.24
		C87.78,85.56,85.44,83.53,83.26,82.44z"/>
	<path d="M159.65,62.02c-0.47,4.37,2.81,11.69,2.81,18.86c0,2.96-5.46,11.38,8.57,21.2c2.65,1.87,1.4,7.02-0.16,9.67
		c-3.27,5.61-6.24,9.04-13.41,6.24c-7.17-2.81-9.51-14.97-5.92-17.77c2.81-2.18,3.9-2.96,3.9-9.67c0-2.96-4.05,4.05-6.08,10.6
		c-4.52,14.65-20.27,19.8-31.34,12.16c-9.82-6.86-19.18-37.11-8.73-55.35c4.52-7.95,22.14-19.96,30.4-11.69
		c6.7,6.7,7.48,11.07,10.13,15.75c0-1.71,0-3.43,0.31-4.99c0.94-5.92,7.8-10.13,8.89-16.99c1.4-9.2-2.49-12.32-5.14-16.84
		c-4.05-7.02,2.96-15.59,8.42-15.28c7.02,0.47,12.94,9.35,12.01,19.49c-0.78,8.57-7.17,19.33-9.04,21.51
		C163.39,51.1,159.96,58.9,159.65,62.02z M149.52,79.01c-0.94-4.68-12.47-22.14-14.81-24.48c-6.7-6.7-22.76,2.65-20.27,16.53
		c0.47,2.65,5.77,3.74,5.14-1.09c-0.78-6.55,9.98-10.45,13.72-5.92c3.59,4.37-3.43,11.54-2.81,16.53c0.93,5.3,9.35,8.26,7.17,13.25
		c-2.34,5.3-7.17,7.95-10.45,7.48c-4.52-0.62-7.48-12.16-9.51-19.49c-0.93-3.27-4.83-6.08-4.83-0.47c0,8.42,2.81,18.55,9.51,24.48
		c6.24,5.46,18.09,0.47,22.45-11.85C148.11,84.78,150.61,84.31,149.52,79.01z M155.75,106.61c0,2.65,3.9,6.86,5.77,6.86
		c2.03,0,4.21-4.21,4.21-6.86c0-2.81-3.59-4.99-5.61-4.99C158.25,101.62,155.75,103.8,155.75,106.61z"/>
	<path d="M244.3,42.84c-3.74,1.4-11.22,4.37-19.33-0.16c-1.4-0.78-2.49-1.56-3.27-2.34c0.62,2.03,0.62,4.21,0.31,6.7
		c-1.09,7.33-0.47,17.93-0.47,25.1c0.16,15.28-11.07,25.41,1.56,24.63c3.27-0.47,6.39,0.94,8.89,2.03c4.37,1.87,6.7,4.37,7.33,8.11
		c0.62,3.9-0.78,8.89-3.43,11.85c-2.81,2.96-12.94,3.9-16.99,2.96c-4.05-0.78-10.76-4.37-11.22-12.32
		c-0.78-11.38,2.34-24.16,5.14-36.95c1.25-5.61,0-15.9-2.03-21.2c-2.03-5.3-8.89-3.12-14.19-4.37c-5.3-1.25-6.86-10.76-0.62-14.34
		c5.92-3.43,12.94-4.68,18.4-1.25c-1.4-1.87-2.65-3.9-3.27-6.39c-1.56-6.7-0.94-8.11-0.94-9.98c0-7.8,3.27-2.49,5.14-2.18
		c1.87,0.31,5.3-2.96,5.46,2.34c0.16,5.3,0,9.82,4.83,15.59c7.17,8.57,11.85,1.71,15.28,1.56c3.43-0.16,1.25,3.43,2.03,5.14
		C243.84,39.57,248.05,41.44,244.3,42.84z M215.46,39.88c-1.09-3.59-5.3-6.08-11.85-5.14c-4.68,0.62-5.46,6.55-0.47,6.08
		c4.99-0.47,7.48,1.56,9.04,4.05C213.44,46.89,216.55,43.46,215.46,39.88z M221.54,103.96c-4.68,0.78-6.39,3.43-6.39,5.77
		c0,2.49,1.4,5.77,4.05,6.55c2.49,0.62,5.14-2.03,7.64-1.56c3.12,0.47,6.55-0.94,6.08-5.14
		C232.46,105.51,225.28,103.33,221.54,103.96z"/>
	<path d="M311.34,76.83c0.16,1.25,0.16,2.49,0.31,3.9c0.16,1.56,0.47,7.33-2.18,11.07c-2.65,6.08-8.26,14.03-16.06,19.02
		c-3.9,2.49-11.38,6.24-16.68,6.39c-20.74,0.62-38.2-8.73-39.13-29.15c-0.31-6.86-1.87-13.88,1.25-25.41
		c3.12-11.54,15.75-12.94,23.07-17.46c5.14-3.12,9.98-3.12,13.56-2.03c1.87-0.78,4.05-1.25,6.39-2.03
		c7.48-2.34,16.53-0.78,21.36,2.18c5.77,3.59,12.32,12.78,12.32,21.83C315.55,71.22,315.08,75.58,311.34,76.83z M295.44,99.12h-0.93
		c-2.96,0.16-5.61-1.4-7.33-4.05c-1.25-1.87-2.65-5.92-2.81-8.57c-0.16-3.12,0.62-6.55,1.87-8.57c1.25-1.87,3.59-2.18,5.77-2.34
		c0.31-2.34,1.09-4.68,1.87-6.39c0.62-1.25,1.72-2.03,2.96-2.34c-0.47-0.78-0.94-1.56-1.4-2.18c-6.86-9.04-9.35-4.05-15.59-5.3
		c-5.77-1.09-7.95-3.74-8.26-9.2c-0.78,0.16-1.56,0.16-2.34,0.31c-3.12,0.47-8.89,2.81-14.34,6.86c-5.46,4.05-7.33,10.91-6.39,13.1
		c0.94,2.18,6.55,0.62,5.3-1.87c-3.12-6.24,7.33-9.51,12.32-7.64c5.92,2.18,10.6,11.07,7.8,19.64c-2.34,7.17-8.42,12.47-13.1,12.47
		c-4.37,0-10.13-2.65-8.73-8.73c1.56-6.7-7.33-10.29-7.17-5.46c0.62,22.76,15.59,27.75,30.4,27.75c5.3,0,13.1-2.34,17.15-4.99
		C293.72,100.84,294.66,99.9,295.44,99.12z M282.5,51.42c2.34,3.74,5.14-1.09,11.38,2.49c7.8,4.52,7.8,13.1,12.47,12.16
		c2.34-0.47,1.4-3.59-0.31-8.11c-2.34-6.08-7.02-11.07-14.34-11.07C285.15,46.89,281.1,49.08,282.5,51.42z"/>
	<path d="M374.95,56.25c-0.31,0.16-0.78,0.31-1.4,0.47c2.65,3.59,4.05,7.8,3.27,13.72c-0.78,5.46-6.39,12.78-12.32,17.31
		c-5.46,4.05-12.32,5.14-19.02,4.37v0.31c0,4.99,14.81,1.4,18.86,6.39c2.65,3.27,2.03,6.86,0.47,10.29
		c1.87,1.25,3.27,2.81,4.37,4.37c2.49,3.59,3.74,11.07-1.09,15.9c-8.89,8.89-17.15,15.9-24.32,18.86
		c-22.29,9.2-33.83-19.96-15.75-30.71c7.02-4.21,14.81-0.78,19.02-5.46c2.18-2.34,4.21-3.9,6.39-4.68
		c-0.93-3.74-9.98-2.49-14.5-2.18c-5.61,0.47-13.72-5.61-7.02-17.15c-4.52-2.34-8.26-5.46-10.29-8.57
		c-6.24-9.82-2.34-30.09,8.26-34.77c13.41-5.92,23.85-3.59,31.03,0.62c0.31-0.62,0.62-1.09,1.09-1.72c1.4-1.87,4.68-4.68,7.17-5.61
		c2.96-1.09,6.39-1.56,8.73-1.09c2.81,0.62,3.9,4.05,4.83,6.55C385.55,51.1,382.28,53.75,374.95,56.25z M359.98,57.5
		c-7.95-7.02-13.56,0.62-8.89,4.83c3.74,3.43,6.86,12-1.09,12.47c-5.14,0.31-7.79-5.3-11.85-6.08c-13.56-2.65-3.74-12.32,1.87-12.78
		c8.89-0.78,6.7-5.77-4.05-3.9c-8.73,1.56-11.07,12.63-7.48,21.83c3.59,9.2,21.36,10.91,25.72,8.11
		C366.69,74.02,368.56,65.14,359.98,57.5z M359.98,116.43c-2.03-1.56-5.3-1.87-10.76,2.81c-7.01,5.92-9.51,2.81-16.21,6.86
		c-6.7,4.05-4.52,9.2-1.71,12.32c2.81,3.12,7.33,3.12,10.76,2.34c3.12-0.78,13.25-11.85,16.37-15.12
		C363.57,120.17,362.01,117.99,359.98,116.43z M369.96,51.73c1.87,0.78,6.39-1.09,6.86-2.81c0.47-1.71-1.71-4.68-3.59-5.46
		c-2.03-0.94-4.99,1.56-5.61,3.12C367,48.14,367.78,50.79,369.96,51.73z"/>
	<path d="M454.93,117.52c-3.43,3.74-15.75,4.83-20.89,3.74c-4.99-1.09-13.1-5.46-13.72-15.12c-0.78-12.78,9.67-9.04,10.6-14.5
		c2.49-14.65,6.7-18.4,7.79-25.26c1.09-15.9-7.01-19.33-17.46-16.84c-5.77,1.4-7.02,8.57-8.42,14.19
		c-0.93,3.74,0.94,11.54,4.83,3.74c10.76-21.51,18.86-3.12,15.75,1.4c-7.02,10.13-1.4,17.77-7.95,17.77c-4.83,0-5.3-4.37-9.67-5.77
		c-4.52-1.4,0.78,6.39,2.34,11.38c2.34,7.64-2.18,15.75-4.52,20.27c-6.08,11.22-29.93,12-32.9-0.78
		c-1.87-7.95,16.99-10.45,17.3-16.84c0.16-2.49-1.56-10.76-7.17-20.74c-5.3-9.35-1.71-20.58,0.94-27.75
		c-3.27,0.16-5.3-2.49-7.02-4.37c-2.34-2.65-1.72-7.64-1.4-11.07c0.47-4.05,1.87-6.7,3.59-8.42c-3.59-7.8-4.83-16.84,9.2-21.83
		c10.13-3.59,19.49,6.39,18.24,15.9c-1.09,7.95-3.9,8.89-7.02,14.03c4.21,5.92-1.87,14.19-5.46,13.1h-0.78
		c-3.27,7.8-6.39,18.71-2.49,27.13c4.68,9.98,6.08,20.58,6.7,24.48c0.62,4.37-1.87,12.16-8.89,12.63c-4.05,0.31-6.39,1.09-5.61,3.12
		c1.56,4.05,10.29,1.87,14.03-2.49c2.81-3.27,6.86-7.64,4.37-18.4c-2.03-8.57-6.55-18.86-4.52-30.56
		c1.4-7.79,3.27-15.12,12.94-18.08c4.52-1.4,11.69-2.03,16.99,0c1.87-2.34,4.68-4.05,7.33-3.74c5.14,0.62,16.53,5.3,16.06,13.88
		c-0.47,8.57-7.48,7.64-11.07,17.15c-1.87,4.99-6.86,17.15-5.3,20.58c1.09,2.49,3.27,1.25,8.57,3.59c5.3,2.34,8.26,5.3,9.04,9.98
		C460.07,107.7,458.2,113.93,454.93,117.52z M393.81,13.84c0,7.95,6.55,11.69,7.95,10.76c2.96-1.87,4.37-5.3,4.37-8.57
		c0-6.7-1.87-2.18-3.9-5.61C399.42,5.58,393.81,12.6,393.81,13.84z M451.34,106.29c-0.62-4.99-9.35-7.64-13.88-6.86
		c-5.77,0.94-7.95,4.21-7.95,7.02c0,2.96,1.71,7.17,4.99,7.95c3.12,0.78,6.24-2.34,9.35-1.87
		C447.75,113.15,451.96,111.44,451.34,106.29z"/>
	<path d="M545.35,100.37c3.59,7.8,4.83,16.84-9.2,21.83c-10.13,3.59-19.49-6.39-18.24-15.9c1.09-7.95,3.9-8.89,7.01-14.03
		c-2.65-3.74-1.25-8.42,1.09-11.07c-2.34-6.08-7.48-13.88-8.42-20.58c-0.62-4.37,4.21-10.13,11.22-10.6
		c4.05-0.31,4.05-2.49,3.9-4.52c-0.47-6.08-12.47-2.65-15.12,4.05c-1.4,3.43-3.43,9.82-2.18,13.56c2.34,7.02,8.89,23.23,2.5,37.73
		c-3.43,7.8-7.64,16.37-17.31,19.33c-5.46,1.56-12.78,0-16.37-2.96c-1.4,1.09-3.12,1.87-4.68,1.72c-5.3-0.31-16.84-4.37-16.99-12.94
		c-0.16-8.57,7.8-7.48,9.04-17.77c1.87-15.12-2.03-22.14-0.78-36.17c0.47-5.46,0.16-9.51,1.72-14.5c0.47-1.56,3.74,0.16,5.14,1.4
		c1.4,1.25,3.74-1.09,3.59,0.78c-0.47,4.99-2.65,9.04-2.49,14.03c0.31,9.82,1.09,20.42,2.18,36.48c0.62,9.04,2.65,12.32,6.24,16.37
		c0.94,1.09,1.25,2.65,0.94,4.37c3.74,2.18,9.2,2.96,13.41-1.4c5.14-5.3,8.26-11.69,9.67-17.31c0.94-3.74-0.94-11.54-4.83-3.74
		c-10.76,21.51-18.86,3.12-15.75-1.4c7.02-10.13,1.4-17.77,7.95-17.77c4.83,0,5.3,4.37,9.67,5.77c4.52,1.4-0.78-6.39-2.34-11.38
		c-3.12-9.98,7.33-26.04,18.71-28.69c6.24-1.4,16.99,1.25,18.71,9.2c2.96,13.72-16.99,11.38-17.31,18.86
		c-0.16,4.37,3.59,10.91,6.39,15.9c2.34-0.47,5.46-1.72,6.86-2.18c3.9-1.25,6.39,1.87,8.26,4.05c2.34,2.65,1.72,7.64,1.4,11.07
		C548.47,96,547.07,98.65,545.35,100.37z M538.49,109.1c0-7.95-6.55-11.69-7.95-10.76c-2.96,1.87-4.37,5.3-4.37,8.57
		c0,6.7,1.87,2.18,3.9,5.61C532.88,117.36,538.49,110.35,538.49,109.1z"/>
	<path d="M546.13,120.48c-0.16-4.37,4.21-0.62,6.24-0.62c0.93,0,4.68-2.65,3.43,1.09c-1.56,4.68,2.65,11.07,4.05,13.72
		c2.03,3.74,10.91,9.04,14.03,5.3c1.71-2.03,0.16-4.37-3.9-4.83c-4.99-0.62-10.6-4.99-10.6-13.41c0-9.04,1.09-13.88,6.55-23.54
		c6.24-11.07,0.16-16.84-2.18-20.27c-3.74-5.3-7.64-8.11-8.89-17.62s8.11-19.49,18.24-15.9c15.75,5.61,12,16.37,7.79,24.79
		c-2.65,5.3-3.59,8.89-5.46,13.72c-0.94,2.49,7.95,5.3,0,19.49c-5.61,9.98-6.39,18.24-6.24,20.74c0.31,4.68,18.24,8.89,16.37,16.84
		c-1.87,7.95-12.32,10.13-18.71,9.2c-4.52-0.62-11.69-2.81-15.59-9.82C548.47,134.36,546.44,128.43,546.13,120.48z M564.84,20.39
		c-7.48,8.73-4.05,14.65,0.47,14.65c9.51,0,9.04,4.68,15.28,2.81c12-3.59,8.26-13.88,1.71-21.2c-2.81-3.12-5.77-3.27-8.57-3.12
		C570.14,13.84,567.02,17.9,564.84,20.39z M567.49,68.25c1.4,0.94,7.95-2.81,7.95-10.76c0-1.25-5.61-8.26-8.42-3.43
		c-2.03,3.43-3.9-1.09-3.9,5.61C563.12,62.95,564.53,66.38,567.49,68.25z"/>
</g>
</svg>
