<?xml version="1.0" encoding="utf-8"?>
<!-- Generator: Adobe Illustrator 24.2.3, SVG Export Plug-In . SVG Version: 6.00 Build 0)  -->
<svg version="1.1" id="Layer_1" xmlns="http://www.w3.org/2000/svg" xmlns:xlink="http://www.w3.org/1999/xlink" x="0px" y="0px"
	 viewBox="0 0 1271.6 150" style="enable-background:new 0 0 1271.6 150;" xml:space="preserve">
<g>
	<path d="M20.23,136.38C7.01,126.57,0,112.55,0,95.73C0,71.5,15.62,55.67,39.85,55.67c7.81,0,14.82,2,20.83,5.41V39.25h-1.4
		c-2.6,0-4.61-0.6-6.21-1.8c-1.6-1.2-2.4-2.8-2.4-4.41c0-1.4,0.6-2.8,1.6-3.8c-1-1-1.6-2.4-1.6-3.81c0-1.4,0.6-2.8,1.6-3.8
		c-1-1-1.4-2.4-1.4-3.6c0-1.4,0.6-3,2-4.01c-1.4-1.2-2-2.8-2-4.41c0-1.8,0.8-3.2,2.4-4.2c1.4-1,3.4-1.4,6.01-1.4h47.46
		c13.22,0,13.22,9.41,13.22,12.62v78.51c0,21.23-10.61,33.84-19.63,40.85C89.72,144.19,75.1,149,60.68,149
		C45.86,149,31.24,144.39,20.23,136.38z M64.89,39.25v24.63c2,1.6,3.81,3.61,5.61,5.61c1.2,1.6,2.4,3.2,3.4,5.01
		c4.21-2.8,10.01-4.81,16.62-4.81c3.6,0,7.61,0.6,11.62,2l-1.4,3.8c-3.6-1.2-7.21-1.8-10.21-1.8c-6.41,0-11.62,2.2-14.82,4.61
		c3.6,7.61,5.41,17.02,5.41,27.64H76.9c0-28.84-13.82-46.06-37.05-46.06c-26.24,0-35.65,18.63-35.65,35.85
		c0,36.05,33.85,49.07,56.48,49.07c27.24,0,55.07-17.02,55.07-49.67V16.62c0-5.21-1.6-8.41-9.01-8.41H58.88c-1.4,0-3.8,0.4-3.8,2
		c0,1.2,1.2,2.4,3.8,2.4h10.41v3.2H58.88c-2.6,0-3.8,1-3.8,2.2s1.2,2,3.8,2h10.41v3.2H58.88c-3.2,0-4,1-4,2.2c0,1.6,2,2.2,4.21,2.2
		h10.21v3.2H58.68c-3,0-3.8,1-3.8,2.2c0,1.6,2.4,2,3.8,2h10.61v4.2H64.89z"/>
	<path d="M127.97,145.39c-5.21,0-7.81-3-7.81-5.81c0-1.4,0.6-2.8,1.6-3.8c-1-1-1.6-2.4-1.6-3.61s0.4-2.8,1.4-3.8
		c-0.8-1-1.2-2.2-1.2-3.6c0-1.2,0.4-2.6,1.6-3.8c-1.2-1-1.6-2.2-1.6-3.61c0-2.8,2.6-5.81,7.61-5.81h8.81l4.81-18.62
		c6.61-25.83,17.22-30.04,39.65-30.64l-10.01-19.03c0.8-2,11.82-26.64,17.62-35.45C191.85,3,196.66,0,201.07,0
		c7.01,0,12.42,6.01,15.82,12.42l24.63,46.86c2.4,4.41,3.6,9.81,3.6,14.82c0,1.2,0,2.6-0.2,3.8c1-0.2,2-0.2,3-0.2
		c9.41,0,19.03,6.81,19.03,17.42v46.06c0,6.81-3.2,8.81-6.41,8.81c-1.6,0-2.8-0.8-4.01-2c-1.2,1.2-2.6,2-4.21,2
		c-1.6,0-3-0.6-4.21-1.8c-1.2,1.4-2.8,1.8-4.21,1.8c-1.4,0-2.8-0.6-3.8-1.8c-1.2,1.4-2.6,1.8-4.01,1.8c-4.21,0-6.21-2.8-6.21-7.41
		v-6.81c-4.21,4.41-8.81,6.41-13.22,6.41c-8.01,0-14.02-4.81-17.82-13.02l-14.02-29.84v46.06H127.97z M127.37,137.38
		c-2.4,0-3,1.4-3,2.2c0,0.6,0.6,1.6,3,1.6h53.27V90.72l-4.81-9.01l3.8-2l22.23,46.66c2.2,4.61,5.81,11.62,14.62,11.62
		c3.4,0,7.61-1,10.61-5.21l14.02-19.63l3.4,2.4l-10.41,14.62v12.62c0,1.8,0.4,3.2,2,3.2c0.6,0,2.4-0.2,2.4-3.2v-12.22h3.2v12.22
		c0,2.4,1,3.2,2.4,3.2c1.2,0,2.4-0.8,2.4-3.2v-12.22h3.2v12.22c0,2.4,1.4,3.2,2.6,3.2c1.6,0,2.2-1.2,2.2-3.2v-12.22h3.2v12.22
		c0,2.2,1.4,3.2,2.8,3.2c1.2,0,2.2-0.8,2.2-3.2V95.73c0-7.81-6.81-13.62-14.82-13.62c-1.4,0-3,0.2-4.41,0.4
		c-1.6,5.01-4.41,9.81-8.21,13.62l-3-3c5.61-5.61,8.81-12.82,8.81-20.23c0-3.8-0.8-7.61-2.8-11.21l-25.23-47.26
		c-3.6-6.61-7.61-10.01-11.62-10.21c-3.4,0-6.61,2-9.21,6.01c-4.81,7.41-14.42,28.24-16.42,32.84l10.21,19.23h5.21l-6.01-11.82
		l2.8-1.6l7.01,13.42h5.81l-6.41-12.22l2.8-1.6l7.21,13.82h6.21l-7.41-14.02c6.41-1.8,8.81-5.41,8.81-9.61c0-1.4-0.2-3-0.8-4.21
		l3.8-1.6c0.8,2,1.2,4.01,1.2,6.01c0,4.81-2.4,9.21-7.01,11.82l8.41,15.62h-21.43c-32.84,0-43.66,0.8-50.67,27.64l-5.61,21.83
		h-12.22c-2.4,0-3.2,0.6-3.2,1.6s1,2,3,2h8.81v3.2h-8.61c-1,0-3.2,0.4-3.2,2c0,1.4,1.2,2,3.2,2h8.61v3.2h-8.81
		c-1.6,0-3.2,0.8-3.2,2.4c0,0.8,0.6,1.8,3.2,1.8h8.81v3.2L127.37,137.38z"/>
	<path d="M271.96,74.1V22.03c0-9.81,6.41-16.22,16.22-16.22h36.85c39.05,0,71.09,27.84,71.09,69.49c0,43.46-30.64,73.5-75.5,73.5
		c-34.05,0-48.66-17.62-48.66-40.25c0-11.01,4.21-20.83,13.42-27.64c-1.2-0.2-2.2-0.6-3.2-1.4c-1.2,1-2.6,1.4-4.01,1.4
		C274.77,80.91,271.96,77.9,271.96,74.1z M345.46,100.73l-17.82-7.61c-7.21-3.2-15.82-6.21-21.63-13.22h-2.2
		c-16.62,0-27.64,12.02-27.64,28.64c0,23.03,19.23,36.05,44.46,36.05c36.85,0,71.29-24.43,71.29-69.29
		c0-31.64-21.03-65.29-66.89-65.29h-36.85c-7.61,0-12.02,4.41-12.02,12.02V73.5c0,1.4,0.4,3.2,2,3.2c1.4,0,2.4-1,2.4-3.2l0.2-30.44
		h3.2V73.5c0,2,1.2,3.2,2.6,3.2c1.6,0,2.6-1.2,2.6-3.2V43.06h3.2l0.4,30.44c0,2,1.2,3,2.6,3c1.2,0,2.2-0.8,2.2-3V44.46h2
		c7.41,0,15.42-6.21,15.42-14.62c0-4.41-2-9.01-3.4-10.41l3-3c2,2,3.8,6.41,4.41,11.01c4.41-1.8,9.01-2.6,14.42-2.6
		c2,0,4.21,0.2,6.41,0.4l-0.4,4.01c-2-0.2-4.01-0.2-5.81-0.2c-5.61,0-10.41,0.8-14.62,2.6c-1.2,7.41-6.01,14.02-14.22,16.62
		c-1,3.2-1.4,7.01-1.4,10.61c0,20.03,13.62,25.63,25.83,30.64l17.82,7.41L345.46,100.73z"/>
	<path d="M554.04,145.39h-73.5V66.09h-37.05V5.41h146.19v60.68h-35.65V145.39z M484.74,141.19h28.04c-0.8-4.61-2-16.42-2-29.24
		c0-7.41,0.4-15.42,1.6-22.43c-2.6,1-5.81,1.4-8.81,1.4c-3.6,0-7.41-0.6-10.41-2l1.8-3.8c2.4,1.2,5.41,1.8,8.61,1.8
		c3.4,0,6.81-0.8,9.21-2c-6.81-5.01-12.22-13.22-12.22-26.44c0-20.43,16.42-27.64,17.22-27.84l1.6,3.8
		c-0.6,0.2-14.62,6.41-14.62,24.03c0,23.03,19.43,29.24,29.64,29.24v4.21c-4.81,0-11.42-1-17.42-4.21c-1.6,7.01-2,15.42-2,23.43
		c0,13.22,1.4,25.63,2,30.04h32.84V61.88h35.65V9.61H447.7v52.27h37.05V141.19z"/>
	<path d="M611.11,129.17c-12.82-11.41-20.43-26.44-20.43-40.05c0-6.81,1.4-12.42,3.4-17.22c0.2-19.83,7.41-36.85,20.43-50.47
		C627.54,7.61,645.16,0.2,663.78,0.2c38.45,0,69.69,32.24,69.69,73.5c0,41.46-31.24,75.1-69.69,75.1
		C643.96,148.8,625.33,141.79,611.11,129.17z M669.19,102.74c-18.22-10.21-36.65-22.63-38.25-45.46c-1.8-0.4-4.61-0.6-8.21-0.6
		c-10.81,0-27.84,8.81-27.84,32.44c0,12.42,7.21,26.23,19.03,36.85c13.42,12.02,31.24,18.63,49.87,18.63
		c36.05,0,65.49-31.84,65.49-70.9c0-39.05-29.44-69.29-65.49-69.29c-34.25,0-61.48,25.03-65.09,60.08
		c6.81-8.41,16.62-12.02,24.03-12.02c3.6,0,6.21,0.2,8.21,0.6c0.2-19.23,15.22-34.04,35.05-34.04c10.61,0,17.82,4.81,18.02,5.01
		l-2.4,3.6c0,0-6.41-4.41-15.62-4.41c-17.62,0-30.44,13.02-30.64,30.84c0,8.41,0.8,21.23,19.23,34.45
		c5.61,4.01,11.21,7.61,16.62,10.61L669.19,102.74z"/>
	<path d="M735.48,135.38V82.71c0-7.81,2.6-11.82,8.01-12.02c2.2-34.65,26.64-62.28,61.28-67.89c5.61-0.8,10.81-1.2,15.82-1.2
		c16.62,0,29.04,4.81,34.25,14.22c2.2,3.8,3.6,7.81,3.6,12.42c0,6.21-2.6,13.42-9.01,23.23c10.01,0.8,17.42,6.01,23.43,13.42
		c5.61,7.21,8.61,17.02,8.61,27.84c0,31.64-26.64,56.88-67.09,56.88c-14.62,0-30.24-4.41-41.46-12.42l-2.4,3
		c-2.2,2.6-4.61,4.01-6.81,4.01c-1.4,0-2.8-0.2-3.8-1.4c-1.2,1-2.4,1.4-3.6,1.4c-1.6,0-3.2-0.6-4.41-2c-0.4,1-2,2-3.2,2
		c-1.4,0-2.6-0.6-3.6-1.6c-1,1.2-2.4,1.6-3.4,1.6C738.69,144.19,735.48,141.79,735.48,135.38z M750.7,136.78l0.2-8.01h3.2l0.2,8.01
		c0,2.4,0.6,3.2,2,3.2c1.8,0,2-1.8,2-3.2l0.2-8.01h3.2l0.2,7.81c0,2.2,1,3.4,2,3.4c1.4,0,2.2-0.8,3.4-2.4l2.2-3
		c-2-1.6-4.01-3.4-5.81-5.41c-13.22-13.42-20.43-32.44-20.43-53.47v-0.8c-1.4,0.2-3.6,0.8-3.6,7.81v53.67c0,2.2,0.6,3.6,2,3.6
		c1,0,1.8-1,1.8-3l0.2-8.21h3.2v8.01c0,2.8,0.8,3.2,1.8,3.2C750.1,139.99,750.7,138.59,750.7,136.78z M811.98,109.15
		c0,0,0-7.41-3.81-16.62c-7.01-17.02-25.03-21.43-34.45-21.43v-4.21c4.61,0,9.81,1,14.62,2.6c1-19.83,10.41-39.25,19.03-44.26l2,3.6
		c-6.41,3.8-16.42,22.43-16.82,42.26c5.21,2.4,10.01,6.01,13.82,10.61c4.61-15.82,18.42-30.44,38.05-30.64
		c7.41-10.41,9.61-17.62,9.61-23.03c0-4.21-1.4-7.41-3-10.21C846.83,10.01,835.81,5.61,821,5.61c-4.81,0-10.01,0.6-15.62,1.4
		c-34.05,5.41-57.88,33.64-57.88,68.69c0,40.25,27.24,69.69,66.89,69.69c38.05,0,62.88-23.43,62.88-52.67
		c0-18.02-8.61-37.45-32.64-37.45c-21.23,0-32.24,18.02-35.05,31.04c1,1.4,1.6,3,2.4,4.61c4.21,10.01,4.21,18.02,4.21,18.22H811.98z
		"/>
	<path d="M942.36,147c-3.4,0-5.81-0.8-6.41-1.6h-51.07l-0.2-113.15C884.68,11.22,900.9,0,916.93,0h35.85c3.8,0,10.81,1.2,10.81,6.61
		c0,1.4-0.8,3-2.2,4c1.4,1.2,2.6,2.8,2.6,4.61c0,1.6-0.8,3-2.4,4.01c1.4,1,2.4,2.6,2.4,4.41c0,5.01-6.21,6.21-10.61,6.21h-4.41
		v13.22c13.62-14.42,22.03-23.43,40.85-23.43c20.03,0,29.64,21.83,31.64,40.45c2,17.22,6.41,56.28,6.41,68.09
		c0,11.22-3.2,18.83-18.62,18.83H942.36z M940.96,124.77c-2,0-2.8,1-2.8,2c0,1,0.8,1.8,3,1.8h9.41v3.2h-9.61c-2,0-2.8,1-2.8,2
		c0,1,1,2,3.2,2h9.21v3.2h-9.01c-2.8,0-3.4,1.4-3.4,2.2c0,1.2,1.6,1.6,3.4,1.6h67.69c12.22,0,14.42-4.81,14.42-14.62
		c0-11.41-4.61-51.67-6.41-67.49c-2-17.02-10.21-36.85-27.44-36.85c-15.62,0-25.03,9.01-36.85,21.23l-9.61,10.01l-3-3
		c1.6-1.4,3-2.8,4.41-4.41V25.63h9.61c4.01,0,5.41-0.8,5.41-2.2c0-1.6-1.4-2.6-4.41-2.6l-10.61-0.2v-3.2l10.81-0.2
		c2.2,0,4.21-0.8,4.21-2.2s-1-2.6-5.61-2.6h-9.41v-3.2l10.01-0.2c2.6,0,4.61-0.6,4.61-2.2c0-1.8-2.2-2.4-5.41-2.4h-37.05
		c-9.61,0-28.04,5.81-28.04,27.84l0.2,108.94h44.66c0-1.2,0.8-3,2-3.6c-1-1.2-1.6-2-1.6-3.8c0-1.8,1-2.8,1.6-3.2
		c-0.8-0.8-1.6-2.4-1.6-3.8c0-1.6,0.6-3,1.6-4.01c-1-1-1.6-2.4-1.6-3.4c0-3.8,2.6-6.21,7.41-6.21h3.2V98.93
		c-13.82-0.6-28.44-8.61-33.85-18.62l3.81-2c4.81,9.01,19.23,16.42,31.84,16.42c24.03,0,40.65-14.62,40.65-35.85h4.21
		c0,17.82-11.42,32.04-28.44,37.65v20.83h-21.43c-1.6,0-3.4,0.4-3.4,1.8c0,1.4,1.4,2.4,3.4,2.4h9.01v3.2H940.96z M949.17,113.15
		h9.61V97.73c-3.2,0.6-6.41,1.2-9.61,1.2V113.15z"/>
	<path d="M1027.07,88.32V39.45h-2.4c-2.8,0-4.61-0.4-6.21-1.2c-1.6-1-2.6-2.6-2.6-4.2c0-1.4,0.6-2.8,1.8-3.8
		c-1.6-1.2-1.8-2.8-1.8-4.21c0-1.4,0.6-2.8,1.8-3.8c-1.2-1-1.8-2.4-1.8-3.8c0-1.4,0-3,1.8-4.21c-1-1.2-1.6-2.6-1.6-4.01
		c0-1.6,1-3.2,2.4-4.21c1.6-1,3.6-1.4,6.21-1.4h42.26c11.42,0,15.42,6.61,15.42,12.62v18.02c1,0,2.2,0,3.4,0.2
		c0.2-1.6,0.2-2.8,0.8-5.21c3.2-13.62,14.42-21.43,30.44-21.43c31.64,0,32.64,31.04,32.64,34.45v51.87
		c0,31.44-30.24,53.27-63.28,53.27C1051.3,148.4,1027.07,125.17,1027.07,88.32z M1046.1,67.69c0-6.61,2-13.62,6.01-19.03
		c4.01-5.81,11.82-12.62,26.03-13.22V17.22c0-5.21-4.01-8.41-11.21-8.41h-42.66c-2.2,0-4.01,0.4-4.01,1.8c0,1.4,1.4,2.8,4.01,2.8
		h7.01v3.2h-7.61c-1.2,0-3.4,0.4-3.4,2c0,1,0,2.2,3.8,2.2h7.21v3.2h-7.41c-2.6,0-3.6,1.2-3.6,2c0,1.4,1,2.2,3.6,2.2h7.41v3.2h-7.21
		c-2.6,0-3.8,1-3.8,2.2c0,1,1.2,1.6,3.6,1.6h7.41v53.07c0,41.25,28.44,55.87,55.07,55.87c32.44,0,58.88-20.03,58.88-49.07V43.26
		c0-3-0.8-30.24-28.24-30.24c-13.82,0-22.63,6.81-26.44,18.42c-0.6,1.8-0.8,4.01-0.8,4.81c17.02,4.21,21.83,19.23,21.83,19.43
		l-4.01,1.2c-0.2-0.6-5.61-17.42-26.84-17.42c-14.02,0-21.43,6.41-25.23,11.62c-3.6,5.21-5.21,11.22-5.21,16.22
		c0,2.6,0.4,5.21,1.2,7.21l-4.21,1.4C1046.5,73.3,1046.1,70.49,1046.1,67.69z"/>
	<path d="M1171.86,136.38c-13.22-9.81-20.23-23.83-20.23-40.65c0-24.23,15.62-40.05,39.85-40.05c7.81,0,14.82,2,20.83,5.41V39.25
		h-1.4c-2.6,0-4.61-0.6-6.21-1.8c-1.6-1.2-2.4-2.8-2.4-4.41c0-1.4,0.6-2.8,1.6-3.8c-1-1-1.6-2.4-1.6-3.81c0-1.4,0.6-2.8,1.6-3.8
		c-1-1-1.4-2.4-1.4-3.6c0-1.4,0.6-3,2-4.01c-1.4-1.2-2-2.8-2-4.41c0-1.8,0.8-3.2,2.4-4.2c1.4-1,3.4-1.4,6.01-1.4h47.46
		c13.22,0,13.22,9.41,13.22,12.62v78.51c0,21.23-10.61,33.84-19.63,40.85c-10.61,8.21-25.23,13.02-39.65,13.02
		C1197.5,149,1182.88,144.39,1171.86,136.38z M1216.52,39.25v24.63c2,1.6,3.8,3.61,5.61,5.61c1.2,1.6,2.4,3.2,3.41,5.01
		c4.21-2.8,10.01-4.81,16.62-4.81c3.6,0,7.61,0.6,11.62,2l-1.4,3.8c-3.61-1.2-7.21-1.8-10.21-1.8c-6.41,0-11.62,2.2-14.82,4.61
		c3.61,7.61,5.41,17.02,5.41,27.64h-4.21c0-28.84-13.82-46.06-37.05-46.06c-26.24,0-35.65,18.63-35.65,35.85
		c0,36.05,33.84,49.07,56.47,49.07c27.24,0,55.07-17.02,55.07-49.67V16.62c0-5.21-1.6-8.41-9.01-8.41h-47.86c-1.4,0-3.8,0.4-3.8,2
		c0,1.2,1.2,2.4,3.8,2.4h10.41v3.2h-10.41c-2.6,0-3.8,1-3.8,2.2s1.2,2,3.8,2h10.41v3.2h-10.41c-3.2,0-4.01,1-4.01,2.2
		c0,1.6,2,2.2,4.21,2.2h10.21v3.2h-10.61c-3,0-3.8,1-3.8,2.2c0,1.6,2.4,2,3.8,2h10.61v4.2H1216.52z"/>
</g>
</svg>
