<svg id="Layer_1" data-name="Layer 1" xmlns="http://www.w3.org/2000/svg" viewBox="0 0 479.18 150"><path d="M52.91,125.44c-31.65,0-39.06-3.79-39.06-13.68,0-12.69,17.47-23.9,59.34-36.1A61.88,61.88,0,0,0,75.33,60c0-1.65-.17-3.46-.33-5.11-2.64,0-5,.16-7.42.16-20.93,0-27.85-18.62-47.8-18.62A31,31,0,0,0,8.41,38.57C5.27,46.48,4.12,54.4,3.3,63.46a66.27,66.27,0,0,1,20.6-3.62c8.57,0,16.65,2.47,27,7.91C11.21,71.21,0,90.33,0,112.25A37.7,37.7,0,0,0,37.58,150a64.52,64.52,0,0,0,14.18-1.81c4.94-1,9.89-3.3,15.82-3.3a23.4,23.4,0,0,1,12.2,3.46l.66-.33C80.44,132.86,72.53,125.44,52.91,125.44Z"/><path d="M28.68,108.3c2.8,6.59,10.22,10.71,17.64,11.37A26.32,26.32,0,0,0,57.53,101c-7.09-.49-13.19-4.61-17-7.25A43.36,43.36,0,0,1,28.68,108.3Z"/><path d="M190.22,27.2A26.26,26.26,0,0,0,201.43,8.57c-7.09-.49-13.19-4.61-17-7.25-2.31,4.28-5.93,10-11.87,14.5C175.39,22.42,182.8,26.54,190.22,27.2Z"/><path d="M246.27,15.33c-4.29-1.48-7.92-4.12-10.55-5.93a40.42,40.42,0,0,1-11.21,14.17c2.64,6.43,9.72,10.39,16.65,11A26.87,26.87,0,0,0,248.74,26a23.08,23.08,0,0,0,10.38,3.63,25.91,25.91,0,0,0,10.55-18.13c-6.59-.5-12.36-4.45-16-7.09A43.82,43.82,0,0,1,246.27,15.33Z"/><path d="M235.72,59.84c8.9,4.28,15.66,10,19.45,19.12-4.95,2.47-13,3.62-24.73,3.62h0c-16.15,0-20.77-1.48-26.54-4.45C214.78,67.58,222.53,56.21,222.53,48c0-12.2-15.5-14.18-22.58-14.18-13.19,0-28.85,4.29-41.38,11.54-3,4.12-5.11,10.88-6.43,17.8,12.7.17,21.6,8.24,28.36,16.32-9.56,3-18.14,3.13-30.66,3.13h0c-1.49,0-5.28.17-10.39.17C137,65,129.23,50.44,117.36,50.44c-10.55,0-23.24,17.64-23.24,34.12,0,12.2,7.25,18.3,33.79,20.28-3.46,6.75-10.55,9.23-19.94,9.23-6.27,0-12.36-2.81-18.63-2.81-8.07,0-14.83,2.64-19.45,9.23l.33.66c13.52,3.14,15.83,15.17,36.59,15.17,19.46,0,29.35-16.81,32.48-31,3.29.16,6.76.16,10.55.16h0c14.83,0,28.51-5.44,40.88-14.83,12.52,10.71,22.25,14.83,39.72,14.83h0c10.88,0,25.55-3.95,32.47-11.53,3.14-3.14,4.29-8.41,4.29-14.67,0-11.87-4.29-27.53-8.74-39.4A66.67,66.67,0,0,0,235.72,59.84ZM118,82.75c-6.1,0-11.21-.66-11.21-5.11,0-3.79,3.14-7.75,6.1-7.75,4.62,0,10.72,5.44,14.34,12.86Zm76.49-10.88c-5.94-4.45-13.35-9.56-21.43-12.36,5.93-2,14.67-3.14,22.25-3.14A44.13,44.13,0,0,1,207,57.69,77.79,77.79,0,0,1,194.51,71.87Z"/><path d="M350.77,36.59v-1c-9.4-.49-17-2.8-23.24-8.4-6.26,6.76-11.54,15-14,23.9,23.9,8.08,32.14,18.95,35.27,27.69-9.89,4.78-21.43,5.44-28.68,5.44-7.58,0-10.22-2.64-10.22-7.42a18.34,18.34,0,0,1,.83-5.27l-1.49-.5C303,80,301.15,86,301.15,93c0,8.9,7.26,14.34,18.63,14.34,16.16,0,38.74-8.41,38.74-25.55,0-15.66-7.91-30.5-17.47-42.36Z"/><path d="M478.85,62.31c-2.48,0-5,.16-7.42.16-20.61,0-27.36-18.29-47-18.29a29.19,29.19,0,0,0-10.38,2.3c-3.14,7.92-4.29,15.66-4.78,24.73a58.87,58.87,0,0,1,19.28-3.63c8.74,0,17.14,2.64,28.52,8.74-3.3-.33-6.43-.66-9.23-.66-18,0-27.53,6.92-44.18,6.92-11.7,0-12-20.44-12-43.35,0-13.35.66-27.53.66-39.23-11.37,6.92-19,17-23.9,26.87,5.27,28.68,2.64,78.62,35.27,78.62h0c33.13,0,23.57-19.28,73.35-22.41a61.89,61.89,0,0,0,2.15-15.66C479.18,65.77,479,64,478.85,62.31Z"/><path d="M431.37,114.73c2.81,6.59,10.22,10.71,17.64,11.37a26.29,26.29,0,0,0,11.21-18.63c-7.09-.49-13.19-4.61-17-7.25A43.46,43.46,0,0,1,431.37,114.73Z"/></svg>