<?xml version="1.0" encoding="utf-8"?>
<!-- Generator: Adobe Illustrator 24.2.3, SVG Export Plug-In . SVG Version: 6.00 Build 0)  -->
<svg version="1.1" id="Layer_1" xmlns="http://www.w3.org/2000/svg" xmlns:xlink="http://www.w3.org/1999/xlink" x="0px" y="0px"
	 viewBox="0 0 1213.64 150" style="enable-background:new 0 0 1213.64 150;" xml:space="preserve">
<g>
	<path d="M73.3,93.56L47.54,49.43c-4.36-7.39-8.71-19.32-8.71-27.46C38.83,12.31,43.75,0,59.66,0c10.61,0,22.92,6.63,22.92,28.22
		v71.59c0,33.52-5.3,50-34.47,50C19.13,149.81,0,129.73,0,110.04c0-25,15.15-47.35,28.41-47.35c11.93,0,18.18,11.55,9.66,20.45
		l-25.19,26.33c-7.2,7.77-1.89,15.34,5.49,13.83l50.57-10.04C76.7,111.74,79.36,103.98,73.3,93.56z"/>
	<path d="M209.09,150c-13.07,0-21.21-10.42-15.34-23.48c3.41-7.58,8.52-12.69,11.17-15.91c3.79-4.73,5.87-8.33,5.87-10.8
		c0-3.41-1.89-4.73-4.17-4.73c-3.22,0-6.63,1.52-10.61,2.65l-51.89,15.91c-7.77,2.46-11.55,5.11-14.02,9.47l-6.82,12.31
		c-5.49,10.04-13.07,14.39-21.02,14.39c-7.2,0-15.91-4.36-15.91-15.91c0-6.63,4.17-13.45,8.52-20.26l61.36-95.08
		c9.85-15.15,15.91-18.18,25.57-18.18c9.09,0,18.37,5.11,21.78,18.18l24.43,93.75c1.51,5.49,3.03,11.36,3.03,15.72
		C231.06,141.29,220.45,150,209.09,150z M191.86,24.43c0-7.95-5.3-12.12-11.93-12.12c-7.76,0-10.23,5.49-13.07,14.02l-19.13,56.82
		c-3.6,10.61-1.89,16.1,1.7,17.8c4.92,2.27,9.85,0.95,12.88-5.87l23.86-53.41C188.64,35.99,191.86,29.17,191.86,24.43z"/>
	<path d="M368.37,75.95c0,48.67-27.65,73.86-85.42,73.67c-48.86-0.19-58.71-45.64-39.96-83.71L250,51.7
		c3.22-6.63,0.38-9.47-8.14-10.98c-10.61-1.89-15.53-9.09-15.53-17.8c0-9.85,6.63-19.89,19.13-19.89h65.72
		C352.27,3.03,368.37,29.55,368.37,75.95z M324.62,24.62l-47.35,9.09c-16.1,3.03-21.59,11.55-17.99,24.43l19.51,68.56
		c5.49,19.51,26.52,15.91,32.39,1.89l32.76-78.98C351.52,31.25,339.02,21.78,324.62,24.62z"/>
	<path d="M487.12,10.8c-1.7,0-3.79,0.95-5.68,3.03L460.23,37.5c-17.42,19.32-45.45,8.33-45.45-13.45c0-9.66,6.25-21.02,25.95-21.02
		h64.77c34.28,0,55.11,18.94,55.11,45.27c0,11.74-9.09,22.16-21.21,22.54c-17.24,0.57-22.73-11.93-22.73-38.07v-8.33
		c0-8.33-1.89-14.58-8.33-14.58c-5.11,0-7.2,4.92-7.39,16.86l-2.08,92.61c-0.38,20.08-4.17,30.49-22.35,30.49
		c-20.26,0-24.43-14.58-16.67-35.23l30.49-88.64C494.13,15.15,492.24,10.8,487.12,10.8z"/>
	<path d="M562.5,74.62c0-49.62,23.11-74.43,67.05-74.43c44.13,0,67.23,24.81,67.23,74.43c0,49.62-23.11,75.19-67.23,75.19
		C585.61,149.81,562.5,124.24,562.5,74.62z M678.22,53.03l-71.78-28.79c-15.15-6.06-27.08,3.79-21.59,21.59l25.57,81.63
		c3.03,9.85,15.15,14.39,22.35,5.87l50-60.42C689.21,65.15,687.31,56.63,678.22,53.03z"/>
	<path d="M757.39,46.21c7.2,9.09,6.44,19.13-5.11,26.89l-30.49,20.83c-14.2,9.66-1.7,32.76,12.88,24.05l80.11-47.73
		c18.18-10.8,31.82-4.36,32.58,11.17l1.89,39.77c0.95,20.45-8.33,28.6-22.35,28.6c-14.02,0-25.19-14.58-12.69-33.71l20.26-31.25
		c3.98-6.06-0.76-10.42-4.92-10.42c-3.6,0-6.44,0.38-13.26,9.47l-31.06,40.53c-14.58,19.13-22.54,25.38-39.58,25.38
		c-22.35,0-43.18-24.24-43.18-72.16c0-49.24,29.73-77.46,72.73-77.46c35.98,0,59.85,11.74,65.72,31.82
		c5.3,17.8-20.64,28.98-32.58,13.26l-21.02-27.65c-6.25-8.14-18.56-12.12-29.92-7.2c-13.26,5.68-12.5,20.08-5.49,28.79L757.39,46.21
		z"/>
	<path d="M994.32,18.56l-11.36,105.3c-1.52,13.64-6.25,25.95-26.52,25.95c-12.69,0-19.51-9.85-19.51-19.51
		c0-6.06,1.51-13.07,10.42-21.4l17.61-16.67c4.17-3.79,5.68-8.14,5.68-11.17c0-5.3-6.82-5.68-13.26-4.17l-71.97,14.2
		c-8.33,1.7-9.85,3.79-9.85,6.63c0,4.55,5.11,7.95,9.85,13.07c6.06,6.63,9.28,13.45,9.28,19.51c0,10.98-10.98,19.51-22.35,19.51
		c-10.8,0-21.02-6.63-19.13-24.62l10.04-93.37c1.51-13.64,6.82-31.63,27.08-31.63c12.88,0,20.26,7.2,20.26,17.42
		c0,8.52-4.73,15.72-11.36,19.51l-21.59,12.31c-5.68,3.22-6.63,6.06-6.63,9.66c0,5.11,4.55,7.77,10.98,7.77h80.49
		c7.76,0,11.93-1.89,13.07-7.39c1.33-6.25-2.46-8.52-6.06-12.5l-8.14-9.28c-5.87-6.82-9.28-12.88-9.28-18.75
		c0-10.42,7.01-18.75,22.35-18.75C985.23,0.19,995.46,7.2,994.32,18.56z"/>
	<path d="M1063.07,61.17c-15.15-16.48,0.38-34.47,19.13-19.32l21.97,17.8c3.98,3.22,7.39,1.89,8.9,0.38
		c2.08-2.08,3.41-5.3-0.38-9.66l-10.98-12.69c-8.33-9.66-12.5-14.58-12.5-21.59c0-9.09,6.44-15.91,17.24-15.91
		c13.64,0,18.94,8.52,18.94,25v71.02c0,36.55-21.78,53.6-62.88,53.6c-38.26,0-64.39-22.73-64.39-58.71V29.73
		c0-21.02,7.77-29.55,22.16-29.55c20.27,0,25.19,21.78,16.1,35.23l-23.3,34.47c-7.77,11.55-5.11,21.78,6.06,27.46l53.79,27.65
		c16.29,8.33,26.32,7.2,32.01-0.76c5.68-7.95,1.14-16.67-3.22-21.21L1063.07,61.17z"/>
	<path d="M1204.36,93.56l-25.76-44.13c-4.36-7.39-8.71-19.32-8.71-27.46c0-9.66,4.92-21.97,20.83-21.97
		c10.61,0,22.92,6.63,22.92,28.22v71.59c0,33.52-5.3,50-34.47,50c-28.98,0-48.11-20.08-48.11-39.77c0-25,15.15-47.35,28.41-47.35
		c11.93,0,18.18,11.55,9.66,20.45l-25.19,26.33c-7.2,7.77-1.89,15.34,5.49,13.83l50.57-10.04
		C1207.77,111.74,1210.42,103.98,1204.36,93.56z"/>
</g>
</svg>
