<?xml version="1.0" encoding="utf-8"?>
<!-- Generator: Adobe Illustrator 24.2.3, SVG Export Plug-In . SVG Version: 6.00 Build 0)  -->
<svg version="1.1" id="Layer_1" xmlns="http://www.w3.org/2000/svg" xmlns:xlink="http://www.w3.org/1999/xlink" x="0px" y="0px"
	 viewBox="0 0 816.35 150" style="enable-background:new 0 0 816.35 150;" xml:space="preserve">
<g>
	<path d="M95.04,44.04c0,0-12.31,0-12.31,19.89v38.68c0,37.89-27.78,47.99-45.94,47.36C14.37,149.18,0,133.08,0,133.08l3.95-4.1
		c0,0,11.21,8.68,25.1,8.68c22.89,0,28.73-19.26,28.73-35.05l0.16-38.68c0-19.89-14.05-19.89-14.05-19.89v-4.58h51.15V44.04z
		 M69.62,0C61.57,0,55.1,6.47,55.1,14.37c0,8.05,6.47,14.52,14.52,14.52c7.89,0,14.37-6.47,14.37-14.52C83.98,6.47,77.51,0,69.62,0z
		"/>
	<path d="M174.28,113.82v4.58h-37.57v-7.26c0,0-7.42,9.47-24.31,9.47c-14.52,0-26.05-11.37-26.05-24.47
		c0-16.1,10.58-22.89,26.21-22.89c11.68,0,21.94,6.95,21.94,6.95l-3.47,4.42c0,0-3.16-2.21-9.47-2.21c-5.37,0-12.47,2.37-12.47,9.95
		c0,6.63,6.16,9.95,10.89,9.95c8.21,0,16.73-5.21,16.73-18.94V77.2c0-13.58-5.37-24.31-15-24.31c-6,0-9.16,3.47-9.16,6.79
		c0,3.95,3.63,5.21,6.16,5.21v4.74c-4.58,0-16.89-1.58-16.89-14.05c0-11.68,12-17.52,26.36-17.52c12.79,0,33.15,5.84,33.15,36.62
		V87.3C161.34,113.82,174.28,113.82,174.28,113.82z"/>
	<path d="M227.26,118.4v-4.74c-5.68,7.1-15.16,9.31-23.36,9.31c-19.1,0-38.36-16.73-38.36-44.99c0-20.05,12.95-40.1,30.15-40.1
		c21.15,0,23.05,24.15,23.05,34.1h-4.89c0-8.05-1.11-17.21-9-17.21c-8.21,0-13.1,12.63-13.1,23.21c0,10.73,2.68,26.52,15,26.52
		c10.73,0,16.1-15.31,16.26-40.1v-5.53c0-46.41-15.15-46.41-15.15-46.41V7.89h55.25v4.58c0,0-18.79,0-18.79,50.67
		c0,50.68,18.79,50.68,18.79,50.68v4.58H227.26z"/>
	<path d="M365.52,92.98h-4.58c0-14.84,0-39.47-17.05-39.47h-0.47c0,3-0.16,6.16-0.16,9.63c0,50.68,18.94,50.68,18.94,50.68v4.58
		h-62.67v-4.58c0,0,19.1,0,19.1-50.68c0-3.47,0-6.63-0.16-9.63H318c-17.05,0-17.05,24.63-17.05,39.47h-4.58l-7.1-70.88h4.58
		c0,0,0.47,17.05,23.52,17.37c0-22.26-12.79-22.26-12.79-22.26v-4.58h52.73v4.58c0,0-12.79,0-12.79,22.26
		c23.05-0.32,23.52-17.37,23.52-17.37h4.58L365.52,92.98z"/>
	<path d="M465.61,79.09c0,22.26-18.94,43.89-48.15,43.89c-24.94,0-46.41-21.63-46.41-46.57c0-29.36,24.31-43.73,47.83-43.73v4.58
		c-15.79,0-32.05,12.16-32.05,31.1c0,18.47,13.42,31.1,30.63,31.1c13.73,0,24-10.42,24-21.94c0-10.26-7.89-18.31-16.89-18.31
		c-7.89,0-14.68,4.26-14.68,13.89c0,6.79,6,9.16,6,9.16l-2.21,4.1c0,0-18.31-4.42-18.31-21.63c0-11.21,9.16-25.26,30.94-25.26
		C447.45,39.47,465.61,55.88,465.61,79.09z"/>
	<path d="M571.78,44.04c0,0-14.37,0-14.37,34.89c0,53.04-29.05,71.04-51.46,71.04c-23.52,0-36.78-16.89-36.78-16.89l3.95-4.1
		c0,0,8.05,8.68,21.94,8.68c25.42,0,38.83-19.26,38.83-42.94c0-24.78-5.68-41.52-21.15-41.52c-11.84,0-17.05,9-17.05,25.1
		c0,13.73,7.26,23.21,15.47,23.21c7.89,0,11.52-7.58,11.52-15.63h4.74c0,8.52,1.74,32.52-25.42,32.52
		c-17.21,0-32.52-15.31-32.52-40.89c0-22.89,15.63-39.47,38.52-39.47c6.47,0,16.1,1.42,21.15,7.74v-6.31h42.62V44.04z"/>
	<path d="M670,113.82v4.58h-50.36v-4.58c0,0,14.52,0,14.52-27.94c0-30.31-14.52-30.31-16.42-30.31c-2.05,0-16.58,0-16.58,28.57
		c0,29.68,14.52,29.68,14.52,29.68v4.58h-55.25v-4.58c0,0,18.79,0,18.79-50.68c0-50.67-18.79-50.67-18.79-50.67V7.89h53.67v4.58
		c0,0-10.58,0-13.42,34.57c5.05-5.84,12.63-9,24.94-9c23.68,0,31.57,16.1,31.57,47.83C657.22,113.82,671.58,113.82,670,113.82z"/>
	<path d="M701.58,39.47v4.58c0,0-14.52,0-14.52,27.94c0,30.31,14.52,30.31,16.42,30.31c2.05,0,16.58,0,16.58-30.31
		c0-27.94-14.52-27.94-14.52-27.94v-4.58h55.25v4.58c0,0-18.94,0.16-18.94,34.89c0,34.89,18.94,34.89,18.94,34.89v4.58h-35.84
		v-14.84c-1.11,5.21-12.63,16.26-30.94,16.26c-22.1,0-29.99-16.1-29.99-47.83c0-27.78-11.52-27.78-12.79-27.78v-4.74H701.58z"/>
	<path d="M816.35,44.04c0,0-12.31,0-12.31,19.89v38.68c0,37.89-27.78,47.99-45.94,47.36c-22.42-0.79-36.78-16.89-36.78-16.89
		l3.95-4.1c0,0,11.21,8.68,25.1,8.68c22.89,0,28.73-19.26,28.73-35.05l0.16-38.68c0-19.89-14.05-19.89-14.05-19.89v-4.58h51.15
		V44.04z M790.93,0c-8.05,0-14.52,6.47-14.52,14.37c0,8.05,6.47,14.52,14.52,14.52c7.89,0,14.37-6.47,14.37-14.52
		C805.3,6.47,798.83,0,790.93,0z"/>
</g>
</svg>
