<svg id="Layer_1" data-name="Layer 1" xmlns="http://www.w3.org/2000/svg" viewBox="0 0 454.75 150"><path d="M48.41,23.86H60.34v86.93C60.34,135.85,39.55,150,14,150a63.58,63.58,0,0,1-14-1.36V135.17c5.45,2.39,13.47,3.24,27.61,3.24,16.54,0,20.8-2.39,20.8-9.21ZM45.34,10.4H63.41V1.7H45.34Z"/><path d="M77.21,127.84c-6.47,0-9.88-3.92-9.88-12.1V104c0-13.81,7.16-19.26,20.62-31.88V40.57c0-5.46-1.36-6.82-7-6.82-8.86,0-11.08,3.75-11.08,9.72,0,7.15,2.9,13.46,16.88,27.61H70.4C67,62.9,66,53.18,66,45.34c0-10.74,8.36-23.18,19.09-23.18,9.89,0,14.83,5.28,14.83,14V106c0,9.21,1.71,10.23,3.58,10.23,1.54,0,2.73-1,2.9-6.65l.51-29.83h2.39l.51,29.15c.17,10.74-1.53,18.92-9.54,18.92-7,0-10.06-4.94-8-29.15l-1.7-.34C88,123.75,83.69,127.84,77.21,127.84Zm5-12.44C85.91,115.4,88,105,88,89.32V75.68c-7.5,7.16-8.69,11.42-8.69,18.58v17C79.26,114.37,80.45,115.4,82.16,115.4Z"/><path d="M116,51.14c0-20.46,4.94-29,15.85-29,4.26,0,8,2.21,11.76,5.62l1-1-4.27-4.43V1.7H152.3V126.14H140.53v-1.88l3.92-25.91-1.7-.34c-3.58,25.57-9.37,29.83-15.85,29.83-6.31,0-10.91-5.28-10.91-13.81Zm12.27,56.25c0,6.13,1.54,8.86,4.43,8.86,3.75,0,7.67-11.59,7.67-27.27V36.48A10.16,10.16,0,0,0,133,33.07c-3.23,0-4.77,2.38-4.77,17Z"/><path d="M196.87,32.56V102.1c0,12.27,3.06,14.15,6,14.15,4.09,0,5.46-4.26,5.8-15.68l.51-21.82h2.39l.51,22.33c.34,15.17-4.27,26.76-14,26.76-8.69,0-13.13-5.28-13.13-19.94V32.56h-7.84v-8.7h7.84V7c3.92-.85,9-2.9,11.77-7l1.87.51L195,22.5l.85,1.36H211.7v8.7Z"/><path d="M235.64,127.84c-10.74,0-16.53-5.28-16.53-19.94V45.17c0-16.7,8.52-23,18.58-23,10.91,0,16.53,5.28,16.53,19.94v62.73C254.22,121.53,245.7,127.84,235.64,127.84Zm0-94.09c-3.75,0-4.6,3.75-4.6,9.72V102.1c0,12.27,3.07,14.15,6.65,14.15,3.75,0,4.6-3.75,4.6-9.72V47.9C242.29,35.62,239.05,33.75,235.64,33.75Z"/><path d="M303.48,43.47c-9.89-14.15-15.85-16.54-23.86-16.71v2c9.37,1.19,15.85,7.5,15.85,18.41V84c0,16-8.52,22.16-18.58,22.16a16.91,16.91,0,0,1-7.5-1.36c-2.9,2.73-5.28,5.62-5.28,7.33,0,1.53,1,2.39,4.26,2.39h18.07c10.56,0,15.51,3.57,15.51,10.56,0,9-16.37,23.19-30.51,23.19-10.23,0-14.32-5.29-14.32-10.4,0-6.14,3.75-10.06,8.35-12.1v-1c-3.92-1-6.65-3.24-6.65-7.67,0-5.79,4.94-10,7.84-13.63-4.09-3.07-6.3-8.53-6.3-17.22V46.87c0-16.7,8.52-23,18.58-23h24.54Zm-17,82.67h-16.2c-2.72,1.36-3.58,3.06-3.58,4.94,0,3.41,2.56,6.31,15.86,6.31,7.84,0,11.07-1.37,11.07-4.78C293.59,128.52,292.23,126.14,286.44,126.14Zm-2.9-76.54c0-12.27-3.24-14.15-6.65-14.15-3.75,0-4.6,3.75-4.6,9.72V81.82c0,12.27,3.07,14.15,6.65,14.15,3.75,0,4.6-3.75,4.6-9.72Z"/><path d="M319.07,1.7v24L315,51.65l1.71.34c3.58-25.57,9.37-29.83,15.85-29.83,6.31,0,10.91,5.28,10.91,13.81v90.17H331.52V42.61c0-6.13-.85-8.86-4.09-8.86-4.78,0-8.36,11.76-8.36,27.78v64.61H307.14V1.7Z"/><path d="M375.15,126.14v-1.88l4.09-25.91-1.7-.34c-3.58,25.57-9.38,29.83-15.85,29.83-6.31,0-10.91-5.28-10.91-13.81V23.86h11.93v83.53c0,6.13.85,8.86,4.09,8.86,4.77,0,8.35-11.76,8.35-27.61V23.86h11.93V126.14Z"/><path d="M394.41,23.86h11.93v86.93c0,25.06-20.79,39.21-46.36,39.21a63.58,63.58,0,0,1-14-1.36V135.17c5.46,2.39,13.47,3.24,27.61,3.24,16.54,0,20.8-2.39,20.8-9.21ZM391.34,10.4h18.07V1.7H391.34Z"/></svg>