<?xml version="1.0" standalone="no"?>
<!DOCTYPE svg PUBLIC "-//W3C//DTD SVG 1.1//EN" "http://www.w3.org/Graphics/SVG/1.1/DTD/svg11.dtd" >
<svg xmlns="http://www.w3.org/2000/svg" xmlns:xlink="http://www.w3.org/1999/xlink" version="1.1">
<metadata></metadata>
<defs>
<font id="karrikitalic" horiz-adv-x="1323" >
<font-face units-per-em="2048" ascent="1536" descent="-512" />
<missing-glyph horiz-adv-x="450" />
<glyph unicode="&#xfb01;" horiz-adv-x="1019" d="M16 0l230 799h-123l63 225h123l49 168q28 99 108 160t187 61q88 0 156 -41l-66 -225q-26 33 -81 33q-82 0 -105 -78l-22 -78h143l-64 -225h-143l-229 -799h-226zM512 0l291 1024h237l-290 -1024h-238zM844 1167l69 246h238l-70 -246h-237z" />
<glyph unicode="&#xfb02;" horiz-adv-x="1042" d="M16 0l230 799h-123l63 225h123l49 168q28 99 108 160t187 61q88 0 156 -41l-66 -225q-26 33 -81 33q-82 0 -105 -78l-22 -78h143l-64 -225h-143l-229 -799h-226zM539 0l383 1393h233l-383 -1393h-233z" />
<glyph unicode="&#xfb03;" horiz-adv-x="1593" d="M16 0l230 799h-123l63 225h123l49 168q28 99 108 160t187 61q88 0 156 -41l-66 -225q-26 33 -81 33q-82 0 -105 -78l-22 -78h143l-64 -225h-143l-229 -799h-226zM590 0l229 799h-123l64 225h123l49 168q28 99 108 160t187 61q87 0 155 -41l-65 -225q-26 33 -82 33 q-82 0 -105 -78l-22 -78h143l-63 -225h-144l-229 -799h-225zM1085 0l291 1024h238l-291 -1024h-238zM1417 1167l70 246h237l-69 -246h-238z" />
<glyph unicode="&#xfb04;" horiz-adv-x="1615" d="M16 0l230 799h-123l63 225h123l49 168q28 99 108 160t187 61q88 0 156 -41l-66 -225q-26 33 -81 33q-82 0 -105 -78l-22 -78h143l-64 -225h-143l-229 -799h-226zM590 0l229 799h-123l64 225h123l49 168q28 99 108 160t187 61q87 0 155 -41l-65 -225q-26 33 -82 33 q-82 0 -105 -78l-22 -78h143l-63 -225h-144l-229 -799h-225zM1112 0l383 1393h234l-383 -1393h-234z" />
<glyph horiz-adv-x="0" />
<glyph horiz-adv-x="682" />
<glyph unicode="&#xd;" horiz-adv-x="0" />
<glyph unicode=" "  horiz-adv-x="450" />
<glyph unicode="&#x09;" horiz-adv-x="450" />
<glyph unicode="&#xa0;" horiz-adv-x="450" />
<glyph unicode="!" horiz-adv-x="512" d="M-35 0l82 287h287l-82 -287h-287zM123 442l248 951h286l-309 -951h-225z" />
<glyph unicode="&#x22;" horiz-adv-x="661" d="M145 797l150 596h237l-190 -596h-197zM483 797l150 596h237l-190 -596h-197z" />
<glyph unicode="#" d="M106 348l54 184h184l92 328h-184l53 184h184l101 349h213l-101 -349h209l101 349h213l-101 -349h185l-54 -184h-184l-92 -328h184l-53 -184h-184l-101 -348h-213l101 348h-209l-101 -348h-213l101 348h-185zM557 532h209l92 328h-209z" />
<glyph unicode="$" d="M66 311q0 87 36 146h258q-20 -53 -20 -115q0 -51 28.5 -92.5t86.5 -63.5l125 439q-64 23 -108.5 46t-89.5 61t-68 93.5t-23 128.5q0 167 142.5 296.5t371.5 156.5l43 149h184l-43 -147q165 -15 251.5 -91t86.5 -194q0 -87 -43 -172h-246q21 52 21 107q0 123 -125 158 l-113 -392q46 -16 74 -26.5t70.5 -30t69 -37t57 -45t47.5 -57.5t29 -70.5t12 -87.5q0 -146 -82.5 -257t-217 -169.5t-300.5 -64.5l-41 -144h-185l45 156q-169 28 -251 115.5t-82 203.5zM563 1020q0 -78 94 -129l95 330q-90 -20 -139.5 -74.5t-49.5 -126.5zM633 166 q123 10 195.5 76t72.5 149q0 63 -39 102t-114 70z" />
<glyph unicode="%" horiz-adv-x="1814" d="M160 862q0 140 66 267t181 205.5t246 78.5q126 0 200.5 -73.5t74.5 -215.5q0 -141 -68 -268t-184 -205t-248 -78q-123 0 -195.5 73.5t-72.5 215.5zM238 0l1222 1393h213l-1222 -1393h-213zM350 887q0 -131 123 -131q75 0 137 57t92.5 134t30.5 151q0 133 -125 133 q-76 0 -137.5 -57.5t-91 -135t-29.5 -151.5zM985 268q0 140 66.5 267t181.5 205.5t246 78.5q126 0 200 -73.5t74 -215.5q0 -141 -68 -268t-184 -204.5t-248 -77.5q-123 0 -195.5 73t-72.5 215zM1176 293q0 -131 122 -131q75 0 137 57t93 134.5t31 150.5q0 133 -125 133 q-76 0 -137.5 -57.5t-91 -135t-29.5 -151.5z" />
<glyph unicode="&#x26;" horiz-adv-x="1175" d="M-41 319q0 77 23 142t59 110.5t92 85.5t109 66t123 53q-35 93 -35 187q0 125 49.5 225.5t150.5 162.5t238 62q147 0 234.5 -78.5t87.5 -208.5q0 -73 -24.5 -134.5t-61.5 -104.5t-97 -82.5t-113 -64.5t-128 -54l129 -258q76 103 116 238h246q-87 -263 -262 -441l111 -225 h-279l-33 70q-161 -90 -334 -90q-189 0 -295 93.5t-106 245.5zM197 352q0 -69 49 -113t143 -44q114 0 217 61l-162 346q-119 -48 -183 -106t-64 -144zM563 983q0 -63 23 -127q61 23 103.5 44t80.5 49.5t57 64.5t19 80t-27 69t-80 25q-78 0 -127 -60t-49 -145z" />
<glyph unicode="'" horiz-adv-x="323" d="M145 797l150 596h237l-190 -596h-197z" />
<glyph unicode="(" horiz-adv-x="595" d="M47 68q0 384 139.5 712.5t397.5 581.5h204q-285 -316 -408.5 -615t-123.5 -686q0 -223 49 -399h-205q-53 207 -53 406z" />
<glyph unicode=")" horiz-adv-x="595" d="M-193 -338q285 316 409 615t124 686q0 223 -49 399h205q53 -207 53 -406q0 -384 -139.5 -712.5t-397.5 -581.5h-205z" />
<glyph unicode="*" horiz-adv-x="696" d="M160 989v164h205l-103 178l144 82l102 -176l102 176l144 -82l-103 -178h205v-164h-205l103 -178l-144 -82l-102 176l-102 -176l-144 82l103 178h-205z" />
<glyph unicode="+" horiz-adv-x="1409" d="M162 578l59 204h459l131 459h205l-131 -459h458l-59 -204h-459l-131 -459h-205l132 459h-459z" />
<glyph unicode="," horiz-adv-x="471" d="M-143 -287l45 144q153 0 196 143h-153l82 287h286l-77 -283q-41 -149 -135 -220t-244 -71z" />
<glyph unicode="-" horiz-adv-x="718" d="M18 420l54 184h628l-53 -184h-629z" />
<glyph unicode="." horiz-adv-x="471" d="M-55 0l82 287h286l-82 -287h-286z" />
<glyph unicode="/" horiz-adv-x="700" d="M-276 -229l1110 1726h213l-1110 -1726h-213z" />
<glyph unicode="0" d="M109 403q0 152 44 302.5t122.5 276.5t180 223.5t225 152.5t249.5 55q174 0 281.5 -109t107.5 -315q0 -189 -69.5 -374.5t-181.5 -324t-263.5 -224.5t-306.5 -86q-176 0 -282.5 108t-106.5 315zM371 469q0 -112 48 -175t138 -63q104 0 199.5 69t159.5 173t101.5 224 t37.5 225q0 114 -49 176.5t-140 62.5q-105 0 -200 -69t-158 -173.5t-100 -224.5t-37 -225z" />
<glyph unicode="1" d="M57 0l58 199h385l229 805h-326l48 163q89 0 159 12t116 31.5t81.5 50.5t55.5 61t38 71h184l-340 -1194h353l-58 -199h-983z" />
<glyph unicode="2" d="M27 0l59 205l580 411q93 66 149.5 111t104.5 96t69 99t21 102q0 75 -43 119.5t-131 44.5q-112 0 -195.5 -79.5t-124.5 -229.5h-246q56 247 240.5 390.5t419.5 143.5q169 0 267.5 -87.5t98.5 -227.5q0 -92 -35 -178t-101.5 -162.5t-145 -141t-183.5 -133.5l-362 -237h598 l-70 -246h-970z" />
<glyph unicode="3" d="M100 317q0 74 29 156h246q-17 -56 -17 -96q0 -78 50.5 -125t150.5 -47q140 0 225.5 77t85.5 193q0 162 -182 162h-115l54 184h135q112 0 187 57t75 162q0 66 -43.5 107t-132.5 41q-129 0 -209 -72t-107 -196h-245q13 136 102 249.5t229 178.5t300 65q186 0 283 -88 t97 -219q0 -128 -75 -221.5t-213 -147.5q137 -79 137 -250q0 -99 -48.5 -191.5t-131 -162t-201 -111.5t-250.5 -42q-106 0 -187.5 27t-130.5 74.5t-73.5 107t-24.5 128.5z" />
<glyph unicode="4" d="M70 332l59 205l872 856h246l-243 -856h243l-59 -205h-244l-94 -332h-246l94 332h-628zM385 537h373l141 495z" />
<glyph unicode="5" d="M143 289q0 93 47 196h226q-27 -71 -27 -125q0 -76 47.5 -115.5t136.5 -39.5q72 0 136 32t108 84t69 118t25 134q0 78 -44 125t-136 47q-88 0 -154.5 -42.5t-97.5 -94.5h-254q99 223 166 395.5t133 389.5h840l-70 -246h-630l-107 -289q131 78 299 78q152 0 235 -81.5 t83 -221.5q0 -108 -49.5 -222.5t-135.5 -210.5t-216 -158t-277 -62q-165 0 -259 81.5t-94 227.5z" />
<glyph unicode="6" d="M166 389q0 110 25.5 227.5t72.5 232t120.5 216.5t163.5 179.5t206.5 123t244.5 45.5q163 0 246.5 -79.5t83.5 -203.5q0 -49 -16 -108h-246q0 4 1 12.5t1 12.5q0 59 -35.5 100t-126.5 41q-113 0 -228 -103.5t-196 -289.5q173 153 396 153q149 0 231 -85t82 -228 q0 -117 -49 -233.5t-133 -210.5t-208 -152.5t-263 -58.5q-181 0 -277 113.5t-96 295.5zM430 340q0 -73 41.5 -116.5t124.5 -43.5q70 0 132 33.5t103.5 87t66 119t24.5 129.5q0 73 -41.5 116.5t-124.5 43.5q-70 0 -132 -33.5t-103.5 -87t-66 -119t-24.5 -129.5z" />
<glyph unicode="7" d="M229 0q49 182 143 363.5t207.5 328t223 259t215.5 196.5h-676l70 246h1044l-47 -164q-318 -201 -527.5 -502t-324.5 -727h-328z" />
<glyph unicode="8" d="M113 303q0 134 88 250.5t233 183.5q-80 73 -80 193q0 89 44.5 176t122 155t192 110t243.5 42q157 0 250.5 -74.5t93.5 -201.5q0 -125 -76 -231t-202 -171q121 -82 121 -246q0 -129 -83.5 -246t-231.5 -190t-322 -73q-178 0 -285.5 84t-107.5 239zM375 342 q0 -160 194 -160q128 0 219 81.5t91 189.5q0 74 -53.5 117.5t-141.5 43.5q-129 0 -219 -82t-90 -190zM612 981q0 -64 43 -99.5t125 -35.5q104 0 178 60.5t74 144.5q0 64 -43.5 99.5t-124.5 35.5q-103 0 -177.5 -61.5t-74.5 -143.5z" />
<glyph unicode="9" d="M115 262q0 50 16 109h246q-8 -73 29 -119.5t131 -46.5q113 0 228 103.5t196 289.5q-175 -154 -396 -154q-149 0 -231 86t-82 228q0 93 30.5 187.5t89 178t137 148.5t182 103t216.5 38q179 0 275 -112.5t96 -296.5q0 -110 -25.5 -227.5t-73 -232t-121 -216.5t-163 -179.5 t-206.5 -123t-245 -45.5q-163 0 -246 79t-83 203zM522 815q0 -73 41.5 -116.5t124.5 -43.5q70 0 132 33.5t103.5 87t66 119t24.5 129.5q0 73 -41.5 116.5t-124.5 43.5q-70 0 -132 -33.5t-103.5 -87t-66 -119t-24.5 -129.5z" />
<glyph unicode=":" horiz-adv-x="471" d="M-55 0l82 287h286l-82 -287h-286zM156 737l82 287h286l-82 -287h-286z" />
<glyph unicode=";" horiz-adv-x="471" d="M-143 -287l45 144q153 0 196 143h-153l82 287h286l-77 -283q-41 -149 -135 -220t-244 -71zM156 737l82 287h286l-82 -287h-286z" />
<glyph unicode="&#x3c;" horiz-adv-x="1409" d="M131 555l72 250l1233 432l-68 -238l-985 -331l795 -332l-62 -213z" />
<glyph unicode="=" horiz-adv-x="1409" d="M76 293l65 225h1123l-66 -225h-1122zM233 844l66 225h1122l-65 -225h-1123z" />
<glyph unicode="&#x3e;" horiz-adv-x="1409" d="M59 123l68 237l985 332l-795 332l62 213l987 -432l-72 -250z" />
<glyph unicode="?" horiz-adv-x="1021" d="M160 985q62 212 215.5 320t369.5 108q185 0 287.5 -78t102.5 -211q0 -74 -25.5 -137t-67 -108.5t-92 -86t-101 -76t-93 -70.5t-70.5 -79t-31 -92l-2 -33h-293l9 29q20 71 56.5 129.5t78 97.5t87 72.5t86.5 62.5t74.5 59.5t53.5 72t20 92.5q0 59 -37.5 93t-107.5 34 q-101 0 -171 -67t-87 -191zM246 0l82 287h286l-82 -287h-286z" />
<glyph unicode="@" horiz-adv-x="1753" d="M25 242q0 199 53.5 374.5t148.5 306t222.5 225.5t279.5 143t315 48q322 0 498 -167.5t176 -450.5q0 -141 -43 -275.5t-116.5 -237.5t-179 -165.5t-222.5 -62.5q-74 0 -116.5 30.5t-51.5 83.5q-50 -42 -138 -78t-194 -36q-135 0 -205.5 63.5t-70.5 161.5q0 160 157 260 t406 100h115l8 29q10 38 10 63q0 56 -35 88.5t-100 32.5q-79 0 -133.5 -39t-69.5 -104h-250q36 127 173.5 217t332.5 90q154 0 237 -60.5t83 -168.5q0 -37 -17 -97l-96 -335q-10 -38 -10 -54q0 -20 13.5 -27t45.5 -7q71 0 134 65.5t100 177t37 238.5q0 223 -133 344 t-367 121q-229 0 -408 -101t-278.5 -284t-99.5 -418q0 -122 23.5 -208t57.5 -128h-264q-28 86 -28 242zM621 233q0 -43 34.5 -66.5t89.5 -23.5q90 0 155.5 49t84.5 115l23 82q-12 0 -35 1t-33 1q-91 0 -157 -14.5t-99.5 -39.5t-48 -50.5t-14.5 -53.5z" />
<glyph unicode="A" horiz-adv-x="1327" d="M-98 0l932 1393h208l134 -1393h-234l-39 383h-477l-254 -383h-270zM575 608h306l-41 398z" />
<glyph unicode="B" horiz-adv-x="1349" d="M29 0l399 1393h588q178 0 262 -71.5t84 -201.5q0 -124 -64 -229.5t-182 -177.5q47 -35 72.5 -93t25.5 -128q0 -98 -40 -186t-113 -156.5t-186.5 -109t-251.5 -40.5h-594zM338 231h367q117 0 187.5 63t70.5 159q0 66 -40 102.5t-120 36.5h-361zM508 823h319q127 0 200 63 t73 158q0 117 -148 117h-346z" />
<glyph unicode="C" horiz-adv-x="1398" d="M117 446q0 131 43 269.5t123 262t184.5 222t237.5 156t272 57.5q219 0 340 -117t121 -325q0 -98 -37 -170h-275q23 67 23 125q0 115 -62 179t-178 64q-89 0 -172.5 -40.5t-147 -109t-112 -154t-73.5 -179.5t-25 -182q0 -132 66.5 -206.5t183.5 -74.5q144 0 248 87.5 t204 267.5h256q-48 -187 -164 -324t-270 -205.5t-328 -68.5q-214 0 -336 123t-122 343z" />
<glyph unicode="D" horiz-adv-x="1394" d="M29 0l399 1393h457q232 0 360.5 -130.5t128.5 -353.5q0 -190 -72 -358t-197.5 -289t-305 -191.5t-385.5 -70.5h-385zM338 231h137q138 0 257.5 51t203 138t131 206t47.5 251q0 284 -309 284h-199z" />
<glyph unicode="E" horiz-adv-x="1142" d="M29 0l399 1393h852l-66 -232h-608l-82 -284h574l-66 -232h-575l-119 -414h608l-65 -231h-852z" />
<glyph unicode="F" horiz-adv-x="1067" d="M29 0l399 1393h829l-65 -232h-586l-82 -284h529l-66 -232h-528l-152 -526q-16 -56 -16 -94q0 -14 2 -25h-264z" />
<glyph unicode="G" horiz-adv-x="1427" d="M117 444q0 133 43 272.5t123 263t185 221.5t238.5 155t272.5 57q119 0 211 -39t144 -103t74 -143q13 -51 13 -103q0 -30 -4 -60h-287q2 13 2 26q0 69 -47 119q-55 59 -176 59q-90 0 -173.5 -40.5t-147 -109t-111.5 -154t-73 -179.5t-25 -182q0 -131 66.5 -206t183.5 -75 q139 0 249.5 74.5t174.5 208.5h-328l68 233h573l-219 -739h-227l38 121q-144 -141 -403 -141q-199 0 -318.5 124t-119.5 340z" />
<glyph unicode="H" horiz-adv-x="1384" d="M29 0l399 1393h244l-158 -553h545l158 553h243l-399 -1393h-244l172 598h-545l-172 -598h-243z" />
<glyph unicode="I" horiz-adv-x="595" d="M29 0l399 1393h244l-400 -1393h-243z" />
<glyph unicode="J" horiz-adv-x="937" d="M-27 250q0 156 99 344h213l-70 -246q-7 -25 -7 -47q0 -31 16 -54q26 -38 91 -38q137 0 172 119l306 1065h241l-301 -1053q-53 -182 -171 -271t-290 -89q-135 0 -217 71t-82 199z" />
<glyph unicode="K" horiz-adv-x="1236" d="M29 0l399 1393h244l-140 -484l551 484h328l-577 -516l174 -877h-267l-131 678l-192 -174l-146 -504h-243z" />
<glyph unicode="L" horiz-adv-x="1034" d="M29 0l399 1393h244l-334 -1162h553l-66 -231h-796z" />
<glyph unicode="M" horiz-adv-x="1742" d="M29 0l399 1393h406l22 -897l539 897h424l-400 -1393h-245l331 1163l-702 -1163h-172l-25 1163l-334 -1163h-243z" />
<glyph unicode="N" horiz-adv-x="1353" d="M29 0l399 1393h246l241 -934l269 934h246l-400 -1393h-246l-243 934l-267 -934h-245z" />
<glyph unicode="O" horiz-adv-x="1443" d="M119 446q0 132 40 270t116 262t176.5 221.5t233 155.5t273.5 58q219 0 346.5 -125t127.5 -342q0 -110 -28.5 -225t-80.5 -222t-128.5 -202t-167.5 -165t-204 -111t-231 -41q-219 0 -346 124.5t-127 341.5zM381 502q0 -132 67.5 -205.5t190.5 -73.5q90 0 173.5 41 t147 109.5t111.5 154.5t73 180.5t25 182.5q0 132 -67.5 205t-190.5 73q-90 0 -173.5 -41t-147 -109.5t-111.5 -154.5t-73 -180t-25 -182z" />
<glyph unicode="P" horiz-adv-x="1159" d="M29 0l399 1393h500q157 0 238 -82t81 -213q0 -230 -174 -376.5t-444 -146.5h-191l-131 -456q-19 -65 -19 -103q0 -8 1 -16h-260zM504 807h217q120 0 189 64.5t69 160.5q0 62 -39 95.5t-111 33.5h-223z" />
<glyph unicode="Q" horiz-adv-x="1441" d="M119 446q0 132 40 270t116 262t176.5 221.5t233 155.5t273.5 58q219 0 346.5 -125t127.5 -342q0 -225 -110.5 -450.5t-295.5 -362.5l86 -194h-260l-35 79q-109 -38 -225 -38q-219 0 -346 124.5t-127 341.5zM381 502q0 -132 67.5 -205.5t190.5 -73.5q38 0 86 10l-119 273 h256l70 -160q108 99 172.5 250t64.5 295q0 132 -67.5 205t-190.5 73q-90 0 -173.5 -41t-147 -109.5t-111.5 -154.5t-73 -180t-25 -182z" />
<glyph unicode="R" horiz-adv-x="1308" d="M29 0l399 1393h592q170 0 255 -80t85 -215q0 -286 -354 -428q79 -44 79 -158q0 -27 -2 -41l-18 -174q-4 -32 -4 -51q0 -165 100 -246h-313q-57 30 -57 133q0 45 10 117l22 158q4 40 4 55q0 65 -30.5 100t-102.5 35h-250l-172 -598h-243zM510 829h319q123 0 193 54.5 t70 144.5q0 59 -41 96t-123 37h-322z" />
<glyph unicode="S" horiz-adv-x="1234" d="M25 311q0 87 36 146h258q-20 -53 -20 -115q0 -76 61 -127t191 -51q142 0 225.5 68t83.5 159q0 48 -26 85t-69 59t-98 43.5t-112 39t-112 46.5t-98 64t-69 93t-26 133q0 121 76 225.5t219 169t323 64.5q204 0 311 -78t107 -211q0 -87 -43 -172h-246q21 52 21 107 q0 74 -52.5 122t-164.5 48q-130 0 -204.5 -59.5t-74.5 -149.5q0 -43 26.5 -76.5t70 -54t99 -42.5t113 -40t113 -47.5t99 -65t70 -93t26.5 -130.5q0 -113 -51 -207t-138 -155.5t-201.5 -95t-242.5 -33.5q-124 0 -219.5 27.5t-151 74.5t-83 105t-27.5 124z" />
<glyph unicode="T" horiz-adv-x="1110" d="M250 1147l69 246h975l-69 -246h-365l-330 -1147h-245l329 1147h-364z" />
<glyph unicode="U" horiz-adv-x="1302" d="M141 438l275 955h241l-272 -953q-9 -30 -8 -57q1 -54 35 -96q52 -62 176 -62q100 0 174.5 46t103.5 145l281 977h244l-283 -987q-60 -208 -207.5 -317t-365.5 -109q-231 0 -341 129q-73 85 -72 201q0 60 19 128z" />
<glyph unicode="V" horiz-adv-x="1257" d="M268 1393h250l49 -975l600 975h287l-876 -1393h-230z" />
<glyph unicode="W" horiz-adv-x="1722" d="M186 0l58 1393h245l-59 -1018l494 1016h125v2h233l-78 -1002l520 1002h258l-737 -1393h-295l78 1098l-549 -1098h-293z" />
<glyph unicode="X" horiz-adv-x="1222" d="M-100 0l632 731l-213 662h261l143 -445l393 445h305l-618 -691l225 -702h-260l-154 479l-409 -479h-305z" />
<glyph unicode="Y" horiz-adv-x="1232" d="M252 1393h266l191 -467l452 467h324l-701 -713l-194 -680h-244l195 682z" />
<glyph unicode="Z" horiz-adv-x="1120" d="M-61 0l63 221l881 940h-586l65 232h904l-64 -222l-883 -940h633l-65 -231h-948z" />
<glyph unicode="[" horiz-adv-x="602" d="M-113 -338l435 1516l53 184h430l-53 -184h-246l-381 -1332h246l-54 -184h-430z" />
<glyph unicode="\" horiz-adv-x="700" d="M233 1497h185l121 -1726h-185z" />
<glyph unicode="]" horiz-adv-x="602" d="M-205 -338l53 184h246l381 1332h-246l54 184h430l-434 -1516l-54 -184h-430z" />
<glyph unicode="^" horiz-adv-x="1024" d="M2 229l526 901h314l35 -880h-209l-23 672l-405 -693h-238z" />
<glyph unicode="_" horiz-adv-x="1243" d="M-221 -276l49 174l1243 30l-49 -174z" />
<glyph unicode="`" horiz-adv-x="1024" d="M555 1782h360l-20 -287h-188z" />
<glyph unicode="a" horiz-adv-x="1157" d="M-2 238q0 81 39 154t112 130t189.5 91t259.5 34h178l17 53q9 29 9 55q0 44 -28 76q-44 50 -137 50q-94 0 -159 -50t-87 -135h-254q36 115 126 195t204 116.5t244 36.5q204 0 284 -91q51 -58 51 -139q0 -45 -16 -97l-129 -414q-4 -14 -4 -27q1 -22 15 -38q22 -24 73 -25 q59 0 117 37l-66 -225q-81 -37 -170 -37q-41 0 -68.5 3.5t-56.5 13.5t-48.5 33t-30.5 58q-155 -116 -349 -116q-146 0 -230.5 69t-84.5 189zM252 266q0 -57 36.5 -90t104.5 -33q115 0 196.5 70t108.5 156l33 102h-96q-89 0 -158 -13.5t-110.5 -34t-68 -48.5t-36.5 -54.5 t-10 -54.5z" />
<glyph unicode="b" horiz-adv-x="1187" d="M-16 0l391 1393h225l-123 -443q71 43 141 68.5t158 25.5q161 0 254.5 -101t93.5 -279q0 -125 -51.5 -248.5t-138 -219.5t-211.5 -156t-262 -60q-166 0 -234 110l-26 -90h-217zM326 406q0 -95 53.5 -148t146.5 -53q148 0 256.5 122.5t108.5 290.5q0 95 -54 148t-147 53 q-150 0 -257 -122t-107 -291z" />
<glyph unicode="c" horiz-adv-x="1107" d="M59 344q0 127 52 253.5t140 225t216 160t268 61.5q85 0 148 -24.5t97 -60.5t54 -89t25.5 -96.5t5.5 -97.5q0 -36 -8 -82h-238q4 36 4 53q0 80 -38.5 126t-120.5 46q-96 0 -182.5 -62.5t-137.5 -162t-51 -203.5q0 -94 50 -140t136 -46q55 0 102 17t86.5 52t62 62t56.5 74 h213q-21 -73 -71 -147t-122.5 -138t-173.5 -104.5t-210 -40.5q-176 0 -269.5 101t-93.5 263z" />
<glyph unicode="d" horiz-adv-x="1181" d="M63 360q0 125 52 248.5t139 219.5t211 156t258 60q152 0 229 -69l117 418h225l-383 -1393h-217l27 90q-41 -44 -123 -77t-172 -33q-168 0 -265.5 104.5t-97.5 275.5zM297 406q0 -95 54 -148t147 -53q148 0 256 122.5t108 290.5q0 95 -53.5 148t-146.5 53 q-150 0 -257.5 -122t-107.5 -291z" />
<glyph unicode="e" horiz-adv-x="1093" d="M47 348q0 96 32.5 195.5t94 188.5t142.5 159.5t187 111.5t218 41q161 0 243.5 -90t82.5 -262q0 -102 -35 -233h-733q-3 -24 -3 -49q0 -205 199 -205q45 0 85.5 11.5t66.5 25t52.5 37.5t37 36t26.5 33h226q-17 -44 -48.5 -91.5t-82.5 -97.5t-112 -89.5t-143.5 -64.5 t-170.5 -25q-175 0 -270 102t-95 266zM340 664h489q3 19 3 36q0 60 -35 104q-45 56 -142 56q-99 0 -181 -52t-134 -144z" />
<glyph unicode="f" horiz-adv-x="604" d="M16 0l230 799h-123l63 225h123l49 168q28 99 108 160t187 61q88 0 156 -41l-66 -225q-26 33 -81 33q-82 0 -105 -78l-22 -78h143l-64 -225h-143l-229 -799h-226z" />
<glyph unicode="g" horiz-adv-x="1159" d="M-59 -41h233q10 -164 195 -164q119 0 194.5 59.5t104.5 161.5l30 111q-117 -86 -286 -86q-170 0 -257 91.5t-87 250.5q0 96 32.5 193.5t92 180.5t137.5 148t175.5 102t199.5 37q152 0 237 -90l21 70h217l-285 -1004q-56 -197 -203 -303t-370 -106q-217 0 -314 91 q-74 70 -74 182q0 35 7 75zM301 401q0 -85 46.5 -130.5t133.5 -45.5q93 0 176.5 59.5t133 156.5t49.5 202q0 85 -46.5 130.5t-134.5 45.5q-93 0 -176 -59.5t-132.5 -156.5t-49.5 -202z" />
<glyph unicode="h" horiz-adv-x="1081" d="M-25 0l400 1393h225l-131 -455q154 106 324 106q119 0 181 -68t62 -169q0 -49 -18 -111l-201 -696h-233l194 676q6 24 6 45q0 52 -37 80t-104 28q-205 0 -278 -256l-164 -573h-226z" />
<glyph unicode="i" horiz-adv-x="487" d="M-20 0l290 1024h238l-291 -1024h-237zM311 1167l70 246h237l-69 -246h-238z" />
<glyph unicode="j" horiz-adv-x="471" d="M-291 -340l60 205q23 -41 73 -41q85 0 105 78l321 1122h226l-342 -1192q-63 -221 -304 -221q-100 0 -139 49zM309 1167l72 246h225l-71 -246h-226z" />
<glyph unicode="k" horiz-adv-x="1003" d="M-25 0l400 1393h233l-205 -715l435 346h311l-457 -360l164 -664h-242l-110 516l-191 -149l-104 -367h-234z" />
<glyph unicode="l" horiz-adv-x="495" d="M-8 0l383 1393h233l-383 -1393h-233z" />
<glyph unicode="m" horiz-adv-x="1677" d="M-25 0l293 1024h226l-25 -86q164 106 319 106q153 0 226 -131q187 131 354 131q133 0 198.5 -67.5t65.5 -169.5q0 -49 -18 -111l-201 -696h-233l194 676q6 24 6 45q0 52 -37 80t-104 28q-48 0 -87 -15t-65.5 -37.5t-48 -58t-34 -68.5t-25.5 -77l-166 -573h-233l194 676 q6 24 6 45q0 52 -37 80t-104 28q-60 0 -106 -21t-76.5 -60t-49 -79.5t-34.5 -95.5l-164 -573h-234z" />
<glyph unicode="n" horiz-adv-x="1089" d="M-25 0l293 1024h226l-25 -86q164 106 332 106q119 0 181 -68t62 -169q0 -49 -18 -111l-201 -696h-233l194 676q7 28 7 45q0 52 -37.5 80t-104.5 28q-205 0 -278 -256l-164 -573h-234z" />
<glyph unicode="o" horiz-adv-x="1157" d="M61 344q0 133 52 261t139.5 224.5t212 155.5t260.5 59q180 0 274.5 -101t94.5 -263q0 -134 -49 -261t-134.5 -224t-211.5 -156t-269 -59q-169 0 -269 102t-100 262zM295 406q0 -97 52 -149t145 -52q148 0 258 122.5t110 290.5q0 97 -51.5 149t-144.5 52q-151 0 -260 -122 t-109 -291z" />
<glyph unicode="p" horiz-adv-x="1179" d="M-115 -369l383 1393h217l-26 -90q44 42 125.5 76t169.5 34q168 0 265 -104.5t97 -275.5q0 -125 -52 -248.5t-138.5 -219.5t-210.5 -156t-258 -60q-155 0 -232 69l-114 -418h-226zM317 406q0 -95 54 -148t147 -53q150 0 257.5 122t107.5 291q0 95 -54 148t-147 53 q-148 0 -256.5 -122.5t-108.5 -290.5z" />
<glyph unicode="q" horiz-adv-x="1189" d="M63 360q0 125 51.5 248.5t138.5 219.5t212 156t262 60q138 0 240 -90l20 70h217l-391 -1393h-225l123 443q-134 -94 -299 -94q-161 0 -255 101.5t-94 278.5zM297 406q0 -95 54 -148t147 -53q150 0 257 122t107 291q0 95 -53.5 148t-146.5 53q-148 0 -256.5 -122.5 t-108.5 -290.5z" />
<glyph unicode="r" horiz-adv-x="776" d="M-25 0l293 1024h226l-33 -115q45 35 64 49t63 39.5t88.5 36t95.5 10.5q89 0 137 -45l-78 -233q-61 57 -153 57q-123 0 -200 -75.5t-122 -233.5l-147 -514h-234z" />
<glyph unicode="s" horiz-adv-x="989" d="M-8 233q0 52 16 95h234q-4 -12 -4 -37q0 -49 47.5 -88t140.5 -39q100 0 154.5 39.5t54.5 99.5q0 33 -27.5 57t-71.5 38t-97.5 27t-107 31t-97.5 43t-71.5 69t-27.5 104q0 149 141 260.5t351 111.5q100 0 172.5 -23t109 -61.5t52.5 -79t16 -85.5q0 -30 -12 -66h-234 q8 19 8 41q0 47 -46.5 74.5t-123.5 27.5q-86 0 -137 -33t-51 -81q0 -34 27.5 -57.5t71.5 -37.5t97.5 -26.5t107 -30t97.5 -42.5t71.5 -69.5t27.5 -105.5q0 -174 -150 -291.5t-391 -117.5q-93 0 -163 22.5t-108.5 60t-57.5 80.5t-19 90z" />
<glyph unicode="t" horiz-adv-x="612" d="M80 229l166 570h-123l63 225h121l111 369h225l-104 -369h143l-64 -225h-143l-149 -512q-5 -20 -6 -36q0 -19 8 -33q14 -25 51 -25q51 0 86 28l-57 -205q-59 -36 -152 -36q-114 0 -160 72q-28 44 -28 100q0 36 12 77z" />
<glyph unicode="u" horiz-adv-x="1089" d="M43 217q0 49 18 111l201 696h234l-195 -676q-10 -42 -10 -63q0 -59 37 -90t100 -31q48 0 90 18t72 46t55.5 67.5t41.5 77t28 78.5l164 573h233l-293 -1024h-225l24 86q-164 -106 -331 -106q-119 0 -181.5 68t-62.5 169z" />
<glyph unicode="v" horiz-adv-x="970" d="M145 1024h230l53 -666l434 666h254l-674 -1024h-209z" />
<glyph unicode="w" horiz-adv-x="1585" d="M145 1024h230l20 -692l418 692h229l21 -696l434 696h234l-637 -1024h-234l-31 670l-399 -670h-233z" />
<glyph unicode="x" horiz-adv-x="1032" d="M-127 0l516 520l-223 504h246l147 -332l328 332h270l-516 -520l223 -504h-246l-147 332l-328 -332h-270z" />
<glyph unicode="y" horiz-adv-x="1024" d="M-223 -336l63 217q63 -53 160 -53q92 0 164 49.5t72 130.5v25l-58 991h234l20 -754l459 754h258l-768 -1184q-68 -105 -181 -167t-241 -62q-100 0 -182 53z" />
<glyph unicode="z" horiz-adv-x="950" d="M-86 0l53 184l709 656h-502l53 184h807l-51 -184l-709 -656h521l-54 -184h-827z" />
<glyph unicode="{" horiz-adv-x="595" d="M-14 -209q0 56 28 130.5t62 135.5t62 131t28 119q0 47 -26.5 69.5t-69.5 22.5l63 226q69 0 111 31.5t58 85t22.5 120t12.5 140t19 140.5t51 127t101 95h209q-68 -37 -109.5 -100.5t-57.5 -135.5t-25 -152t-20 -155.5t-32.5 -140t-72.5 -111t-132 -63.5q90 -47 90 -170 q0 -64 -26.5 -140.5t-58.5 -135.5t-58.5 -130t-26.5 -125q0 -75 39 -145h-209q-32 62 -32 131z" />
<glyph unicode="|" horiz-adv-x="446" d="M-16 0l399 1393h184l-399 -1393h-184z" />
<glyph unicode="}" horiz-adv-x="595" d="M-123 -340q68 37 109.5 100.5t57.5 135.5t25 152t20 155.5t32.5 140t72.5 111t132 63.5q-90 47 -90 170q0 64 26.5 140.5t58.5 135.5t58.5 130t26.5 125q0 75 -39 145h208q33 -64 33 -131q0 -56 -28 -130.5t-62 -135.5t-62 -131t-28 -119q0 -47 26.5 -69.5t69.5 -22.5 l-63 -226q-69 0 -111 -31.5t-58 -85t-22.5 -120t-12.5 -140t-19 -140.5t-51 -127t-101 -95h-209z" />
<glyph unicode="~" horiz-adv-x="1409" d="M125 512q14 145 109.5 234.5t246.5 89.5q74 0 149.5 -16.5t127.5 -37t115 -37t116 -16.5q68 0 101 34.5t30 84.5h246q-12 -163 -106.5 -243.5t-253.5 -80.5q-74 0 -149 16.5t-126 37t-113.5 37t-115.5 16.5q-62 0 -96.5 -33.5t-34.5 -85.5h-246z" />
<glyph unicode="&#xa1;" horiz-adv-x="512" d="M-135 -369l309 951h225l-247 -951h-287zM188 737l82 287h287l-82 -287h-287z" />
<glyph unicode="&#xa2;" d="M299 569q0 193 129.5 356t312.5 201l76 267h184l-75 -267q219 -50 200 -356h-213q4 105 -51 139l-121 -424q88 30 146 133h194q-30 -118 -139 -220t-262 -124l-78 -274h-184l80 283q-95 27 -147 99.5t-52 186.5zM510 610q0 -79 51 -110l115 397q-73 -40 -119.5 -119 t-46.5 -168z" />
<glyph unicode="&#xa3;" d="M53 0l58 201q133 57 210.5 138.5t77.5 172.5h-206l53 184h123q-19 82 -19 164q0 110 44 211t119.5 176.5t184.5 120.5t232 45q184 0 289.5 -92t105.5 -246q0 -77 -25 -172h-274q18 58 18 109q0 74 -40.5 115.5t-122.5 41.5q-117 0 -193 -75.5t-76 -192.5q0 -38 4 -70 t14.5 -78.5t12.5 -56.5h381l-53 -184h-318q-26 -151 -176 -295l604 14l-65 -231h-963z" />
<glyph unicode="&#xa4;" horiz-adv-x="1062" d="M106 379l117 84q-8 31 -8 67q0 139 94 254l-67 97l157 123l70 -97q78 35 170 35q90 0 154 -39l108 80l103 -143l-111 -80q6 -27 6 -55q0 -144 -98 -263l69 -100l-157 -123l-76 105q-81 -33 -162 -33q-84 0 -143 35l-123 -90zM412 580q0 -50 30 -83.5t82 -33.5 q73 0 125.5 56t52.5 134q0 49 -29.5 83t-82.5 34q-74 0 -126 -57.5t-52 -132.5z" />
<glyph unicode="&#xa5;" d="M139 338l54 184h344l24 82h-344l53 184h269l-246 605h291l164 -525l471 525h307l-594 -605h270l-53 -184h-344l-25 -82h344l-53 -184h-344l-96 -338h-244l96 338h-344z" />
<glyph unicode="&#xa6;" horiz-adv-x="446" d="M-16 0l147 512h184l-147 -512h-184zM236 881l147 512h184l-147 -512h-184z" />
<glyph unicode="&#xa7;" horiz-adv-x="983" d="M-12 156q0 31 8 67h233q-6 -21 -6 -43q0 -98 174 -98q82 0 132.5 30.5t50.5 80.5q0 38 -27 63.5t-69.5 40t-94.5 26t-104 29t-94.5 42.5t-69.5 72t-27 112q0 204 248 309q-90 66 -90 170q0 140 138 248t353 108q79 0 140.5 -15.5t98 -40t60.5 -58.5t32.5 -66.5t8.5 -67.5 q0 -31 -8 -67h-233q6 21 6 43q0 47 -43.5 72.5t-120.5 25.5q-88 0 -140 -35.5t-52 -93.5q0 -39 26 -65t68 -40t92 -26t100.5 -28.5t92.5 -40.5t68 -69t26 -108q0 -180 -232 -297q47 -37 68.5 -78t21.5 -96q0 -71 -32.5 -134t-93 -112.5t-155 -78.5t-210.5 -29 q-80 0 -142.5 15.5t-99.5 40t-61 58.5t-32.5 66t-8.5 68zM324 637q0 -52 41 -78.5t114 -26.5q117 0 185.5 44.5t68.5 107.5q0 52 -42.5 79.5t-119.5 27.5q-113 0 -180 -45.5t-67 -108.5z" />
<glyph unicode="&#xa8;" horiz-adv-x="1024" d="M479 1516l70 245h233l-69 -245h-234zM889 1516l69 245h234l-70 -245h-233z" />
<glyph unicode="&#xa9;" horiz-adv-x="1679" d="M139 532q0 242 118 444.5t321.5 319.5t445.5 117q284 0 447 -152.5t163 -400.5q0 -181 -69.5 -344.5t-187.5 -280.5t-282 -186t-345 -69q-284 0 -447.5 152.5t-163.5 399.5zM332 578q0 -204 120 -315t336 -111q173 0 324.5 90t241.5 243t90 330q0 204 -120 315t-337 111 q-130 0 -250.5 -53.5t-209.5 -142.5t-142 -212t-53 -255zM510 561q0 98 38.5 195.5t104.5 175t162 126t201 48.5q115 0 178 -67t63 -181q0 -50 -12 -102h-196q6 27 6 61q0 57 -27 83t-72 26q-67 0 -127 -49.5t-94.5 -126t-34.5 -156.5q0 -127 119 -127q136 0 201 162h188 q-51 -155 -171 -248.5t-269 -93.5q-116 0 -187 70t-71 204z" />
<glyph unicode="&#xaa;" horiz-adv-x="1069" d="M186 791q0 139 129.5 222t348.5 83h165l13 39q20 69 -17.5 108t-115.5 39q-81 0 -135.5 -37.5t-69.5 -109.5h-205q38 132 151.5 205t282.5 73q160 0 245 -73t52 -187l-92 -322q-8 -32 9.5 -51.5t56.5 -19.5q31 0 79 10l-51 -180q-79 -10 -123 -10q-79 0 -116 19.5 t-52 70.5q-133 -97 -292 -97q-122 0 -192.5 58.5t-70.5 159.5zM391 797q0 -92 111 -92q95 0 173.5 61t94.5 119l21 69q-29 2 -80 2q-168 0 -244 -47.5t-76 -111.5z" />
<glyph unicode="&#xab;" horiz-adv-x="1464" d="M88 408l59 208l709 381l-74 -254l-446 -247l305 -248l-63 -221zM702 408l60 208l708 381l-73 -254l-447 -247l305 -248l-63 -221z" />
<glyph unicode="&#xac;" horiz-adv-x="1409" d="M209 762l53 184h1124l-28 -100l-125 -432h-184l100 348h-940z" />
<glyph unicode="&#xad;" horiz-adv-x="0" />
<glyph unicode="&#xae;" horiz-adv-x="1679" d="M139 532q0 242 118 444.5t321.5 319.5t445.5 117q284 0 447 -152.5t163 -400.5q0 -181 -69.5 -344.5t-187.5 -280.5t-282 -186t-345 -69q-284 0 -447.5 152.5t-163.5 399.5zM332 578q0 -204 120 -315t336 -111q173 0 324.5 90t241.5 243t90 330q0 204 -120 315t-337 111 q-130 0 -250.5 -53.5t-209.5 -142.5t-142 -212t-53 -255zM483 287l236 819h323q107 0 165.5 -46t58.5 -134q0 -95 -59 -167.5t-154 -109.5q41 -28 41 -100v-105q0 -106 57 -157h-231q-39 28 -27 149l8 72q6 61 -9.5 87t-66.5 26h-61l-96 -334h-185zM811 786h145 q50 0 79.5 27t29.5 74q0 25 -17 40t-47 15h-145z" />
<glyph unicode="&#xaf;" horiz-adv-x="1024" d="M461 1532l49 174h688l-49 -174h-688z" />
<glyph unicode="&#xb0;" horiz-adv-x="776" d="M207 1001q0 106 54.5 200.5t153 153t216.5 58.5q119 0 189.5 -66t70.5 -171q0 -164 -123.5 -289t-300.5 -125q-118 0 -189 66.5t-71 172.5zM403 1051q0 -49 30.5 -83t82.5 -34q73 0 125.5 56t52.5 134q0 49 -29.5 83t-82.5 34q-74 0 -126.5 -57.5t-52.5 -132.5z" />
<glyph unicode="&#xb1;" horiz-adv-x="1409" d="M-4 0l59 205h459l104 368h-458l59 205h459l131 459h205l-131 -459h458l-59 -205h-459l-104 -368h459l-60 -205h-1122z" />
<glyph unicode="&#xb2;" horiz-adv-x="860" d="M141 594l45 154l330 198q118 69 165.5 119.5t47.5 105.5q0 38 -25 58t-71 20q-63 0 -106 -40.5t-60 -118.5h-180q23 150 131.5 236.5t257.5 86.5q116 0 180 -56.5t64 -152.5q0 -109 -69.5 -187.5t-209.5 -156.5l-154 -86h324l-51 -180h-619z" />
<glyph unicode="&#xb3;" horiz-adv-x="860" d="M176 782q0 37 17 90h178q-9 -32 -9 -45q0 -39 28.5 -62.5t84.5 -23.5q73 0 121.5 42t48.5 100q0 73 -100 73h-74l35 119h74q65 0 103 33t38 74q0 65 -96 65q-63 0 -106.5 -30.5t-59.5 -79.5h-176q20 107 132 191.5t265 84.5q120 0 181 -47.5t61 -122.5q0 -69 -41.5 -128 t-124.5 -93q84 -47 84 -150q0 -127 -111.5 -210.5t-273.5 -83.5q-132 0 -205.5 57t-73.5 147z" />
<glyph unicode="&#xb4;" horiz-adv-x="1024" d="M662 1495l143 287h393l-315 -287h-221z" />
<glyph unicode="&#xb5;" horiz-adv-x="1064" d="M-104 -410l411 1434h185l-207 -723q-19 -76 16 -117t121 -41q183 0 231 166l205 715h184l-292 -1024h-185l17 59q-101 -79 -248 -79q-80 0 -133 32l-121 -422h-184z" />
<glyph unicode="&#xb6;" horiz-adv-x="1024" d="M152 954q0 184 132.5 311.5t331.5 127.5h205l-399 -1393h-184l200 696h-43q-112 0 -177.5 74t-65.5 184zM586 0l399 1393h184l-399 -1393h-184z" />
<glyph unicode="&#xb7;" horiz-adv-x="1024" d="M358 389l70 246h234l-70 -246h-234z" />
<glyph unicode="&#xb8;" horiz-adv-x="1024" d="M-18 -444q0 33 14 71h172q-6 -15 -6 -30q0 -26 20 -41t56 -15q74 0 119.5 40t45.5 95q0 34 -24 54t-66 20q-85 0 -153 -72l-105 43l260 295l154 -8l-129 -127q24 6 51 6q89 0 143 -44.5t54 -127.5q0 -141 -107.5 -233t-269.5 -92q-101 0 -165 44t-64 122z" />
<glyph unicode="&#xb9;" horiz-adv-x="860" d="M207 594l43 147h188l111 385h-193l35 123q73 0 122 9.5t78 31t43.5 43.5t29.5 60h135l-187 -652h176l-43 -147h-538z" />
<glyph unicode="&#xba;" horiz-adv-x="1017" d="M215 866q0 77 25 155.5t73.5 148.5t113.5 125t152.5 87.5t182.5 32.5q149 0 229 -80.5t80 -212.5q0 -77 -25.5 -155.5t-74.5 -148.5t-115 -125t-153.5 -87.5t-182.5 -32.5q-149 0 -227 80t-78 213zM408 907q0 -72 41.5 -112.5t117.5 -40.5q124 0 217 97t93 230 q0 73 -41 113.5t-117 40.5q-124 0 -217.5 -97.5t-93.5 -230.5z" />
<glyph unicode="&#xbb;" horiz-adv-x="1464" d="M-8 27l74 254l446 247l-305 248l63 221l490 -381l-60 -208zM606 27l74 254l446 247l-305 248l64 221l489 -381l-59 -208z" />
<glyph unicode="&#xbc;" horiz-adv-x="1814" d="M145 594l43 147h189l110 385h-192l35 123q59 0 102.5 7.5t70 18t46.5 31t30.5 39t22.5 48.5h135l-186 -652h176l-43 -147h-539zM238 0l1222 1393h213l-1222 -1393h-213zM930 170l43 149l532 480h176l-137 -480h137l-43 -149h-137l-49 -170h-176l49 170h-395zM1153 319 h215l72 250z" />
<glyph unicode="&#xbd;" horiz-adv-x="1884" d="M145 594l43 147h189l110 385h-192l35 123q59 0 102.5 7.5t70 18t46.5 31t30.5 39t22.5 48.5h135l-186 -652h176l-43 -147h-539zM238 0l1222 1393h213l-1222 -1393h-213zM981 0l45 154l330 198q117 69 165 120t48 106q0 77 -96 77q-63 0 -106 -40.5t-60 -118.5h-181 q23 150 132 236.5t258 86.5q116 0 179.5 -56t63.5 -153q0 -57 -19 -105.5t-58 -90.5t-86 -76t-115 -72l-154 -86h324l-52 -180h-618z" />
<glyph unicode="&#xbe;" horiz-adv-x="1814" d="M143 782q0 37 17 90h178q-8 -28 -8 -45q0 -39 28 -62.5t84 -23.5q73 0 121.5 42t48.5 100q0 73 -100 73h-74l35 119h74q65 0 103 33t38 74q0 65 -96 65q-63 0 -106.5 -30.5t-59.5 -79.5h-176q20 107 132 191.5t265 84.5q120 0 181 -47.5t61 -122.5q0 -69 -41.5 -128 t-124.5 -93q84 -47 84 -150q0 -127 -111.5 -210.5t-273.5 -83.5q-132 0 -205.5 57t-73.5 147zM238 0l1222 1393h213l-1222 -1393h-213zM930 170l43 149l532 480h176l-137 -480h137l-43 -149h-137l-49 -170h-176l49 170h-395zM1153 319h215l72 250z" />
<glyph unicode="&#xbf;" horiz-adv-x="1021" d="M-100 -100q0 74 25.5 137t67 108.5t91.5 86t100.5 76t93 70.5t70.5 79t31 92l2 33h293l-8 -29q-20 -71 -56.5 -129.5t-78 -97.5t-87 -72.5t-87 -62.5t-75 -59.5t-53.5 -72t-20 -92.5q0 -59 37.5 -93t107.5 -34q101 0 171 67t87 191l262 -59q-62 -212 -215.5 -320 t-369.5 -108q-185 0 -287 78t-102 211zM420 737l82 287h286l-81 -287h-287z" />
<glyph unicode="&#xc0;" horiz-adv-x="1316" d="M-98 0l932 1393h208l134 -1393h-234l-39 383h-477l-254 -383h-270zM575 608h306l-41 398zM729 1782h361l-21 -287h-188z" />
<glyph unicode="&#xc1;" horiz-adv-x="1316" d="M-98 0l932 1393h208l134 -1393h-234l-39 383h-477l-254 -383h-270zM575 608h306l-41 398zM836 1495l143 287h393l-315 -287h-221z" />
<glyph unicode="&#xc2;" horiz-adv-x="1316" d="M-98 0l932 1393h208l134 -1393h-234l-39 383h-477l-254 -383h-270zM575 608h306l-41 398zM645 1495l246 287h315l82 -287h-196l-76 143l-158 -143h-213z" />
<glyph unicode="&#xc3;" horiz-adv-x="1316" d="M-98 0l932 1393h208l134 -1393h-234l-39 383h-477l-254 -383h-270zM575 608h306l-41 398zM610 1530q22 112 92 187t181 75q52 0 104.5 -25.5t98 -51t81.5 -25.5q80 0 88 108l162 -20q-31 -145 -93.5 -209t-154.5 -64q-43 0 -92 15.5t-84.5 34t-74.5 34t-66 15.5 q-30 0 -43 -19t-18 -55h-181z" />
<glyph unicode="&#xc4;" horiz-adv-x="1316" d="M-98 0l932 1393h208l134 -1393h-234l-39 383h-477l-254 -383h-270zM575 608h306l-41 398zM653 1516l70 245h233l-69 -245h-234zM1063 1516l70 245h233l-70 -245h-233z" />
<glyph unicode="&#xc5;" horiz-adv-x="1316" d="M-98 0l932 1393h208l134 -1393h-234l-39 383h-477l-254 -383h-270zM575 608h306l-41 398zM780 1667q0 135 104 236.5t230 101.5q91 0 140 -46.5t49 -125.5q0 -132 -106 -235t-230 -103q-92 0 -139.5 47t-47.5 125zM920 1720q0 -36 23.5 -59t62.5 -23q60 0 101.5 42.5 t41.5 99.5q0 34 -23.5 56t-64.5 22q-59 0 -100 -40t-41 -98z" />
<glyph unicode="&#xc6;" horiz-adv-x="1404" d="M-180 0l913 1393h809l-65 -232h-404l-82 -284h371l-68 -232h-370l-119 -414h403l-65 -231h-647l79 281h-294l-183 -281h-278zM426 506h215l170 596z" />
<glyph unicode="&#xc7;" horiz-adv-x="1398" d="M117 446q0 131 43 269.5t123 262t184.5 222t237.5 156t272 57.5q219 0 340 -117t121 -325q0 -98 -37 -170h-275q23 67 23 125q0 115 -62 179t-178 64q-89 0 -172.5 -40.5t-147 -109t-112 -154t-73.5 -179.5t-25 -182q0 -132 66.5 -206.5t183.5 -74.5q144 0 248 87.5 t204 267.5h256q-69 -265 -263.5 -423t-444.5 -173l-103 -101q24 6 52 6q89 0 142.5 -44.5t53.5 -127.5q0 -141 -107.5 -233t-269.5 -92q-101 0 -165 44t-64 122q0 33 14 71h172q-6 -15 -6 -30q0 -26 20 -41t56 -15q74 0 120 40t46 95q0 34 -24 54t-66 20q-86 0 -154 -72 l-104 43l233 267q-169 28 -263.5 147t-94.5 311z" />
<glyph unicode="&#xc8;" horiz-adv-x="1142" d="M29 0l399 1393h852l-66 -232h-608l-82 -284h574l-66 -232h-575l-119 -414h608l-65 -231h-852zM657 1782h361l-21 -287h-188z" />
<glyph unicode="&#xc9;" horiz-adv-x="1142" d="M29 0l399 1393h852l-66 -232h-608l-82 -284h574l-66 -232h-575l-119 -414h608l-65 -231h-852zM764 1495l143 287h393l-315 -287h-221z" />
<glyph unicode="&#xca;" horiz-adv-x="1142" d="M29 0l399 1393h852l-66 -232h-608l-82 -284h574l-66 -232h-575l-119 -414h608l-65 -231h-852zM573 1495l246 287h316l82 -287h-197l-76 143l-158 -143h-213z" />
<glyph unicode="&#xcb;" horiz-adv-x="1142" d="M29 0l399 1393h852l-66 -232h-608l-82 -284h574l-66 -232h-575l-119 -414h608l-65 -231h-852zM582 1516l69 245h234l-70 -245h-233zM991 1516l70 245h233l-69 -245h-234z" />
<glyph unicode="&#xcc;" horiz-adv-x="595" d="M29 0l399 1393h244l-400 -1393h-243zM350 1782h361l-21 -287h-188z" />
<glyph unicode="&#xcd;" horiz-adv-x="595" d="M29 0l399 1393h244l-400 -1393h-243zM457 1495l143 287h393l-315 -287h-221z" />
<glyph unicode="&#xce;" horiz-adv-x="595" d="M29 0l399 1393h244l-400 -1393h-243zM266 1495l246 287h315l82 -287h-196l-76 143l-158 -143h-213z" />
<glyph unicode="&#xcf;" horiz-adv-x="595" d="M29 0l399 1393h244l-400 -1393h-243zM274 1516l70 245h234l-70 -245h-234zM684 1516l70 245h233l-69 -245h-234z" />
<glyph unicode="&#xd0;" horiz-adv-x="1394" d="M18 588l64 223h180l166 582h457q232 0 360.5 -130.5t128.5 -353.5q0 -190 -72 -358t-197.5 -289t-305 -191.5t-385.5 -70.5h-385l168 588h-179zM338 231h137q138 0 257.5 51t203 138t131 206t47.5 251q0 284 -309 284h-199l-100 -350h242l-64 -223h-244z" />
<glyph unicode="&#xd1;" horiz-adv-x="1353" d="M29 0l399 1393h246l241 -934l269 934h246l-400 -1393h-246l-243 934l-267 -934h-245zM602 1530q22 113 91.5 187.5t180.5 74.5q52 0 105 -25.5t98.5 -51t81.5 -25.5q80 0 88 108l162 -20q-31 -145 -93.5 -209t-154.5 -64q-43 0 -92 15.5t-84.5 34t-74.5 34t-66 15.5 q-30 0 -43.5 -19.5t-18.5 -54.5h-180z" />
<glyph unicode="&#xd2;" horiz-adv-x="1443" d="M119 446q0 132 40 270t116 262t176.5 221.5t233 155.5t273.5 58q219 0 346.5 -125t127.5 -342q0 -110 -28.5 -225t-80.5 -222t-128.5 -202t-167.5 -165t-204 -111t-231 -41q-219 0 -346 124.5t-127 341.5zM381 502q0 -132 67.5 -205.5t190.5 -73.5q90 0 173.5 41 t147 109.5t111.5 154.5t73 180.5t25 182.5q0 132 -67.5 205t-190.5 73q-90 0 -173.5 -41t-147 -109.5t-111.5 -154.5t-73 -180t-25 -182zM793 1782h360l-20 -287h-189z" />
<glyph unicode="&#xd3;" horiz-adv-x="1443" d="M119 446q0 132 40 270t116 262t176.5 221.5t233 155.5t273.5 58q219 0 346.5 -125t127.5 -342q0 -110 -28.5 -225t-80.5 -222t-128.5 -202t-167.5 -165t-204 -111t-231 -41q-219 0 -346 124.5t-127 341.5zM381 502q0 -132 67.5 -205.5t190.5 -73.5q90 0 173.5 41 t147 109.5t111.5 154.5t73 180.5t25 182.5q0 132 -67.5 205t-190.5 73q-90 0 -173.5 -41t-147 -109.5t-111.5 -154.5t-73 -180t-25 -182zM899 1495l143 287h394l-316 -287h-221z" />
<glyph unicode="&#xd4;" horiz-adv-x="1443" d="M119 446q0 132 40 270t116 262t176.5 221.5t233 155.5t273.5 58q219 0 346.5 -125t127.5 -342q0 -110 -28.5 -225t-80.5 -222t-128.5 -202t-167.5 -165t-204 -111t-231 -41q-219 0 -346 124.5t-127 341.5zM381 502q0 -132 67.5 -205.5t190.5 -73.5q90 0 173.5 41 t147 109.5t111.5 154.5t73 180.5t25 182.5q0 132 -67.5 205t-190.5 73q-90 0 -173.5 -41t-147 -109.5t-111.5 -154.5t-73 -180t-25 -182zM709 1495l245 287h316l82 -287h-197l-76 143l-157 -143h-213z" />
<glyph unicode="&#xd5;" horiz-adv-x="1443" d="M119 446q0 132 40 270t116 262t176.5 221.5t233 155.5t273.5 58q219 0 346.5 -125t127.5 -342q0 -110 -28.5 -225t-80.5 -222t-128.5 -202t-167.5 -165t-204 -111t-231 -41q-219 0 -346 124.5t-127 341.5zM381 502q0 -132 67.5 -205.5t190.5 -73.5q90 0 173.5 41 t147 109.5t111.5 154.5t73 180.5t25 182.5q0 132 -67.5 205t-190.5 73q-90 0 -173.5 -41t-147 -109.5t-111.5 -154.5t-73 -180t-25 -182zM674 1530q22 113 91.5 187.5t180.5 74.5q52 0 105 -25.5t98.5 -51t81.5 -25.5q80 0 88 108l162 -20q-31 -145 -93.5 -209t-154.5 -64 q-55 0 -117 24.5t-115 49.5t-86 25q-30 0 -43 -19t-18 -55h-180z" />
<glyph unicode="&#xd6;" horiz-adv-x="1443" d="M119 446q0 132 40 270t116 262t176.5 221.5t233 155.5t273.5 58q219 0 346.5 -125t127.5 -342q0 -110 -28.5 -225t-80.5 -222t-128.5 -202t-167.5 -165t-204 -111t-231 -41q-219 0 -346 124.5t-127 341.5zM381 502q0 -132 67.5 -205.5t190.5 -73.5q90 0 173.5 41 t147 109.5t111.5 154.5t73 180.5t25 182.5q0 132 -67.5 205t-190.5 73q-90 0 -173.5 -41t-147 -109.5t-111.5 -154.5t-73 -180t-25 -182zM717 1516l69 245h234l-70 -245h-233zM1126 1516l70 245h234l-70 -245h-234z" />
<glyph unicode="&#xd7;" horiz-adv-x="1409" d="M182 371l414 321l-217 305l190 148l217 -305l416 323l123 -172l-416 -323l226 -316l-191 -147l-225 315l-414 -321z" />
<glyph unicode="&#xd8;" horiz-adv-x="1443" d="M-53 -20l98 339l74 54q-4 46 -4 73q0 132 40 270t116 262t176.5 221.5t233 155.5t273.5 58q264 0 389 -176l248 176l-98 -340l-70 -49q4 -50 4 -78q0 -110 -28.5 -225t-80.5 -222t-128.5 -202t-167.5 -165t-203.5 -111t-230.5 -41q-264 0 -391 178zM379 555l735 520 q-66 94 -207 94q-84 0 -163.5 -36.5t-141 -98t-110 -140t-77 -166t-36.5 -173.5zM426 319q66 -96 209 -96q84 0 164 36.5t141.5 98.5t110 141.5t77 167t35.5 173.5z" />
<glyph unicode="&#xd9;" horiz-adv-x="1302" d="M141 438l275 955h241l-272 -953q-26 -91 26.5 -153t176.5 -62q100 0 174.5 46t103.5 145l281 977h244l-283 -987q-60 -208 -207.5 -317t-365.5 -109q-230 0 -340.5 129t-53.5 329zM694 1782h361l-21 -287h-188z" />
<glyph unicode="&#xda;" horiz-adv-x="1302" d="M141 438l275 955h241l-272 -953q-26 -91 26.5 -153t176.5 -62q100 0 174.5 46t103.5 145l281 977h244l-283 -987q-60 -208 -207.5 -317t-365.5 -109q-230 0 -340.5 129t-53.5 329zM801 1495l143 287h393l-315 -287h-221z" />
<glyph unicode="&#xdb;" horiz-adv-x="1302" d="M141 438l275 955h241l-272 -953q-26 -91 26.5 -153t176.5 -62q100 0 174.5 46t103.5 145l281 977h244l-283 -987q-60 -208 -207.5 -317t-365.5 -109q-230 0 -340.5 129t-53.5 329zM610 1495l246 287h315l82 -287h-196l-76 143l-158 -143h-213z" />
<glyph unicode="&#xdc;" horiz-adv-x="1302" d="M141 438l275 955h241l-272 -953q-26 -91 26.5 -153t176.5 -62q100 0 174.5 46t103.5 145l281 977h244l-283 -987q-60 -208 -207.5 -317t-365.5 -109q-230 0 -340.5 129t-53.5 329zM618 1516l70 245h234l-70 -245h-234zM1028 1516l70 245h233l-69 -245h-234z" />
<glyph unicode="&#xdd;" horiz-adv-x="1232" d="M252 1393h266l191 -467l452 467h324l-701 -713l-194 -680h-244l195 682zM766 1495l143 287h394l-316 -287h-221z" />
<glyph unicode="&#xde;" horiz-adv-x="1140" d="M29 0l399 1393h244l-68 -236h242q157 0 238 -82t81 -213q0 -151 -79 -270.5t-220 -185.5t-319 -66h-176l-64 -221q-23 -79 -18 -119h-260zM436 571h203q120 0 189 65t69 161q0 62 -38.5 95.5t-110.5 33.5h-209z" />
<glyph unicode="&#xdf;" horiz-adv-x="1060" d="M-29 0l285 1004q56 196 179 302.5t302 106.5q145 0 229.5 -74.5t84.5 -191.5q0 -212 -197 -342q131 -88 131 -281q0 -150 -69 -274.5t-191 -197t-272 -72.5q-122 0 -174 45l65 225q19 -19 59.5 -32t85.5 -13q114 0 190.5 88.5t76.5 206.5q0 71 -46 109t-126 38 q-27 0 -47 -4l10 37l55 188q92 0 150.5 68t58.5 147q0 48 -30.5 74.5t-88.5 26.5q-73 0 -132.5 -56t-84.5 -145l-278 -983h-226z" />
<glyph unicode="&#xe0;" horiz-adv-x="1157" d="M-2 238q0 81 39 154t112 130t189.5 91t259.5 34h178l17 53q25 81 -19 131t-137 50q-94 0 -159 -50t-87 -135h-254q36 115 126 195t204 116.5t244 36.5q204 0 284 -91t35 -236l-129 -414q-12 -41 10.5 -65.5t73.5 -24.5q59 0 117 37l-66 -225q-81 -37 -170 -37 q-41 0 -68.5 3.5t-56.5 13.5t-48.5 33t-30.5 58q-155 -116 -349 -116q-146 0 -230.5 69t-84.5 189zM252 266q0 -57 36.5 -90t104.5 -33q115 0 196.5 70t108.5 156l33 102h-96q-89 0 -158 -13.5t-110.5 -34t-68 -48.5t-36.5 -54.5t-10 -54.5zM489 1413h361l-21 -287h-188z " />
<glyph unicode="&#xe1;" horiz-adv-x="1157" d="M-2 238q0 81 39 154t112 130t189.5 91t259.5 34h178l17 53q25 81 -19 131t-137 50q-94 0 -159 -50t-87 -135h-254q36 115 126 195t204 116.5t244 36.5q204 0 284 -91t35 -236l-129 -414q-12 -41 10.5 -65.5t73.5 -24.5q59 0 117 37l-66 -225q-81 -37 -170 -37 q-41 0 -68.5 3.5t-56.5 13.5t-48.5 33t-30.5 58q-155 -116 -349 -116q-146 0 -230.5 69t-84.5 189zM252 266q0 -57 36.5 -90t104.5 -33q115 0 196.5 70t108.5 156l33 102h-96q-89 0 -158 -13.5t-110.5 -34t-68 -48.5t-36.5 -54.5t-10 -54.5zM596 1126l143 287h394l-316 -287 h-221z" />
<glyph unicode="&#xe2;" horiz-adv-x="1157" d="M-2 238q0 81 39 154t112 130t189.5 91t259.5 34h178l17 53q25 81 -19 131t-137 50q-94 0 -159 -50t-87 -135h-254q36 115 126 195t204 116.5t244 36.5q204 0 284 -91t35 -236l-129 -414q-12 -41 10.5 -65.5t73.5 -24.5q59 0 117 37l-66 -225q-81 -37 -170 -37 q-41 0 -68.5 3.5t-56.5 13.5t-48.5 33t-30.5 58q-155 -116 -349 -116q-146 0 -230.5 69t-84.5 189zM252 266q0 -57 36.5 -90t104.5 -33q115 0 196.5 70t108.5 156l33 102h-96q-89 0 -158 -13.5t-110.5 -34t-68 -48.5t-36.5 -54.5t-10 -54.5zM406 1126l245 287h316l82 -287 h-197l-76 144l-158 -144h-212z" />
<glyph unicode="&#xe3;" horiz-adv-x="1157" d="M-2 238q0 81 39 154t112 130t189.5 91t259.5 34h178l17 53q25 81 -19 131t-137 50q-94 0 -159 -50t-87 -135h-254q36 115 126 195t204 116.5t244 36.5q204 0 284 -91t35 -236l-129 -414q-12 -41 10.5 -65.5t73.5 -24.5q59 0 117 37l-66 -225q-81 -37 -170 -37 q-41 0 -68.5 3.5t-56.5 13.5t-48.5 33t-30.5 58q-155 -116 -349 -116q-146 0 -230.5 69t-84.5 189zM252 266q0 -57 36.5 -90t104.5 -33q115 0 196.5 70t108.5 156l33 102h-96q-89 0 -158 -13.5t-110.5 -34t-68 -48.5t-36.5 -54.5t-10 -54.5zM367 1151q22 113 91.5 187.5 t180.5 74.5q52 0 105 -25.5t98.5 -51t81.5 -25.5q80 0 88 108l162 -20q-31 -145 -93.5 -209t-154.5 -64q-55 0 -117 25t-115 49.5t-86 24.5q-30 0 -43 -19t-18 -55h-180z" />
<glyph unicode="&#xe4;" horiz-adv-x="1157" d="M-2 238q0 81 39 154t112 130t189.5 91t259.5 34h178l17 53q25 81 -19 131t-137 50q-94 0 -159 -50t-87 -135h-254q36 115 126 195t204 116.5t244 36.5q204 0 284 -91t35 -236l-129 -414q-12 -41 10.5 -65.5t73.5 -24.5q59 0 117 37l-66 -225q-81 -37 -170 -37 q-41 0 -68.5 3.5t-56.5 13.5t-48.5 33t-30.5 58q-155 -116 -349 -116q-146 0 -230.5 69t-84.5 189zM252 266q0 -57 36.5 -90t104.5 -33q115 0 196.5 70t108.5 156l33 102h-96q-89 0 -158 -13.5t-110.5 -34t-68 -48.5t-36.5 -54.5t-10 -54.5zM414 1147l69 246h234l-70 -246 h-233zM823 1147l70 246h233l-69 -246h-234z" />
<glyph unicode="&#xe5;" horiz-adv-x="1157" d="M-2 238q0 81 39 154t112 130t189.5 91t259.5 34h178l17 53q25 81 -19 131t-137 50q-94 0 -159 -50t-87 -135h-254q36 115 126 195t204 116.5t244 36.5q204 0 284 -91t35 -236l-129 -414q-12 -41 10.5 -65.5t73.5 -24.5q59 0 117 37l-66 -225q-81 -37 -170 -37 q-41 0 -68.5 3.5t-56.5 13.5t-48.5 33t-30.5 58q-155 -116 -349 -116q-146 0 -230.5 69t-84.5 189zM252 266q0 -57 36.5 -90t104.5 -33q115 0 196.5 70t108.5 156l33 102h-96q-89 0 -158 -13.5t-110.5 -34t-68 -48.5t-36.5 -54.5t-10 -54.5zM541 1298q0 135 103.5 236.5 t229.5 101.5q91 0 140 -46.5t49 -125.5q0 -132 -106 -235t-230 -103q-92 0 -139 47t-47 125zM680 1352q0 -36 23.5 -59t62.5 -23q60 0 101.5 42t41.5 99q0 34 -23.5 56t-64.5 22q-59 0 -100 -39.5t-41 -97.5z" />
<glyph unicode="&#xe6;" horiz-adv-x="1599" d="M0 250q0 110 70 203.5t195 148.5t276 55h182l10 39q20 76 -19.5 121t-123.5 45q-77 0 -135 -44t-78 -122h-250q44 162 179 255t323 93q105 0 184 -35.5t115 -101.5q153 137 340 137q152 0 221.5 -82t69.5 -225q0 -118 -37 -250h-645q-17 -83 -17 -147q0 -87 39 -129.5 t109 -42.5q45 0 84 16.5t71 48.5t54.5 62t48.5 74h225q-58 -174 -193 -281.5t-323 -107.5q-104 0 -177 45.5t-110 124.5q-176 -170 -391 -170q-137 0 -217 75.5t-80 194.5zM252 274q0 -50 33.5 -79t95.5 -29q98 0 167.5 60t92.5 139l35 127q-105 0 -184.5 -15t-124 -37 t-71.5 -53t-35.5 -57.5t-8.5 -55.5zM938 659h391q20 88 -12 144.5t-119 56.5q-75 0 -143 -54.5t-117 -146.5z" />
<glyph unicode="&#xe7;" horiz-adv-x="1107" d="M29 -444q0 33 14 71h172q-6 -15 -6 -30q0 -26 20 -41t56 -15q74 0 120 40t46 95q0 34 -24.5 54t-66.5 20q-85 0 -153 -72l-105 43l234 267q-135 24 -206 120t-71 236q0 127 52 253.5t140 225t216 160t268 61.5q85 0 148 -24.5t97 -60.5t54 -89t25.5 -96.5t5.5 -97.5 q0 -36 -8 -82h-238q4 36 4 53q0 80 -38.5 126t-120.5 46q-96 0 -182.5 -62.5t-137.5 -162t-51 -203.5q0 -94 50 -140t136 -46q55 0 102 17t86.5 52t62 62t56.5 74h213q-19 -67 -63.5 -135.5t-108 -130t-151.5 -105t-184 -55.5l-105 -103q24 6 51 6q89 0 143 -44.5t54 -127.5 q0 -141 -107.5 -233t-269.5 -92q-101 0 -165 44t-64 122z" />
<glyph unicode="&#xe8;" horiz-adv-x="1093" d="M47 348q0 96 32.5 195.5t94 188.5t142.5 159.5t187 111.5t218 41q161 0 243.5 -90t82.5 -262q0 -102 -35 -233h-733q-3 -24 -3 -49q0 -205 199 -205q45 0 85.5 11.5t66.5 25t52.5 37.5t37 36t26.5 33h226q-17 -44 -48.5 -91.5t-82.5 -97.5t-112 -89.5t-143.5 -64.5 t-170.5 -25q-175 0 -270 102t-95 266zM340 664h489q13 84 -32 140t-142 56q-99 0 -181 -52t-134 -144zM492 1413h360l-21 -287h-188z" />
<glyph unicode="&#xe9;" horiz-adv-x="1093" d="M47 348q0 96 32.5 195.5t94 188.5t142.5 159.5t187 111.5t218 41q161 0 243.5 -90t82.5 -262q0 -102 -35 -233h-733q-3 -24 -3 -49q0 -205 199 -205q45 0 85.5 11.5t66.5 25t52.5 37.5t37 36t26.5 33h226q-17 -44 -48.5 -91.5t-82.5 -97.5t-112 -89.5t-143.5 -64.5 t-170.5 -25q-175 0 -270 102t-95 266zM340 664h489q13 84 -32 140t-142 56q-99 0 -181 -52t-134 -144zM598 1126l143 287h394l-316 -287h-221z" />
<glyph unicode="&#xea;" horiz-adv-x="1093" d="M47 348q0 96 32.5 195.5t94 188.5t142.5 159.5t187 111.5t218 41q161 0 243.5 -90t82.5 -262q0 -102 -35 -233h-733q-3 -24 -3 -49q0 -205 199 -205q45 0 85.5 11.5t66.5 25t52.5 37.5t37 36t26.5 33h226q-17 -44 -48.5 -91.5t-82.5 -97.5t-112 -89.5t-143.5 -64.5 t-170.5 -25q-175 0 -270 102t-95 266zM340 664h489q13 84 -32 140t-142 56q-99 0 -181 -52t-134 -144zM408 1126l245 287h316l82 -287h-197l-76 144l-157 -144h-213z" />
<glyph unicode="&#xeb;" horiz-adv-x="1093" d="M47 348q0 96 32.5 195.5t94 188.5t142.5 159.5t187 111.5t218 41q161 0 243.5 -90t82.5 -262q0 -102 -35 -233h-733q-3 -24 -3 -49q0 -205 199 -205q45 0 85.5 11.5t66.5 25t52.5 37.5t37 36t26.5 33h226q-17 -44 -48.5 -91.5t-82.5 -97.5t-112 -89.5t-143.5 -64.5 t-170.5 -25q-175 0 -270 102t-95 266zM340 664h489q13 84 -32 140t-142 56q-99 0 -181 -52t-134 -144zM416 1147l69 246h234l-70 -246h-233zM825 1147l70 246h233l-69 -246h-234z" />
<glyph unicode="&#xec;" horiz-adv-x="487" d="M-23 0l291 1024h238l-291 -1024h-238zM182 1413h361l-21 -287h-188z" />
<glyph unicode="&#xed;" horiz-adv-x="487" d="M-23 0l291 1024h238l-291 -1024h-238zM289 1126l143 287h393l-315 -287h-221z" />
<glyph unicode="&#xee;" horiz-adv-x="487" d="M-23 0l291 1024h238l-291 -1024h-238zM98 1126l246 287h315l82 -287h-196l-76 144l-158 -144h-213z" />
<glyph unicode="&#xef;" horiz-adv-x="487" d="M-23 0l291 1024h238l-291 -1024h-238zM106 1147l70 246h234l-70 -246h-234zM516 1147l70 246h233l-69 -246h-234z" />
<glyph unicode="&#xf0;" horiz-adv-x="1116" d="M35 336q0 121 53 232.5t142 193.5t212.5 131t259.5 49q92 0 162 -31q-14 85 -43 174l-299 -61l35 119l227 47q-42 100 -96 203h258q40 -78 66 -158l278 57l-35 -118l-211 -44q54 -193 54 -382q0 -216 -87 -390.5t-249.5 -276t-372.5 -101.5q-174 0 -264 98t-90 258z M268 379q0 -83 49 -128.5t142 -45.5q152 0 260 98t108 240q0 78 -49 126t-141 48q-155 0 -262 -102t-107 -236z" />
<glyph unicode="&#xf1;" horiz-adv-x="1089" d="M-25 0l293 1024h226l-25 -86q164 106 332 106q119 0 181 -68t62 -169q0 -49 -18 -111l-201 -696h-233l194 676q7 28 7 45q0 52 -37.5 80t-104.5 28q-205 0 -278 -256l-164 -573h-234zM367 1151q22 113 91.5 187.5t180.5 74.5q52 0 105 -25.5t98.5 -51t81.5 -25.5 q80 0 88 108l162 -20q-31 -145 -93.5 -209t-154.5 -64q-55 0 -117 25t-115 49.5t-86 24.5q-30 0 -43 -19t-18 -55h-180z" />
<glyph unicode="&#xf2;" horiz-adv-x="1157" d="M61 344q0 133 52 261t139.5 224.5t212 155.5t260.5 59q180 0 274.5 -101t94.5 -263q0 -134 -49 -261t-134.5 -224t-211.5 -156t-269 -59q-169 0 -269 102t-100 262zM295 406q0 -97 52 -149t145 -52q148 0 258 122.5t110 290.5q0 97 -51.5 149t-144.5 52q-151 0 -260 -122 t-109 -291zM510 1413h360l-20 -287h-188z" />
<glyph unicode="&#xf3;" horiz-adv-x="1157" d="M61 344q0 133 52 261t139.5 224.5t212 155.5t260.5 59q180 0 274.5 -101t94.5 -263q0 -134 -49 -261t-134.5 -224t-211.5 -156t-269 -59q-169 0 -269 102t-100 262zM295 406q0 -97 52 -149t145 -52q148 0 258 122.5t110 290.5q0 97 -51.5 149t-144.5 52q-151 0 -260 -122 t-109 -291zM616 1126l144 287h393l-315 -287h-222z" />
<glyph unicode="&#xf4;" horiz-adv-x="1157" d="M61 344q0 133 52 261t139.5 224.5t212 155.5t260.5 59q180 0 274.5 -101t94.5 -263q0 -134 -49 -261t-134.5 -224t-211.5 -156t-269 -59q-169 0 -269 102t-100 262zM295 406q0 -97 52 -149t145 -52q148 0 258 122.5t110 290.5q0 97 -51.5 149t-144.5 52q-151 0 -260 -122 t-109 -291zM426 1126l246 287h315l82 -287h-197l-75 144l-158 -144h-213z" />
<glyph unicode="&#xf5;" horiz-adv-x="1157" d="M61 344q0 133 52 261t139.5 224.5t212 155.5t260.5 59q180 0 274.5 -101t94.5 -263q0 -134 -49 -261t-134.5 -224t-211.5 -156t-269 -59q-169 0 -269 102t-100 262zM295 406q0 -97 52 -149t145 -52q148 0 258 122.5t110 290.5q0 97 -51.5 149t-144.5 52q-151 0 -260 -122 t-109 -291zM387 1151q22 113 91.5 187.5t180.5 74.5q52 0 105 -25.5t98.5 -51t81.5 -25.5q80 0 88 108l162 -20q-31 -145 -93.5 -209t-154.5 -64q-55 0 -117 25t-114.5 49.5t-85.5 24.5q-30 0 -43.5 -19.5t-18.5 -54.5h-180z" />
<glyph unicode="&#xf6;" horiz-adv-x="1157" d="M61 344q0 133 52 261t139.5 224.5t212 155.5t260.5 59q180 0 274.5 -101t94.5 -263q0 -134 -49 -261t-134.5 -224t-211.5 -156t-269 -59q-169 0 -269 102t-100 262zM295 406q0 -97 52 -149t145 -52q148 0 258 122.5t110 290.5q0 97 -51.5 149t-144.5 52q-151 0 -260 -122 t-109 -291zM434 1147l70 246h233l-69 -246h-234zM844 1147l69 246h234l-70 -246h-233z" />
<glyph unicode="&#xf7;" horiz-adv-x="1409" d="M154 567l59 205l1128 21l-59 -205zM426 127l82 287h287l-82 -287h-287zM700 944l82 287h287l-82 -287h-287z" />
<glyph unicode="&#xf8;" horiz-adv-x="1146" d="M-158 -20l80 278l139 80v6q0 133 52 261t139.5 224.5t212 155.5t260.5 59q215 0 311 -147l258 147l-80 -278l-120 -70v-16q0 -134 -49 -261t-134.5 -224t-211.5 -156t-269 -59q-105 0 -185.5 41.5t-127.5 115.5zM301 475l508 291q-50 53 -145 53q-134 0 -237.5 -99 t-125.5 -245zM340 264q50 -59 152 -59q134 0 239 103t125 253z" />
<glyph unicode="&#xf9;" horiz-adv-x="1089" d="M43 217q0 49 18 111l201 696h234l-195 -676q-10 -42 -10 -63q0 -59 37 -90t100 -31q48 0 90 18t72 46t55.5 67.5t41.5 77t28 78.5l164 573h233l-293 -1024h-225l24 86q-164 -106 -331 -106q-119 0 -181.5 68t-62.5 169zM489 1413h361l-21 -287h-188z" />
<glyph unicode="&#xfa;" horiz-adv-x="1089" d="M43 217q0 49 18 111l201 696h234l-195 -676q-10 -42 -10 -63q0 -59 37 -90t100 -31q48 0 90 18t72 46t55.5 67.5t41.5 77t28 78.5l164 573h233l-293 -1024h-225l24 86q-164 -106 -331 -106q-119 0 -181.5 68t-62.5 169zM596 1126l143 287h394l-316 -287h-221z" />
<glyph unicode="&#xfb;" horiz-adv-x="1089" d="M43 217q0 49 18 111l201 696h234l-195 -676q-10 -42 -10 -63q0 -59 37 -90t100 -31q48 0 90 18t72 46t55.5 67.5t41.5 77t28 78.5l164 573h233l-293 -1024h-225l24 86q-164 -106 -331 -106q-119 0 -181.5 68t-62.5 169zM406 1126l245 287h316l82 -287h-197l-76 144 l-158 -144h-212z" />
<glyph unicode="&#xfc;" horiz-adv-x="1089" d="M43 217q0 49 18 111l201 696h234l-195 -676q-10 -42 -10 -63q0 -59 37 -90t100 -31q48 0 90 18t72 46t55.5 67.5t41.5 77t28 78.5l164 573h233l-293 -1024h-225l24 86q-164 -106 -331 -106q-119 0 -181.5 68t-62.5 169zM414 1147l69 246h234l-70 -246h-233zM823 1147 l70 246h233l-69 -246h-234z" />
<glyph unicode="&#xfd;" horiz-adv-x="1024" d="M-223 -336l63 217q63 -53 160 -53q92 0 164 49.5t72 130.5v25l-58 991h234l20 -754l459 754h258l-768 -1184q-68 -105 -181 -167t-241 -62q-100 0 -182 53zM563 1126l144 287h393l-316 -287h-221z" />
<glyph unicode="&#xfe;" horiz-adv-x="1171" d="M-115 -369l486 1762h217l-129 -459q44 42 125.5 76t169.5 34q168 0 265 -104.5t97 -275.5q0 -125 -52 -248.5t-138.5 -219.5t-210.5 -156t-258 -60q-155 0 -232 69l-114 -418h-226zM317 406q0 -95 54 -148t147 -53q150 0 257.5 122t107.5 291q0 95 -54 148t-147 53 q-148 0 -256.5 -122.5t-108.5 -290.5z" />
<glyph unicode="&#xff;" horiz-adv-x="1024" d="M-223 -336l63 217q63 -53 160 -53q92 0 164 49.5t72 130.5v25l-58 991h234l20 -754l459 754h258l-768 -1184q-68 -105 -181 -167t-241 -62q-100 0 -182 53zM381 1147l70 246h233l-70 -246h-233zM791 1147l69 246h234l-70 -246h-233z" />
<glyph unicode="&#x152;" horiz-adv-x="1740" d="M129 483q0 141 42.5 275.5t126 248.5t197 201t265 136t321.5 49h797l-66 -232h-495l-82 -284h463l-66 -232h-465l-118 -414h495l-65 -231h-799q-264 0 -407.5 129.5t-143.5 353.5zM401 541q0 -299 342 -299h56l260 909h-55q-137 0 -252.5 -49.5t-191 -134t-117.5 -194.5 t-42 -232z" />
<glyph unicode="&#x153;" horiz-adv-x="1693" d="M55 324q0 97 28.5 198.5t84.5 194.5t131 166t176.5 117t212.5 44q213 0 291 -180q173 180 385 180q152 0 222.5 -82.5t70.5 -224.5q0 -108 -37 -250h-641q-21 -71 -21 -139q0 -86 40 -128t110 -42t129 43t117 144h225q-66 -175 -205 -280t-321 -105q-105 0 -174 46.5 t-99 129.5q-176 -176 -397 -176q-163 0 -245.5 96.5t-82.5 247.5zM279 385q0 -92 43 -141t122 -49q93 0 175 65t128 166.5t46 208.5q0 91 -43.5 142.5t-122.5 51.5q-97 0 -179 -70t-125.5 -171.5t-43.5 -202.5zM1053 659h374q7 31 7 54q0 62 -30 99.5t-87 37.5 q-75 0 -143.5 -52t-120.5 -139z" />
<glyph unicode="&#x178;" horiz-adv-x="1232" d="M252 1393h266l191 -467l452 467h324l-701 -713l-194 -680h-244l195 682zM584 1516l69 245h234l-70 -245h-233zM993 1516l70 245h233l-69 -245h-234z" />
<glyph unicode="&#x2c6;" horiz-adv-x="1024" d="M471 1495l246 287h315l82 -287h-196l-76 143l-158 -143h-213z" />
<glyph unicode="&#x2dc;" horiz-adv-x="1024" d="M432 1520q22 112 92 187t181 75q41 0 83.5 -16t71.5 -35.5t64.5 -35.5t64.5 -16q79 0 88 109l162 -21q-31 -145 -93.5 -208.5t-154.5 -63.5q-55 0 -117 24.5t-114.5 49t-85.5 24.5q-30 0 -43.5 -19t-18.5 -54h-180z" />
<glyph unicode="&#x2000;" horiz-adv-x="1002" />
<glyph unicode="&#x2001;" horiz-adv-x="2005" />
<glyph unicode="&#x2002;" horiz-adv-x="1002" />
<glyph unicode="&#x2003;" horiz-adv-x="2005" />
<glyph unicode="&#x2004;" horiz-adv-x="668" />
<glyph unicode="&#x2005;" horiz-adv-x="501" />
<glyph unicode="&#x2006;" horiz-adv-x="334" />
<glyph unicode="&#x2007;" horiz-adv-x="334" />
<glyph unicode="&#x2008;" horiz-adv-x="250" />
<glyph unicode="&#x2009;" horiz-adv-x="401" />
<glyph unicode="&#x200a;" horiz-adv-x="111" />
<glyph unicode="&#x2010;" horiz-adv-x="718" d="M18 420l54 184h628l-53 -184h-629z" />
<glyph unicode="&#x2011;" horiz-adv-x="718" d="M18 420l54 184h628l-53 -184h-629z" />
<glyph unicode="&#x2012;" horiz-adv-x="718" d="M18 420l54 184h628l-53 -184h-629z" />
<glyph unicode="&#x2013;" horiz-adv-x="1114" d="M18 420l54 184h1024l-54 -184h-1024z" />
<glyph unicode="&#x2014;" horiz-adv-x="2138" d="M18 420l54 184h2048l-54 -184h-2048z" />
<glyph unicode="&#x2018;" horiz-adv-x="471" d="M184 840l78 282q41 149 135 220t244 71l-45 -143q-153 0 -197 -144h154l-82 -286h-287z" />
<glyph unicode="&#x2019;" horiz-adv-x="471" d="M174 819l45 144q154 0 197 143h-154l82 287h287l-78 -283q-41 -149 -135 -220t-244 -71z" />
<glyph unicode="&#x201a;" horiz-adv-x="471" d="M-141 -287l45 144q153 0 196 143h-153l82 287h286l-77 -283q-41 -149 -135 -220t-244 -71z" />
<glyph unicode="&#x201c;" horiz-adv-x="880" d="M184 840l78 282q41 149 135 220t244 71l-45 -143q-153 0 -197 -144h154l-82 -286h-287zM594 840l78 282q41 149 135 220t244 71l-45 -143q-153 0 -197 -144h154l-82 -286h-287z" />
<glyph unicode="&#x201d;" horiz-adv-x="880" d="M174 819l45 144q154 0 197 143h-154l82 287h287l-78 -283q-41 -149 -135 -220t-244 -71zM584 819l45 144q153 0 196 143h-153l82 287h286l-77 -283q-41 -149 -135 -220t-244 -71z" />
<glyph unicode="&#x201e;" horiz-adv-x="880" d="M-141 -287l45 144q153 0 196 143h-153l82 287h286l-77 -283q-41 -149 -135 -220t-244 -71zM268 -287l45 144q154 0 197 143h-154l82 287h287l-78 -283q-41 -149 -135 -220t-244 -71z" />
<glyph unicode="&#x2022;" horiz-adv-x="733" d="M70 360l145 508h508l-145 -508h-508z" />
<glyph unicode="&#x2026;" horiz-adv-x="1802" d="M-55 0l82 287h286l-82 -287h-286zM610 0l82 287h287l-82 -287h-287zM1276 0l82 287h287l-82 -287h-287z" />
<glyph unicode="&#x202f;" horiz-adv-x="401" />
<glyph unicode="&#x2039;" horiz-adv-x="1024" d="M88 408l59 208l811 381l-73 -254l-535 -247l393 -248l-63 -221z" />
<glyph unicode="&#x203a;" horiz-adv-x="1024" d="M66 27l73 254l535 247l-393 248l63 221l592 -381l-59 -208z" />
<glyph unicode="&#x205f;" horiz-adv-x="501" />
<glyph unicode="&#x20ac;" d="M41 455l53 184h146q7 30 28 104h-145l53 185h166q110 218 284 351.5t382 133.5q168 0 261 -98t93 -277q0 -78 -23 -196h-274q18 86 18 147q0 180 -153 180q-84 0 -166.5 -65t-147.5 -176h293l-53 -185h-326q-19 -55 -30 -104h325l-53 -184h-297v-19q0 -213 168 -213 q199 0 352 314h256q-99 -260 -281.5 -408.5t-406.5 -148.5q-164 0 -258 106t-94 295q0 49 2 74h-172z" />
<glyph unicode="&#x2122;" horiz-adv-x="1562" d="M244 1208l53 185h858l12 -455l277 455h252l-230 -799h-163l163 571l-346 -571h-114l-13 592l-170 -592h-176l176 614h-188l-176 -614h-185l177 614h-207z" />
<glyph unicode="&#x25fc;" horiz-adv-x="1024" d="M0 0v1024h1024v-1024h-1024z" />
</font>
</defs>
</svg>
