<?xml version="1.0" encoding="utf-8"?>
<!-- Generator: Adobe Illustrator 24.2.3, SVG Export Plug-In . SVG Version: 6.00 Build 0)  -->
<svg version="1.1" id="Layer_1" xmlns="http://www.w3.org/2000/svg" xmlns:xlink="http://www.w3.org/1999/xlink" x="0px" y="0px"
	 viewBox="0 0 1400.02 150" style="enable-background:new 0 0 1400.02 150;" xml:space="preserve">
<g>
	<path d="M90.74,68.24c0,0,0.59,1.03,0,2.06c0,0,1.03,0.44,1.03-0.59C91.76,68.68,91.32,68.24,90.74,68.24z"/>
	<path d="M88.68,55.59c0,0,0.44,2.06,0,3.09c0,0,1.62-1.03,1.62-1.47C90.29,56.62,89.12,55.59,88.68,55.59z"/>
	<path d="M92.79,65c0.59-1.03,0-2.65,0-3.68c0-1.03-1.03-2.06-1.03-2.06C92.79,60.88,91.76,66.03,92.79,65z"/>
	<path d="M89.71,51.32c0,0,0.59,1.62,0.59,2.65c0,0,0.44-0.44,0.44-1.62C90.29,51.32,89.71,51.32,89.71,51.32z"/>
	<path d="M89.71,40.29c0-0.44-0.59-1.03-1.03-1.03c0,0,0.44,1.03,0,2.06C88.68,41.32,89.71,40.88,89.71,40.29z"/>
	<path d="M85.44,46.18c0,0,0.59,2.06,0,3.09c0,1.03,1.62-0.59,1.62-1.03C87.06,47.65,86.03,46.18,85.44,46.18z"/>
	<path d="M294.12,0H150h-2.94H0v150h147.06H150h144.12h2.94h147.06V0H297.06H294.12z M113.82,134.41
		c-5.15,2.5-46.76-1.62-46.76-1.62h-0.15c-8.38-1.03-20.44-5.15-20.74-21.62c0-25.15,14.12-67.65,19.41-76.62
		c5.74-9.41,20.44-16.32,22.06-13.68c5.15,7.94,16.76,82.5,7.35,102.94c-0.59,1.32-1.47,2.35-2.79,3.38
		C102.35,127.65,118.09,132.21,113.82,134.41z M216.47,10.59l6.18,9.85l6.03-9.85l13.09,8.09l-10.15,16.47l23.09,37.5l-13.09,8.09
		L230.3,62.5v18.38h-15.44V62.5l-11.32,18.24l-13.09-8.09l23.09-37.5l-10.29-16.47L216.47,10.59z M159.86,29.71h7.94V15h15.44v14.71
		h8.09v15.44h-8.09v21.32H167.8V45.15h-7.94V29.71z M165.74,113.97l-1.47-15.44c7.35-0.74,11.91-2.5,11.91-19.71h15.44
		c0,17.21,4.71,18.97,12.06,19.71l-1.47,15.44c-8.53-0.88-14.26-3.97-18.24-8.09C180.15,110,174.41,113.09,165.74,113.97z
		 M245.74,137.06c-9.85-1.03-17.94-6.03-23.38-13.97c-5.59,7.94-13.68,12.94-23.38,13.97l-1.62-15.29
		c10.29-1.03,17.21-11.03,17.21-24.85H230v0.15c0,13.68,6.91,23.68,17.35,24.71L245.74,137.06z M280,113.97
		c-8.53-0.88-14.26-3.97-18.09-8.09c-3.97,4.12-9.71,7.21-18.38,8.09l-1.47-15.44c7.5-0.74,12.06-2.5,12.06-19.71h15.44
		c0,17.21,4.56,18.97,12.06,19.71L280,113.97z M284.27,45.15h-8.09v21.32h-15.44V45.15h-8.09V29.71h8.09V15h15.44v14.71h8.09V45.15z
		 M411.33,59.85c2.06-6.18,3.24-8.09,2.94-13.38c0.44-4.26-3.38-8.68-2.5-14.41c1.03-5.15,2.35-9.12,1.32-12.65
		c-0.15-1.62,1.32-2.79,2.79-2.06c4.12,0.88,4.71,11.76,2.79,16.32c-0.74,6.62,4.41,11.47,1.76,17.94
		c-9.26,19.85,3.68,22.21-3.24,23.68C412.36,74.27,409.56,65.29,411.33,59.85z M386.92,46.18c-1.32,1.03-2.21,3.68-3.97,3.53
		c-5.44-0.88,1.76-7.94,3.82-8.09C391.33,41.62,388.68,45.74,386.92,46.18z M392.21,45.15c3.53-1.47,4.26,2.79,2.06,3.68
		c-2.35,1.32-4.71,3.82-6.03,3.68C382.65,50.44,390.89,46.62,392.21,45.15z M381.62,51.77c-0.15,0.44-1.91,2.94-3.53,5.29
		c-1.47,2.21-1.62,3.38-3.09,3.38c-5.29-0.44,1.91-7.79,2.94-10.44C379.12,48.38,382.5,49.12,381.62,51.77z M382.8,52.5
		c3.24-2.79,4.85,1.62,2.65,3.23c-2.79,3.24-3.97,6.62-6.32,6.62C373.83,61.32,381.92,54.71,382.8,52.5z M386.62,57.94
		c1.76-1.62,4.26,0.88,2.79,2.65c-1.18,1.03-5.74,5.88-6.91,5.74C376.77,64.56,385.45,59.56,386.62,57.94z M383.09,71.47
		c2.94-0.44,3.09,3.09,1.18,3.68c-1.32,0.59-4.12,2.35-4.85,2.35C373.53,75.29,380.89,72.35,383.09,71.47z M383.53,70.88
		c-4.71-1.47,0.29-5.15,2.21-6.32C392.21,64.71,385.15,71.03,383.53,70.88z M392.36,67.06c0,1.62-0.44,3.97-2.5,4.12
		C384.86,70.88,390.74,61.62,392.36,67.06z M392.36,58.97c2.94-1.18,3.97,6.32,1.32,6.03C391.03,66.62,390,58.97,392.36,58.97z
		 M392.21,57.5c-5.74-1.62,2.65-7.5,3.97-6.62C400.3,52.5,393.83,57.21,392.21,57.5z M403.09,48.38c-1.03,1.32-3.53,4.12-4.12,3.68
		C393.39,47.79,403.97,47.35,403.09,48.38z M403.09,42.21c0,0-2.94,4.56-4.41,4.56c-0.59,0-4.12-3.53-2.5-3.53
		C396.18,43.24,403.09,40.74,403.09,42.21z M396.33,39.41c-0.59,0.88-2.06,2.5-5.15,2.35C385.59,38.53,399.12,36.47,396.33,39.41z
		 M380.15,15.59c1.91-3.97,14.26,6.91,10.74,9.85c-10,6.18-1.18,10.59-5.88,11.91c-5-1.91-4.85-4.12-4.71-7.65
		c1.18-2.06,5.15-7.06,0.44-10.59C379.86,18.38,379.42,16.76,380.15,15.59z M378.09,40.29c7.35-4.26,3.38,1.91,1.32,2.79
		C379.56,43.53,377.5,41.03,378.09,40.29z M375.89,41.77c5.29,0.44-0.29,6.62-1.47,6.32C369.86,47.35,374.27,42.06,375.89,41.77z
		 M370.15,53.38c0.74-1.47,0.15-2.5,1.18-3.68c6.62-3.09,1.91,10.15-0.29,9.26C367.5,58.68,369.42,55.29,370.15,53.38z
		 M368.97,60.59c5-0.59,9.41,4.56,10.15,5.44c2.94,3.53-5.44,13.24-5.44,12.21c-5.29,0-9.71-4.85-9.85-6.47
		C363.68,68.24,365,61.91,368.97,60.59z M361.33,93.53c2.5,0,1.47,5.29-0.59,5.29c-2.94,0-3.09-1.91-5-1.91c-2.65,0-1.91-5,0-5
		c1.03,0,6.32-8.97,6.32-10.74c0-1.62-2.21-4.56,0.15-5.59c2.79-0.88,3.53,1.03,5.59,1.91c2.21,1.03,3.24,1.18,3.24,3.68
		c0,3.24-5.29,4.85-5.88,5.88C364.56,88.09,360.74,93.53,361.33,93.53z M343.09,22.5c1.32-10.29,11.03-9.71,7.5-3.53
		c-0.29,0.88-0.59,2.06-0.59,3.53c-0.15,1.18,0,2.35,0.59,3.68c3.53,6.18,1.18,13.09-0.29,16.62c-3.53,7.79,5.29,13.09-1.47,13.82
		c-3.24,0.15-5.74-8.38-5.74-10.44c0.15-3.97,2.21-6.03,2.35-11.32C346.33,30,342.65,26.47,343.09,22.5z M317.5,25.88
		c2.79-16.32,11.18-8.53,7.79-5.59c-0.59,0.88-3.82,5.15-1.76,10.74c7.65,18.53,0.59,20,1.03,25.88c-0.15,1.91,3.09,5.59,4.26,8.23
		c2.06,5-1.18,9.85-4.56,10.15c-6.76-2.79,2.35-5.44-0.74-8.97c-9.26-13.38,0.59-14.41-2.21-25.44
		C320.89,37.5,316.77,31.32,317.5,25.88z M317.36,97.5c0.59-22.06,13.53-8.97,19.71-31.18c2.65-3.53,9.56-1.91,12.79-2.94
		c2.79-1.03,2.65-2.94,7.5-2.94c10.74,0.15,7.5,1.18,6.76,3.68c-2.35,6.03-0.44,8.82-3.53,11.03c-2.35,3.24,1.47,6.47-1.18,9.85
		c-4.85,8.97-6.03,5.44-6.91,7.5c-1.91,9.85,3.38,4.41,4.41,5.74c8.09,5.44,7.5-2.06,7.35-5.74c0.29-3.09,3.68-6.32,6.91-8.24
		c5.59-5.44-2.79-1.32,8.68-6.18c15.15-6.32,9.41-7.21,14.71-11.18c2.21-1.77,7.35,0.74,8.97,1.62c8.24,4.12,15.74,16.32,12.5,38.53
		c-2.35,11.18-9.56,13.68-12.79,17.06c-3.09,3.09,1.03,11.47-19.26,12.94c-2.21,0.88-1.18,3.24-6.03,3.24
		c-0.59,0-12.94,0.88-12.94-0.59c0-2.35-4.26-2.94-12.35-2.94c-4.26,0-8.97-7.5-12.21-7.5c-3.82,0-13.97-3.82-13.97-7.35
		c0-2.94-11.76-9.71-11.76-12.35C314.71,102.65,312.8,97.5,317.36,97.5z"/>
	<path d="M883.84,45c-10.59,0-18.97,18.97-21.03,43.68h42.06C902.66,63.97,894.28,45,883.84,45z"/>
	<path d="M1335.46,46.18c0,0,0.59,2.06,0,3.09c0,1.03,1.62-0.59,1.62-1.03C1337.08,47.65,1336.05,46.18,1335.46,46.18z"/>
	<path d="M1339.72,51.32c0,0,0.59,1.62,0.59,2.65c0,0,0.44-0.44,0.44-1.62C1340.31,51.32,1339.72,51.32,1339.72,51.32z"/>
	<path d="M1338.69,55.59c0,0,0.44,2.06,0,3.09c0,0,1.62-1.03,1.62-1.47C1340.31,56.62,1339.14,55.59,1338.69,55.59z"/>
	<path d="M1252.96,0h-2.94H1105.9h-2.94H958.84h-2.94H811.77h-2.94H664.71h-2.94H514.71v150h147.06h2.94h144.12h2.94H955.9h2.94
		h144.12h2.94h144.12h2.94h147.06V0H1252.96z M647.95,126.62c-0.44,0.74-1.18,1.32-2.06,1.47l-28.09,2.94
		c0,0.15-0.15,0.15-0.29,0.15c-1.03,0-2.21-0.74-2.5-1.91l-22.06-68.53L592.51,125c0,0.59-0.29,1.32-0.88,1.76
		c-0.44,0.44-0.88,0.74-1.91,0.74l-55.74-0.59c-0.88,0-1.76-0.44-2.21-1.18c-0.44-0.88-0.44-1.91,0-2.65l55-96.47l-3.97-7.06
		c-0.74-1.32-0.29-2.94,1.03-3.53c1.32-0.74,2.94-0.29,3.53,0.88l2.5,4.41l2.5-4.41c0.74-1.18,2.35-1.62,3.53-0.88
		c1.32,0.74,1.76,2.21,1.03,3.53l-3.97,7.06l55,97.5C648.39,125,648.39,125.88,647.95,126.62z M724.13,27.06
		c-1.47-5.74-12.06-8.82-20.44-8.38c-1.62,0-12.06,1.03-17.94,8.97c-7.79,10.44-4.12,28.82,4.26,36.76
		c10.59,10.44,30.44,5.29,49.41,0c19.41-5.29,39.41-10.59,51.47,1.03c9.41,9.41,10.44,27.35,7.35,40
		c-2.06,12.06-8.97,26.76-20,30.88c-6.32,2.65-14.71,2.21-22.06-1.47c-5.29-2.65-8.97-6.32-10-10.59
		c-1.47-5.29,1.03-8.97,3.24-12.06c2.06-2.65,3.09-4.71,2.65-6.76c-1.18-7.35-17.94-14.27-33.09-15.29
		c-10-0.59-25.74-2.06-33.24,8.38c-4.12,5.74-6.18,16.32-1.03,23.68c5.88,8.97,18.97,10.44,26.91,6.32
		c6.76-3.68,9.85-11.03,12.06-16.32c2.06-4.26,3.68-8.38,7.79-7.94c4.26,0.59,6.32,4.85,5.88,26.32h4.71c2.06,0,3.68,1.62,3.68,3.68
		s-1.62,3.68-3.68,3.68h-15.74c-2.21,0-3.68-1.03-3.68-3.09c0-2.21,1.47-3.68,3.68-3.68h2.06c0.44-6.32,0-10.59,0-13.68
		c-2.65,5.74-6.91,13.68-14.71,17.79c-11.03,5.29-27.94,3.24-36.32-8.97c-6.76-10.44-4.12-24.12,1.62-32.5
		c10-13.68,28.97-12.06,39.41-11.03c15.29,1.03,38.38,7.94,40.44,21.47c1.03,5.29-1.62,8.97-3.68,12.21
		c-1.62,2.5-2.65,4.12-2.06,5.74c0.44,2.06,3.09,4.12,6.32,5.74c5.15,2.65,12.06,3.23,16.18,1.62c6.91-2.65,13.24-12.65,15.88-25.29
		c2.5-14.12,0.44-27.21-5.88-33.53c-8.38-8.97-25.74-4.27-44.12,1.03c-21.03,5.74-43.09,11.62-56.76-2.06
		c-11.03-10.59-15.15-32.65-5.15-46.32c7.35-10,19.85-11.47,23.53-11.47c11.03-1.03,24.71,3.68,26.91,13.68
		c2.06,5.15,0,8.82-1.62,12.06c-1.03,2.06-1.62,3.09-1.03,4.12c1.03,2.21,4.71,4.71,12.06,6.32c11.47,2.65,26.32,1.03,37.35-6.32
		c-12.65-4.12-22.21-15.15-24.26-28.38c0-1.03,1.03-1.47,2.06-1.03c11.62,6.32,24.71,7.94,37.35,5.29c0.59-1.03,0.59-1.62,0.59-2.06
		c0-2.21,2.06-3.68,4.12-3.68c2.21,0.44,3.24,2.06,3.24,3.68c-1.62,11.03-5.88,19.85-12.65,26.76
		c-12.65,13.09-33.68,15.15-48.82,12.06c-9.56-2.06-15.74-5.74-17.35-11.03c-1.62-3.68,0-7.35,1.62-10
		C724.13,30.74,724.72,29.26,724.13,27.06z M886.92,129.56c0,1.62-1.47,3.24-3.09,3.24c-1.62,0-3.24-1.03-3.24-3.24v-28.38h6.32
		V129.56z M930.6,97.5h-4.71c3.09,0,5.15-3.09,4.71-6.18c0-0.59-0.59-1.62-0.59-2.65h-24.71v2.65c0,3.68-0.44,6.18-2.06,6.18h-38.38
		c-1.03,0-2.06-3.09-2.06-6.18v-2.65h-25.29c0,0.44-0.44,1.47-0.44,2.65c-0.59,3.09,1.62,6.18,4.71,6.18h-4.71
		c-3.24,0-5.74-3.09-5.29-6.18c0-0.59,0.59-1.62,0.59-2.65C837.07,63.97,858.54,45,883.84,45h-3.24v-6.76
		c0-2.06,1.62-3.23,3.24-3.23c1.62,0,3.09,1.18,3.09,3.23V45h-3.09c25.15,0,46.76,18.97,51.47,43.68c0,1.03,0.44,1.47,0.44,2.65
		C936.34,95,933.69,97.5,930.6,97.5z M1092.95,43.97c-3.09,0-10.59-8.09-10.59-6.62c0,0,0.59,5.29,0.59,6.91s0.44,3.53,1.18,5.74
		c0.74,2.21-2.65,0.29-2.65-3.09c0-15.15-10.29-15.15-11.32-15.15c-0.88,0-1.62,0.44-2.06,0.44c-0.59,0,1.91,1.91,1.91,6.47
		c0,3.97-1.18,5.29-1.18,7.79c0,2.35,3.53,3.82,3.53,10.29c0,6.47,0.44,4.56,2.94,7.21c2.35,2.5,0.59,3.53,7.35,7.35
		c6.77,3.82,6.18,9.12,6.18,10.59c0,1.47-1.62,2.06-1.62,0.15s-1.91-8.38-5.29-8.38c-2.94,0-3.68-0.88-3.82-1.91
		c0,1.77-0.29,6.47-3.38,6.47c-1.91,0-1.32-0.88-0.74-0.88c2.5,0,2.65-4.12,1.03-9.41c-1.76-5.29-4.85-2.79-4.85-6.91
		s-1.18-6.47-2.65-8.38c-1.32-1.91-4.26-5.29-3.24-9.56c0.88-4.41-1.76-5.74-3.38-6.77c-1.76-0.88-8.97-9.12-14.41-9.12
		c-0.74,0-3.82,6.03-8.68,6.03c-4.71,0,15.44-0.74,15.44,16.32c0,3.09-2.5,1.91-2.5,0.44c0-1.47-2.79-12.94-10.29-12.94
		c-6.62,0-6.18,3.09-6.03,4.26v0.29c0,0,11.03,11.91-8.09,24.85c-6.03,4.12-9.85,7.79,0,9.85c17.79,3.82,27.06,15.15,23.97,28.09
		c-0.29,0.88,14.41,1.91,14.41,11.91c0,1.47,2.06,2.06,2.06,3.23c0,0.88,0.74,1.18,3.38,1.18c5.74,0,15.44,0.44,15.44,1.91
		c0,2.79-3.24,0-10.44,0.29l1.47,2.06c1.03,1.76-0.88,1.91-2.65,0.74c-1.62-1.18-4.26-1.91-6.91-1.91c-0.88,0-4.26,1.47-6.47,1.47
		s-3.53-1.47-3.82-1.47c-0.29,0,0.74,7.5-4.26,7.5c-1.03,0-2.21-0.74-2.21-3.24c0-2.35-4.26-4.71-7.65-4.71
		c-3.38,0-7.21,1.62-11.03,1.62c-3.82,0-15.59-0.15-15.59,5c0,6.47,2.79,8.23,0.29,8.23c-2.65,0-4.41-5-4.41-7.5
		c0,0,1.03-7.35,4.12-7.35c1.18,0-12.21-1.03-12.21,4.71c0,4.12-1.91,3.68-1.91,2.21c0-3.82-1.03-0.88-1.03-5.29
		c0-2.65-9.12,7.94-9.12,7.94c0,0.29-1.62,1.03-1.62-1.18c0-1.47,4.27-7.94,4.71-8.68c0.59-0.74-1.62-0.15-2.5,0.74
		c-1.03,1.03-4.12,5-4.12,1.47c0-1.03,0.88-3.09,1.32-3.68c-0.59,0.29-2.5,0.74-4.26,0.74c-3.82,0-3.82,0.59-5,0.59
		c-1.18,0-2.21-2.21,1.03-2.21c11.18,0,8.38-7.21,14.12-7.21s7.21-4.56,7.21-4.56s4.56-8.09,11.76-8.09c-0.74-1.77-0.59-4.41,0-5.88
		c0.88-3.09,3.24-4.41,3.53-6.18c0.44-5.29-5.29-10-7.65-11.91c-3.68-2.94-7.5-11.76-3.68-17.5c3.82-5.88,22.06-13.68,22.06-17.06
		c0-4.12-6.62-3.09-6.62-9.12c0-2.94,4.26-4.56,4.26-6.18c0-0.74-3.82-0.59-3.82-4.85c0-1.62-2.21-3.09-5.74-3.09
		c-3.68,0-7.65,4.71-10.29,4.71c-2.65,0-12.5,7.21-12.5,12.79c0,1.62-2.21,1.18-2.21,3.82c0,2.65-1.18,0.74-1.18,6.62
		c0,2.21,1.47,1.76,1.47,3.68c0,1.91-3.82,0.44-3.82-2.94l-0.29-5c-1.47,1.91-4.26,3.09-4.26,5.59c0,2.35-1.03,1.62-1.03,2.65
		c0,0.88,0.74,7.79-0.74,7.79c-1.32,0-1.32-5-1.32-6.91c0-1.91-1.76,1.91-1.76,2.35c0,0.59,0.29,3.38-0.74,3.38
		c-0.88,0-1.32-0.44-1.32-2.06c0-1.91,2.65-6.03,3.53-7.79c1.76-2.5,12.06-9.71,12.06-13.09c0-2.5,7.35-11.76,11.47-11.76
		c0.88,0-9.56-2.21-12.5-2.21c-7.94,0-16.03,8.68-16.03,16.32c0,3.38-1.47,3.68-1.47,2.21c0,0-0.88-4.41,0.44-8.38
		c0.59-1.47-4.71,7.65-4.71,12.21c0,1.18-1.47,1.47-1.47-0.44c0-4.85,7.21-23.53,19.41-23.53c1.03,0-5.44-5-18.68-5
		c-1.03,0-0.74-1.47,0.15-1.47h8.68c6.76,0,10.59,5.44,19.85,5.44c14.85,0,11.03-5,21.32-5c5.88,0,10.15,9.56,14.41,9.56
		c0,0,0.74-2.35,9.41-2.35c0.29,0,4.56-3.38,10.29-3.38c2.65,0,6.47,1.47,8.82,1.47c2.94,0,8.23-5.74,18.53-5.74
		c8.53,0,12.94,8.09,13.09,8.82c0.29,0.44-0.88,1.18-1.91-0.29c-1.62-2.79-3.53-6.47-12.94-6.47c-0.44,0,6.32,1.32,6.32,5.29
		c0,1.18-2.5,1.03-2.5,0c0-0.88-3.23-3.53-5.74-3.53c-1.91,0-5.74,6.03-16.76,6.03c-7.79,0-6.62,0.44-6.47,0.74
		c0.59,0.15,3.68,5.15,17.06,5.15C1073.1,28.38,1098.54,43.97,1092.95,43.97z M1156.34,26.62c0-1.32,1.32-1.32,1.32-2.5
		c-1.91,0.59-3.68,1.91-5,3.09c0-4.26-3.09-1.91-5.44,0c7.5-9.71,19.71,0.29,19.71-0.59c2.06-0.74,3.38-4.12,5-4.71
		c5.15-3.24,13.38-3.24,16.47,0.44c-1.91,0-6.77-1.91-6.77,1.18c-7.94-4.26-16.62,5.59-13.38,6.62c1.47-0.88,8.09-5.15,9.26-5.44
		c3.24-0.44,8.24,1.47,8.97,5c-2.35-1.32-4.85-3.68-4.85-0.74c-3.68-2.35-6.76-4.85-5.44,0.74c-1.18-0.29-10.29-0.29-5.44,1.18
		c7.35,0.88,11.62,5.44,11.91,10.74c-2.65-5.44-2.21,0.44-3.53,0.88c0-2.5,0.74-7.35-3.68-5.44c-0.44-2.21-2.06-3.82-3.82-4.41
		c-4.26-3.23-2.94,13.38-2.94,14.71c0.29,6.47-0.88,14.12,0.29,21.32c1.03,12.06,12.94,7.94,21.18,11.91
		c8.53,2.06,20.59,14.56,20.29,19.56c-4.12,0-7.35-3.53-11.18-5.15c-7.35-3.53-10.74,3.09-15.88,3.82
		c-11.03-1.76-10.88-10.74-21.62-1.03c-9.12,4.71-9.12-11.62-22.5-3.82c0.59-4.85,23.82-20.15,24.41-18.38
		c3.68-6.62,2.65-14.71,2.5-22.06c0.59-6.18,0.44-14.12,0.59-19.56c-0.29-0.29-2.94-1.32-2.35-1.47c2.94-1.03,1.03-2.06-0.59-2.21
		c-2.21,0-4.26,1.91-6.18,2.35c0.74-4.41-5.59,3.82-5.59,4.41c0-0.74,0-0.74,0.59-1.32c-1.18-1.18-4.85,3.09-5.44,3.09
		c0-8.53,14.71-7.94,18.97-9.85C1165.02,26.62,1158.84,26.62,1156.34,26.62z M1182.81,41.91v1.18
		C1182.81,43.09,1181.63,41.91,1182.81,41.91z M1204.28,71.32c0.44-0.44,1.18-0.88,2.06-0.88
		C1205.75,70.59,1205.16,70.88,1204.28,71.32z M1212.22,107.79c-6.91,3.09-12.79-7.35-17.79-5.44c-0.88,0.74-6.76,4.12-8.68,4.71
		c-5.88,1.32-14.12-6.32-16.76-4.41c-2.5,1.03-4.56,3.97-8.82,5.29c-12.94,2.65-12.21-13.53-26.47-2.65
		c0.74-4.41,3.38-6.62,7.06-8.24c7.79-4.12,12.21,7.94,20,5.88c1.32-0.29,2.65-1.18,3.53-2.06c7.5-7.65,10.29,2.21,18.09,0.74
		c7.21,0.15,5.44-3.82,11.47-4.26c2.35,0,6.18,1.91,9.12,3.68C1207.22,102.94,1211.05,102.21,1212.22,107.79z M1165.6,34.56
		c-2.5,1.18-4.27,3.09-5,5.44c-0.88-0.44,0-1.77-1.18-1.77c0,1.62-1.03,3.53-1.62,5.15c0-0.29-0.44-0.74-0.88-0.29
		c-0.74,1.18-1.91,4.85-2.94,6.18C1152.66,36.32,1164.57,31.32,1165.6,34.56z M1125.16,60.29c0-6.18,4.85-8.68,10.15-7.65
		c5.74-5.29,12.21,3.82,6.91,8.23c5.44-0.29,3.82,5.88,1.91,6.18h-26.32C1117.37,61.47,1120.16,58.53,1125.16,60.29z M1117.81,86.03
		c-2.35,1.18-5.44-0.29-6.76-2.5c1.62,1.18,4.12,1.76,5.88,0.88c11.76-8.68,11.91,4.56,20.44-1.47
		C1128.1,91.62,1128.1,73.82,1117.81,86.03z M1155.75,133.24c-18.68,10-19.71-5.15-34.85,0.59c12.35-7.06,15.88,1.62,23.82,1.18
		c11.03-2.06,12.35-7.5,22.06-1.18C1163.69,132.65,1159.43,131.91,1155.75,133.24z M1187.81,114.71c-2.94,0.88-9.56,0.29-14.12-3.24
		c-2.65-1.03-4.41-0.74-5.88,0c-18.23,12.79-20.44-11.47-35.29,2.5c-1.18-5.74,5.29-11.62,11.18-10.74
		c5.74,1.91,9.85,8.23,16.47,6.76c3.09-0.15,7.94-4.56,8.97-5.74c4.26-2.65,10.74,6.32,15.15,5.29
		c21.62-10.15,13.97,4.85,28.68-0.15c0.59,0,0.88,0.59,1.32,1.47c4.71,11.62-14.85-0.74-18.53,0.59
		C1191.34,111.03,1189.87,113.82,1187.81,114.71z M1212.96,123.97c-6.18-2.79-11.91,4.12-17.79,0.29
		c9.71,3.09,11.32-5.59,21.47,1.03C1215.31,125.29,1214.13,123.97,1212.96,123.97z M1212.22,71.32c-0.59,0.15-1.18,0.44-1.62,0.59
		C1211.34,71.32,1211.78,71.32,1212.22,71.32c0.29-1.76,3.82-1.91,4.41,0C1215.31,70.44,1213.69,70.74,1212.22,71.32z
		 M1224.57,128.97c-1.03,0.29-2.94,0.29-3.09-1.32c0.59,0.59,2.5,0.88,3.68,0.29L1224.57,128.97z M1229.43,128.97
		c-0.88-0.15-1.03-1.62-2.21-1.91c0.59,0,1.32-0.15,2.21,0.59C1228.84,128.24,1229.43,128.24,1229.43,128.97c1.18,0,2.5,0,3.09-0.74
		C1231.93,128.97,1230.6,129.56,1229.43,128.97z M1228.25,67.06c-8.53,5-10.44-2.35-16.62,0c6.77-4.26,7.79,1.18,12.35,0.59
		c4.71-0.88,7.06-3.68,11.62-0.59C1232.52,66.47,1230.02,66.47,1228.25,67.06z M1238.69,36.32h-34.41
		c-0.44-4.71,2.65-6.32,6.77-6.03c1.62-5.74,10.29-8.23,14.71-4.26c3.24-6.62,12.94-1.47,9.85,4.26c1.76,0.59,3.09,2.35,3.09,4.27
		V36.32z M1363.84,134.41c-5.15,2.5-46.77-1.62-46.77-1.62h-0.15c-8.38-1.03-20.44-5.15-20.74-21.62
		c0-25.15,14.12-67.65,19.41-76.62c5.74-9.41,20.44-16.32,22.06-13.68c5.15,7.94,16.76,82.5,7.35,102.94
		c-0.59,1.32-1.47,2.35-2.79,3.38C1352.37,127.65,1368.11,132.21,1363.84,134.41z"/>
	<path d="M1339.72,40.29c0-0.44-0.59-1.03-1.03-1.03c0,0,0.44,1.03,0,2.06C1338.69,41.32,1339.72,40.88,1339.72,40.29z"/>
	<path d="M1342.81,65c0.59-1.03,0-2.65,0-3.68c0-1.03-1.03-2.06-1.03-2.06C1342.81,60.88,1341.78,66.03,1342.81,65z"/>
	<path d="M1340.75,68.24c0,0,0.59,1.03,0,2.06c0,0,1.03,0.44,1.03-0.59C1341.78,68.68,1341.34,68.24,1340.75,68.24z"/>
</g>
</svg>
