<?xml version="1.0" encoding="utf-8"?>
<!-- Generator: Adobe Illustrator 24.2.3, SVG Export Plug-In . SVG Version: 6.00 Build 0)  -->
<svg version="1.1" id="Layer_1" xmlns="http://www.w3.org/2000/svg" xmlns:xlink="http://www.w3.org/1999/xlink" x="0px" y="0px"
	 viewBox="0 0 944.99 150" style="enable-background:new 0 0 944.99 150;" xml:space="preserve">
<g>
	<path d="M113.71,2.66h18.61l0.15,79.39c0,15.12-6.83,24.57-23.12,31.84l-68.49,30.39c-4.07,2.04-9.31,3.05-15.41,3.05
		c-5.82,0-13.96-1.45-19.63-2.91L0,122.33l36.06-14.83c0-2.76-0.14-5.67-0.44-8.87l-4.65-61.8L113.71,2.66z M35.91,112.15
		L6.4,124.22c5.96,2.18,13.09,4.07,17.74,4.07C31.99,128.29,35.48,123.35,35.91,112.15z M55.54,114.91
		c-0.15,8.43-1.75,15.41-5.09,20.65l44.49-19.34c3.2-3.64,4.51-6.25,4.51-14.54V79.87l22.1-9.74v21.96c0,3.93,0.15,7.42-0.58,10.18
		c4.51-4.65,7.85-11.34,7.85-21.67l-0.15-75.32L57.14,36.83L55.54,114.91z M90.44,98.05v2.76l-26.32,11.63v-2.91L90.44,98.05z
		 M90.73,90.78v2.76l-26.32,11.63v-2.91L90.73,90.78z M64.56,46.43l32.28-14.1v36.35L64.56,82.92V46.43z M90.88,83.51v2.76
		L64.56,97.9v-2.91L90.88,83.51z M121.56,21.27v2.62l-19.63,9.02V30L121.56,21.27z M121.56,28.54v2.62l-19.63,9.01v-2.91
		L121.56,28.54z M121.56,35.81v2.62l-19.63,9.02v-2.91L121.56,35.81z M121.56,43.08v2.62l-19.63,9.02v-2.91L121.56,43.08z"/>
	<path d="M227.27,64.75v5.23c-0.44,2.62-1.89,13.67-2.04,14.98c-1.16,3.64-3.05,9.31-4.94,12.21c-0.44,0.73-6.25,7.56-8.29,10.47
		c-1.16,1.45-2.91,2.33-4.22,3.49c-0.44,0.44-4.07,3.05-5.67,4.22c-1.02,0.87-1.6,2.76-2.76,3.49h-1.02
		c-0.87,0.58-1.6,1.89-2.47,2.47c-0.87,0.58-1.74,0.73-2.76,1.31c-0.87,0.73-1.45,2.04-2.47,2.47h-1.02
		c-0.58,0.73-1.16,1.45-1.74,2.18c-0.73,0.44-1.45,0.44-2.04,1.02c-0.58,0.58-1.02,1.16-1.45,1.74c-0.87,0.58-1.6,0.44-2.47,1.02
		c-1.75,1.16-2.91,3.2-5.23,3.78v-1.31c0.58-0.87,1.02-8,1.02-9.45h-1.02c-1.31,2.47-3.05,4.94-5.53,6.25v-1.74
		c1.45-1.6,1.02-4.36,2.04-6.54c0.29-0.58,1.89-4.22,2.18-5.67c0.29-1.02,2.33-7.56,3.49-9.74c2.03-4.07,4.36-8.58,6.98-12.21
		c0.29-0.58,5.67-6.54,6.25-8.43c-0.44,0-36.21-13.23-37.66-13.96c-5.09-2.33-7.42-4.65-8.43-11.05c-0.15-0.58-0.58-1.16-0.29-2.18
		c0.58-2.47,2.91-3.05,4.07-4.8c0.87-1.31,0.87-3.64,1.45-4.94c1.02-0.15,1.16-0.58,1.75-0.73c1.74-0.58,3.78,0.44,4.94,0.73
		c1.89,0.44,3.2-0.73,4.07-0.29c2.33,0.58,5.53,2.47,6.69,4.07l-1.45-19.19c-1.6-5.82-2.62-12.07-3.49-18.47h0.44v0.44h0.29
		c0.87,1.89,2.91,8.72,4.94,9.02c0.44-2.04,1.16-3.49,3.78-3.49c2.47,0.15,4.94,1.45,4.94,6.25c0,8.72-1.89,12.94-3.49,19.63h1.02
		c0.87-1.16,2.04-1.6,3.2-2.47c0.58-0.87,9.16-8.58,13.52-10.18c8-2.62,18.32-0.15,22.39,4.22c0.15,0.44,2.04,2.76,2.47,3.49
		c1.45,2.47,2.18,6.83,2.76,10.18c-0.15,0.58,0.29,3.64,0.29,3.78c0.44,1.89-0.44,3.05,0,4.51c0.44-0.15,0.73-0.15,1.02-0.29
		c1.16-2.76,1.75-4.51,2.76-6.98c0.87-2.33,1.75-4.22,2.91-6.98c0-0.15,0.15-0.44,0.29-0.44v8.72
		C227.7,55.44,227.85,62.28,227.27,64.75z M170.41,69.26c0-4.8-0.87-9.6-4.22-10.76c-1.02-0.87-3.05-1.31-4.8-1.45
		c-0.44,0.29-1.16,0.44-1.45,0.73c-2.04,0.44-3.78,2.33-3.78,4.94c-0.73,1.02,0.44,3.93,1.02,4.8c0.87,1.45,10.62,7.27,12.94,7.42
		V74.2C170.7,73.33,170.41,70.71,170.41,69.26z M205.6,61.99c0-0.58-0.15-1.16-0.29-1.74c-3.05-3.34-8.72-5.23-13.67-6.69
		c-1.75-0.44-9.31-2.76-12.21-3.05c-2.18,4.94-3.93,11.63-5.82,16.72c-0.58,1.31-1.45,4.65-1.02,5.38
		c1.31,1.74,8.43,6.25,10.03,7.12c0.87,0.58,5.09,3.49,8.43,4.22c1.75-6.11,12.51-9.02,14.98-14.69
		C207.2,66.64,206.76,64.17,205.6,61.99z M196.3,88.45h-0.73c-0.87,1.16-2.47,2.04-3.2,3.2c-0.87,1.31-0.58,2.76-2.04,3.49
		c-0.73,0.44-1.16,0-1.74,0.29c-2.18,1.6-2.18,4.36-3.49,6.69c-0.44,0.73-1.75,1.89-2.18,2.76c-0.29,0.87,0,2.62,0,2.76v0.44
		c0.73-0.29,0.44-0.15,0.73-0.44c1.6-0.73,1.89-2.04,2.76-3.49c0.58-0.44,1.16-0.87,1.74-1.31c1.02-1.31,1.31-2.91,2.18-4.22
		C192.37,95.57,195.86,93.1,196.3,88.45z M199.79,81.91h-0.73c-0.44,0.29-0.29,0.15-1.02,0.29c-0.87,1.31-1.89,1.74-2.18,3.49
		c0.58,0.58,0.58,1.02,1.45,1.45v-0.44C198.48,85.83,199.35,83.65,199.79,81.91z M223.78,67.22c-0.29-0.44-0.29-0.87-0.29-1.74
		h-0.73c-0.44-0.29-0.29-0.29-1.02-0.44c-2.33,2.62-7.27,6.25-10.18,8.14v1.31c3.93-0.44,7.85-2.47,11.92-3.49
		C223.78,70.13,223.78,68.68,223.78,67.22z"/>
	<path d="M242.54,104.66c0.29-0.58,0.44-0.58,0.73-1.45c0-0.44-0.73-1.89-1.02-2.76c-0.73-1.75-0.15-2.91-0.73-4.94
		c-0.44-1.6-1.45-3.2-1.75-4.8c3.05-1.6,11.63-5.38,12.5-8.43h0.44v-0.29h-0.44c-1.45-1.16-2.47-0.29-4.51-0.73
		c-0.87,0.29-3.64,1.31-4.22,0.73c-0.73-0.58-1.02-1.16-1.74-1.74c0-3.64,0.58-6.11,1.45-8.43c0.14-1.02,2.76-6.4,3.49-8.29
		c0.15-1.6,2.47-6.54,3.05-7.42c0.73-1.02,0.87-2.62,1.75-3.49c0.44-0.15,0.73-0.15,1.16-0.29v-1.45
		c-3.49-0.15-18.76-1.6-19.19-2.76c0-1.16,2.18-4.65,2.47-5.82c0.29-1.02,2.33-4.22,2.62-5.09c0-1.6,3.78-5.67,3.78-7.27
		c1.6-3.64,3.64-5.82,8.29-11.05c5.96-5.23,14.25-10.76,16.29-11.2c4.36-1.89,8.43-3.49,14.69-3.49c0.14,0.29,0.14,0.58,0.29,1.02
		c0.44,0.58,0.44,2.04,0.44,3.05c-1.02,0.73-1.16,2.18-2.18,2.91c-1.45,1.02-3.34,1.02-4.8,2.04c-0.58,0.58-1.02,1.16-1.45,1.74
		c-0.73,0.15-1.45,0.29-2.04,0.29c-1.45,0.73-2.91,2.62-4.22,3.2c-1.02,0.15-2.18,0.29-3.2,0.29c-0.73,0.44-1.6,1.74-2.47,2.18
		c-1.31,0.73-2.76,0.58-4.07,1.31l-1.16,1.45c-0.73,0.44-1.75,0-2.76,0.29c-1.31,0.58-7.56,4.65-8.72,5.53
		c0,0.29,0.44,0.73,0.73,0.73c1.31,0.87,7.27-1.89,8-2.04c2.04-0.87,7.42-3.05,8-3.05c3.49-1.31,14.4-5.38,16.14-5.67
		c5.82-2.18,10.03-4.8,18.47-4.8v0.58c0.87,1.74-4.94,3.93-4.94,3.93c-0.58,0.29-15.7,7.12-17.01,7.71
		c-4.36,1.89-18.47,9.31-21.67,10.76c-1.16,0.58-10.18,4.36-10.76,7.71c0.29,0.15,0.58,0.15,1.02,0.29
		c0.87,0.87,2.47,0.73,4.22,0.73c1.31-2.04,3.64-3.05,5.23-4.94c4.8,0,5.82,2.62,9.31,3.2c0.87-1.45,2.47-2.76,3.2-4.22
		c1.74-3.2,4.07-10.61,10.47-8.72c2.04,0.58,4.36,2.04,6.25,2.76c2.18,1.02,4.94,1.02,5.67,3.2c0.29,0.44,0.29,0.87,0.29,1.74
		c-0.87,0.58-0.73,1.74-1.45,2.47c-0.87,0.73-2.04,0.87-3.05,1.31c-1.16,0.73-2.47,1.89-3.49,2.47c-1.45,0.87-3.05,1.02-4.51,1.74
		c-3.34,1.74-6.83,3.78-9.89,5.67c-1.16,0.44-2.47,0.87-3.78,1.31c-0.58,0.44-1.02,1.45-1.74,1.74c-2.91,1.45-9.89,4.36-10.47,7.71
		c0.87,0.44,1.16,0.73,2.76,0.73c1.89-1.45,4.65-1.16,6.69-2.47c0.58-0.44,0.87-1.45,1.31-2.04c2.47-2.76,5.38-4.22,10.47-4.22
		c1.31-1.89,2.76-3.93,4.22-5.67c1.02,0.29,1.89,1.02,2.47,1.16c1.45,0.44,2.04-0.87,2.76-1.16c0.87,0.15,1.6,0.29,2.47,0.44
		c0.44-0.87,0.58-1.02,0.73-2.47c-0.29-0.44-0.29-0.29-0.44-1.02c1.31-0.44,3.93,0.29,5.67-0.73c0.44-0.58,4.65-3.78,5.23-4.22
		c0.73-0.87,1.6-1.89,2.47-2.76c4.36-3.05,13.96-7.42,20.21-5.23c-0.15,0.73,0.15,1.89-0.44,3.2c-1.16,2.47-4.36,3.64-5.82,5.82
		h1.31c1.16-0.87,2.62-0.44,4.22-1.02c2.18-0.73,4.65-2.04,6.98-2.76c1.02-0.29,3.34-0.44,3.49-0.29c0.58,0.44,0.44,0.15,0.73,1.02
		c-3.93,0.87-13.67,6.54-14.39,6.54c-6.83,3.2-20.36,12.5-20.94,12.65c-1.31,0.73-2.76,1.45-4.07,2.47
		c-2.62,1.74-18.32,13.96-19.63,19.19c0.15,1.16,0.29,2.33,0.44,3.49c1.45,1.02,1.45,2.33,4.07,2.33c3.2,2.62,11.63-1.45,13.67-2.76
		c0.87-0.15,1.6-0.44,2.47-0.73c2.76-1.6,9.31-5.82,10.76-8.29c2.76-4.51,4.07-11.34,4.94-15.7h1.02
		c0.14,2.18,2.47,10.91,2.76,11.78c0.44,0.29,0.73,0.44,1.02,0.73c5.23,0.15,8-2.76,12.94-3.49c0.29,0.87,0.44,2.18,0.44,3.49
		c-1.75,2.04-1.02,8.43-1.75,11.49c-1.31,4.51-2.76,9.45-4.22,13.67c-0.15,0.87-0.29,1.89-0.44,2.76c-1.02,2.91-2.62,5.53-3.78,8.58
		c-0.44-0.15-0.73-0.87-0.73-0.87c-0.73-1.02-0.73-6.69-1.02-8.43c-0.58-0.15-1.31-0.29-2.47-0.29c-1.02,3.93-4.51,9.89,0,12.65
		c5.67,5.09,13.96-5.96,16.58-7.71c-0.29,2.76-4.8,10.47-6.54,11.63c-1.02,0.73-4.36,2.76-5.09,3.64h-5.23
		c-0.87-1.16-2.18-1.74-2.76-3.05c-1.02-2.18,0.29-5.38-1.75-5.96c-1.02,1.89-2.33,3.93-4.94,4.22c-3.2,2.33-5.53-4.22-6.98-4.22
		c-1.31,1.31-0.73,2.76-1.45,4.8c-1.02,3.2-3.78,9.6-6.25,11.2c-2.04,1.45-4.94,0.87-7.71,1.75c-0.58,5.53-0.58,11.34-0.58,18.03
		c-0.44,0.15-0.44,0.15-0.73,0.15c-2.76-4.8-6.54-18.18-10.91-20.65c-1.75-0.87-3.49-0.29-5.23-0.58c-1.16-0.29-3.05,1.31-3.78,0.58
		c-0.44-0.29-0.44-0.15-0.73-0.58c1.31-1.6,3.34-4.8,3.49-7.42c-0.87-0.15-1.89-0.15-2.76-0.29c-0.87,0.29-1.45,1.6-2.04,2.04
		c-2.04,1.45-6.25,2.47-9.16,2.76c-0.29-2.04-1.16-4.36-1.74-6.25v-2.47c-0.15-0.29-1.02-1.31-1.02-1.74c-0.15-0.29,0.29-1.6,0-2.76
		c-0.29-1.02-0.87-1.89-1.02-3.49C240.64,104.81,241.66,104.81,242.54,104.66z M254.46,101.46c0.29,0.15,0.58,0.29,1.02,0.44
		c0.58,0.44,2.33,0.29,3.49,0.29c0.58-0.87,4.22-2.62,4.8-3.2c0.14-0.29,8.29-4.94,8.72-8c-0.58-0.29-0.58-0.44-1.31-0.73
		c-1.89,2.76-5.09,2.91-8,4.65c-0.58,0.29-4.07,2.18-5.23,2.33c-0.44,0.58-0.73,1.02-1.16,1.45
		C255.18,99.72,254.46,98.85,254.46,101.46z M271.47,105.97c0.44,0.44,0.58,0.73,1.02,1.16c0.73,0.58,1.74,0.73,3.2,0.58
		c0.58-0.73,1.89-1.16,2.47-2.04c1.16-1.6,3.78-6.69,4.22-8.72c-0.29-0.15-0.58-0.29-0.73-0.29c-1.16,2.33-4.22,2.76-6.25,4.07
		c-0.58,0.87-1.16,1.74-1.75,2.47C272.63,104.23,271.76,104.23,271.47,105.97z M292.41,107.13c1.16,2.91,3.05,3.34,5.67,1.02
		c0.58-1.45,1.31-4.07,1.75-5.67v-2.76c0.73-3.2,1.6-6.4,1.74-10.47c-0.44-0.15-0.73-0.44-1.16-0.73c-1.16,2.04-2.91,4.51-3.78,6.69
		c-1.02,2.47-1.31,4.36-2.47,6.69C293.57,103.06,291.97,106.12,292.41,107.13z M310.15,89.69h1.45c1.89-2.91,4.36-3.78,5.38-7.71
		h-2.33C312.47,84.89,310.44,84.45,310.15,89.69z"/>
	<path d="M430.11,46.18c0.87,1.02,4.22,0.15,5.23,2.33c1.6,2.33-1.31,3.64-2.04,4.65c-0.73,0.73-0.29,1.74-0.73,2.76
		c-1.16,2.62-3.63,4.8-4.22,8c0.44,0.44,0.58,0.58,0.73,1.45c1.6,0,4.8,0.44,5.96,1.31c0.29,0.44,0.15,0.29,0.29,1.02
		c-1.16,0.58-1.45,1.6-2.47,2.18c-0.87,0.15-1.74,0.44-2.76,0.73c-0.73,0.87-1.31,1.74-2.04,2.76c-1.6,1.16-3.64,1.16-3.93,3.78
		c0.44,0.44,0,1.16,0.44,1.74c0.44,0.87,2.33,2.33,2.76,3.2v1.74c0.73,0.58,1.45,1.16,2.04,1.75c0.58,0.73,0.29,1.45,0.73,2.47
		c0.73,1.45,2.18,3.2,2.76,4.8c0.58,1.16,1.02,2.91,0.73,4.51c0,0.15-0.44,0.15-0.29,0.73c0.15,0.87,1.16,2.62,1.31,3.49v2.47
		l0.73,0.73c0,0-0.29,6.83-0.29,6.98c-0.29,0.44-1.16,1.31-1.45,2.04c-0.14,1.6-0.14,3.05-0.29,4.51l-0.73,0.73
		c-0.29,1.02-0.44,2.18-0.73,3.2c-0.44,0.87-1.74,1.6-2.03,2.47v1.74c-0.44,0.29-1.02,0.58-1.45,1.02
		c-0.73,1.16-0.87,2.33-1.75,3.49c-1.02,1.45-2.76,1.45-3.05,3.78h0.58c1.45,0.87,8.14,0.29,10.03,0.44
		c6.4,0.29,19.34,3.05,21.81,5.09c0.29,0.44,0.15,0,0.44,0.73c-0.15,0-5.09,4.65-6.11,6.25c-0.29,0.87-0.58,1.6-0.73,2.47
		c-0.29,0.44-0.73,0.15-1.45,0.29c-2.04-2.47-17.01-8.43-19.77-10.32c-0.15-0.44-0.15-0.73-0.29-1.02h-2.47
		c-0.44-0.29-1.02-1.31-1.45-1.45c-0.58-0.15-1.31-0.29-2.03-0.29c-0.58-0.29-1.45-1.31-2.04-1.45c-0.44,0.15-0.73,0.29-1.16,0.29
		c-0.15,0-1.02-0.87-1.31-1.02h-1.45c-4.36-2.04-9.89-4.8-13.96-7.27c-0.87-0.15-1.02,1.02-1.31,1.75
		c-0.44,1.16-0.73,2.33-1.16,3.49c-1.31,2.04-4.94,4.51-8.29,4.51l-0.73-0.73c-1.31-0.44-2.33-0.15-3.2-1.02
		c-0.73-0.73-0.29-1.31-1.75-1.74c0,0.15-4.8,6.25-7.56,7.12h-0.29c-1.89-2.18-4.94-4.65-8.87-4.8c-1.16,1.89-4.07,2.91-6.98,3.05
		c-0.14-2.47-0.29-5.96,0.73-6.54c1.02-1.02,2.91-1.31,3.78-2.47c0.15,0-3.2-2.18-3.49-4.94c-1.02-1.31-0.29-3.2-0.73-5.23
		c-0.29-1.89,0.44-6.69,1.45-9.74c0.73-2.18,3.78-6.54,5.53-7.85c7.85-6.25,14.98-14.54,23.12-20.21c1.45-1.02,2.76-2.76,4.22-3.93
		c3.05-2.18,5.53-5.23,8-8c0.73-0.87,2.47-2.18,2.04-3.05c-4.65-0.29-14.69,0.44-15.12,0.29c-3.05,0-5.53,0.73-8.58,0.73
		c-3.05,3.93-0.87,1.31-4.22,4.65c-1.31,1.31-2.33,3.49-4.51,3.93c-0.15-13.09,1.74-17.59,7.42-25.3c2.04-3.05,6.11-4.07,6.98-8.43
		c-3.34,0.15-4.8,0.73-6.83,1.74c-1.31,0.73-2.03,1.74-3.34,2.47c-2.91,1.45-5.82,4.51-9.45,5.23v-0.73
		c0.73-0.58,0.15-0.58,0.73-1.45c0.73-1.02,2.47-2.47,3.49-3.49c0.29-0.15,1.31-0.44,1.45-0.58v-1.16
		c-0.29-0.15-0.44-0.73-0.73-1.02c-1.75-1.16-3.78-0.44-4.22-2.76c0.44-0.29,1.75-0.87,2.04-1.45c0.44-0.44,0.29-1.02,0.73-1.31
		c1.02-0.44,1.89-0.73,2.76-1.02v-3.49c-0.87-1.16-0.58-1.89-2.33-2.18c0.29-2.76,2.62-3.49,3.05-5.96
		c0.29-1.02-0.44-1.74-0.73-2.76c-2.47-1.16-6.25-1.89-6.25-5.96c2.04-1.02,3.49-2.62,5.23-3.78c1.16-0.73,2.47-0.73,3.49-1.45
		c1.31-0.73,2.47-2.33,3.93-3.05c1.16-0.44,2.33-0.73,3.49-1.02c1.31-0.73,3.2-1.89,4.51-2.47c2.04-1.02,3.78-0.87,5.96-1.74
		c4.8-2.18,11.49-4.51,17.74-3.2c0.14,0.58,0.29,0.87,0.29,1.74c0.44,0.29,0.15,0,0.44,0.44c-0.73,0.44-0.87,0.73-1.75,1.02
		c-3.05,2.33-9.45,1.02-12.94,2.04c-5.96,1.89-24.86,8.29-25.45,11.49c2.76,3.2,5.09,6.11,7.71,9.45c1.02,1.6,7.27,10.03,9.31,10.47
		c2.91-4.51,14.98-16.72,15.7-17.45c1.31-1.6,4.07-4.51,6.4-6.25c2.04,2.33,4.51,4.94,6.25,7.42c3.05,3.93,6.69,9.6,8.58,15.7
		C427.93,36.44,430.11,45.6,430.11,46.18z M388.67,133.71c0.73,0.29,1.6,0.44,2.33,0.73c2.62-1.02,4.51-2.62,4.22-6.25
		c-0.87-0.58-0.87-1.16-2.33-1.16c-0.73-0.44-2.04-0.29-2.47,0C386.34,128.04,387.8,131.1,388.67,133.71z M425.31,35.71v-0.73
		c0.73-0.15,0.87,0,1.31-0.44c-0.15,0-0.44-0.44-0.58-0.44c-0.44-0.58-0.87-0.29-1.45-0.58c0.29-0.44,0.73-0.58,1.02-1.02h-1.74
		v-1.74h-1.02v-1.45c-2.33-0.58-2.62-2.47-4.22-3.49c-1.31-0.58-2.33,0-3.78-0.58c-0.29-0.44-0.58-0.73-0.73-1.16
		c-1.02-0.29-3.34,0.58-3.93,0.73h-3.05c-2.91,0.87-7.13,3.34-8,6.25c-0.15,1.31,0.73,2.04,2.33,1.16c0.87-0.73,9.16-3.05,9.45-2.91
		c0.44,0.58,0.44,1.45,0.44,2.47c-0.73,1.02-0.58,2.33-1.16,3.49c-0.29,0.87-1.31,2.04-1.75,2.76c-0.29,1.16-0.58,2.33-1.02,3.49
		c-1.16,2.33-3.05,4.8-4.22,6.98c-1.02,2.18-1.16,4.36-2.33,6.4c-1.16,1.89-2.91,3.34-3.49,5.82c0.29,0.44,0.73,0.44,1.02,0.44
		c4.36-7.27,10.9-12.36,15.99-18.9h0.73c0.15,3.2-0.87,8.72-1.74,11.92c-0.87,3.2,0.73,5.67,0,8.72c-0.58,2.18-0.58,5.53,0,8.29
		c0.58,0.44,1.31,1.02,1.74,1.45c10.47,0.58,11.34-9.02,13.96-17.45c0.44,0-0.29-4.51-0.29-4.51c0.15,0-1.6-9.45-1.75-11.49
		c0.73-0.15,0.73-0.44,0.58-0.44c-0.44-0.44-0.15,0.29-0.58-0.29c-0.73-0.58-0.87-1.02-1.16-2.18L425.31,35.71z M407.42,128.19
		c0.29,0.87,0.58,0.73,1.02,1.31c0.58-0.15,3.49,0.29,4.22,0.44c1.16,0.15,8,1.16,10.18,1.31c0.44-0.44,1.02-0.44,1.74-0.73
		c0.44-1.45,1.74-1.89,2.47-3.05c0.44-0.87,1.6-3.49,2.04-3.93c0.58-0.87,1.74-4.8,2.04-5.82c0.73-1.74,1.02-9.74,0.73-11.63
		c-0.29-1.31-0.87-5.67-2.47-11.05c-0.44-1.45-2.76-5.23-2.76-5.67c-0.58-1.45-3.78-5.53-5.23-6.25c-1.89-0.44-3.93-0.87-5.96-1.45
		c-1.31,2.04-3.78,0.73-4.07,4.22c-1.45,1.74-1.02,6.98-0.73,7.71c0,0.29,1.02,2.62,1.02,3.49c0.15,0.29,0.87,1.16,1.02,1.45v1.74
		c0.14,0.44,0.87,1.6,1.02,2.04v3.49c1.45,5.53,1.16,10.91,1.16,16.72c-2.04,1.16-5.82,2.04-6.98,3.93
		C407.28,127.03,407.13,127.61,407.42,128.19z"/>
	<path d="M464.57,106.18c-0.29,0.87-1.31,2.04-1.02,3.49c0.44,2.04,2.04,3.64,2.47,5.23c0.73,2.47-0.73,4.36-1.02,5.96
		c-1.31,0.44-3.05,1.89-3.93,2.76c-4.22,0.15-9.16-0.73-10.03-3.78c-0.58-0.73-0.29-2.04,0-2.76v-1.74
		c0.58-1.16,3.49-2.04,5.23-2.18c-0.29-1.74-1.02-3.05-1.45-4.51c-0.73-3.05,2.33-9.45,3.49-11.2c0.73-0.87,1.6-1.16,2.18-2.33
		h-0.44c-0.44-1.02,0.15-0.44-1.02-0.73c-0.73-0.44-2.04,0.58-2.76-0.73c0.73-0.58,1.02-1.31,1.31-2.47c-0.58-0.15-0.29,0-0.58-0.29
		c-1.45,0.29-4.51,1.6-4.94,2.04c-0.29-0.29-0.15,0-0.29-0.73c2.03-1.16,3.93-3.34,5.23-5.53h-0.44c-0.58-0.44-2.47-0.29-3.05-0.73
		h0.29c2.18-3.34,9.74-4.51,10.18-9.02c-0.87-0.44-0.87-0.58-2.18-0.73c-1.6,2.62-4.94,4.51-9.31,4.51c-0.15-0.29,0-0.29-0.15-0.58
		c3.05-1.45,4.36-4.51,6.69-6.69c0.87-0.87,2.33-1.31,3.2-2.18V70.7c2.18-2.76,5.24-4.8,7.27-7.71c0.29-0.73,0.44-1.45,0.73-2.18
		c0.15-0.29,1.16-0.87,1.31-1.31c0.14-0.58,0.29-1.16,0.44-1.74c1.31-2.62,3.05-7.12,2.33-9.89c-0.15,0,0,0-0.29,0.15v0.29
		c-2.91,1.74-3.2,3.49-5.23,5.96h-0.73c-0.44,0.58-0.44,1.31-1.02,1.75c-0.73,0.44-1.45,0.44-2.04,1.02
		c-0.73,0.58-0.58,1.74-1.02,2.47c-1.16,1.6-3.2,2.91-4.22,4.51c-2.18,3.05-3.49,6.25-6.98,8v-1.02c2.18-1.6,2.91-5.38,4.51-7.71
		c1.6-2.47,6.25-5.82,6.69-9.45h-0.73v-0.29h-0.44v0.29c-3.93,1.31-7.42,7.56-11.05,9.74c-0.15-0.29-0.15-0.15-0.29-0.44
		c1.89-1.6,1.75-4.22,3.05-6.4c0.58-1.16,2.04-1.89,2.76-2.91c0.87-1.16,0.87-2.91,1.74-4.07c1.02-1.6,3.49-2.62,4.51-4.22
		c1.02-1.45,2.33-2.47,3.2-3.64c0.87-1.31,0.87-1.89,1.31-3.78h-0.58c-0.73,0.73-2.04,1.74-2.91,2.18h-1.02
		c-0.15,0.58-0.44,1.16-0.73,1.75c-1.16,1.02-3.34,1.16-4.8,2.04c-2.47,1.45-2.76,4.65-6.69,4.94c-0.15-0.44-0.15-0.73-0.29-1.02
		c-0.29-0.44-0.29-0.58-0.44-1.45c1.31-0.87,1.6-2.04,2.47-3.2c1.16-1.31,3.49-2.04,4.94-3.05c0.73-1.02,1.31-1.89,2.03-2.76
		c1.75-1.16,3.49-1.45,5.24-2.47c1.31-0.87,2.91-3.05,4.22-3.93c1.31-0.44,2.62-0.87,3.78-1.31c1.75-1.16,2.47-2.91,4.94-3.49
		c0.29,1.45,0.73,3.05,1.02,4.51c0.87,1.31,2.33,1.74,3.2,3.2c-3.2,0.87-4.36,3.49-6.25,5.53c0,3.78,0.87,6.11,0,9.74
		c-0.44,1.16-0.58,3.34-0.44,3.49c0.44,0.29,0.58,0.29,1.45,0.44c1.31-2.76,4.51-3.93,6.98-5.67c1.16-0.87,5.96-3.93,7.27-4.51
		c0.58-0.29,10.18-5.38,11.49-5.96c4.22-1.45,10.47-0.73,12.65,0.73l3.49,2.76c0.44,0.15,2.18,2.33,2.76,3.2
		c0.87,1.31,1.74,2.76,2.76,4.22c0.44,0.15,1.31,2.33,1.45,3.05c1.31,3.34,2.76,7.27,3.78,14.4c0.29,2.04,1.02,8.29,0.73,9.45
		l-0.73,6.83c-0.44,1.74-1.6,4.22-2.04,5.67c-0.73,1.89-0.14,3.78-0.73,5.53c-0.44,1.31-1.89,2.91-2.47,4.22
		c-0.14,1.02-0.14,2.04-0.29,3.2c-0.29,0.29-1.31,0.87-1.45,1.31c-0.29,0.87,0.44,1.02,0.44,1.45c-0.44,0.15-0.73,0.44-1.16,0.73
		c0,0.73-0.15,1.6-0.29,2.33c-0.87,2.18-2.76,4.22-3.78,5.96c-0.58,0.87-0.29,1.89-0.73,2.76c-0.73,0.58-1.45,1.16-2.18,1.74
		c-2.47,2.62-4.51,5.67-9.74,3.49c-0.44-0.87-2.62-1.31-3.05-1.89v-0.73c0.15-1.02-0.58-4.65-2.47-6.11
		c-3.49-2.47-11.92-8.58-12.65-9.31c-2.91-2.04-7.13-5.09-10.61-7.27c-0.44,0.15-0.73,0.15-1.16,0.15
		c-1.45,2.62-3.78,3.64-3.93,7.71c0.87,0.87,0.87,1.74,2.18,2.18c0.58,0.44,7.56,0.29,9.45,0.73c1.02,1.74,1.74,2.76,1.74,5.82
		c-0.73,0.58-0.87,1.31-1.45,1.74c-1.31,1.16-4.65,1.02-5.53-0.29c-0.29-0.73-0.58-1.45-0.73-2.04c-0.58-0.15-0.58-0.15-1.02-0.15
		c-1.31,2.91-2.33,6.69-2.91,9.45c-0.58,0.44-0.58,0.58-1.31,0.73v-0.73c-1.02-5.23-2.18-10.61-3.2-15.99
		C465.44,102.11,465.88,103.13,464.57,106.18z M470.97,90.91c2.76-2.91,3.2-8,4.8-12.21h-2.47c-0.73,1.02-1.74,1.02-2.76,1.74
		c-1.75,1.31-8.14,10.18-8.29,12.94C465.15,93.39,469.22,92.37,470.97,90.91z M467.04,74.19c0.58,0.58,1.31,0.87,2.47,1.02
		c1.89-2.91,6.98-2.47,7.71-6.69c-2.04-2.62-1.31-6.69-3.93-9.02c-0.87,3.64-3.34,6.98-5.23,10.03
		C467.33,70.99,465.73,72.45,467.04,74.19z M476.49,57.33c-0.15,2.18,3.05,9.16,5.23,9.89c0.29-0.29,0.73-0.44,1.02-0.73
		c0.44-1.02,1.02-1.89,1.45-2.76h0.73c1.02,9.31-1.74,15.85-5.67,21.23c-1.75,2.47-4.65,4.07-5.23,7.71c4.36,0,6.54-2.62,10.47-3.2
		v0.73c-1.02,0.44-4.8,4.22-4.22,4.94c1.45,1.74,13.09,6.4,16.14,7.56c1.31,0.58,5.38,2.47,5.96,2.91c1.75,0.15,3.78,2.04,6.54,2.33
		c1.45-1.89,1.89-3.05,2.76-4.65c2.18-4.22,3.34-10.32,4.65-15.12c1.16-4.51,0.44-12.21-2.18-16.87
		c-4.07-6.83-9.45-12.21-14.98-16.29c-2.47-1.6-7.27-6.69-10.47-6.98c-0.87,0.73-2.33,0.73-2.76,1.02c0.15,0-6.11,2.18-5.96,6.98
		C480.13,56.02,477.51,57.04,476.49,57.33z M490.16,45.55c0.14,0.58,0,0.29,0.29,0.73c0.87,1.74,3.63,2.04,5.23,3.05
		c1.31,0.87,2.47,2.62,3.78,3.49c1.45,1.02,2.76,1.16,4.22,2.18c0.73,0.44,1.31,1.31,2.18,1.75c1.6,0.58,4.65,1.16,6.25,0
		c1.75-0.58,3.05-1.75,3.05-3.93c0.58-0.73,0.15-1.45,0-2.76c-1.31-0.87-1.89-2.62-3.05-3.49c-1.75-1.16-9.45-2.33-11.49-2.47
		c-3.34,0.29-7.85,0.44-10.18,0.73C490.16,45.4,490.45,45.11,490.16,45.55z"/>
	<path d="M536.54,32.83c-0.73-2.47,0.58-5.38,1.02-6.98c1.16-0.58,2.18-1.74,3.2-2.18c0.87,0,6.11-0.87,7.27-1.02
		c1.02,0.15,2.18,0.29,3.2,0.44c0.87-0.29,7.71,1.89,11.2,3.05c2.47,0.87,8.58,6.25,9.31,6.69h2.47c1.31-1.02,3.64-1.6,5.67-1.74
		v0.73c-0.73,0.58-1.31,1.45-1.45,2.76c0.58,0.15,0.58,0.15,1.45,0.29c1.16-1.74,2.91-1.45,4.8-2.47c0.15-0.15,4.94-2.33,5.23-2.33
		c3.64-1.31,10.76-0.58,13.67,0.58c0.87,0.44,2.18,1.45,3.05,1.75c0.87,0,3.93,1.31,4.22,1.45c2.18,0.73,3.93-3.78,5.96-2.47
		c0.73,0.87,0.29,3.34,0.29,4.94c0,4.07,1.02,10.47-0.29,13.96h-0.73c-0.58-0.73-5.38-4.07-6.54-4.22
		c-0.29,0.58-0.44,1.16-0.44,2.04c0.87,1.31,0.15,4.22,0.44,5.96c0.14,2.04,0.58,8,0.58,11.92v7.27c0.58,1.45,2.47,2.33,2.47,2.47
		c0.29,0.15,3.49,4.36,3.49,4.51c3.05,6.98,0,17.59-3.49,21.67c-0.87,0.44-1.89,0.87-2.76,1.45c-0.44,0.29-0.58,1.02-1.02,1.31
		c0.44,1.6,1.16,1.6,1.31,3.49c-1.31,0.44-2.76,1.02-4.07,1.45c-0.14,0.29-0.29,0.73-0.44,1.02c1.6,1.16,1.89,3.49,1.75,6.25
		c-0.29,0.15-1.6,0.73-2.47,0.73c-0.73-1.31-1.6-2.33-3.78-2.47c-0.44,0.29-0.58,0.29-1.45,0.44c-0.87-1.74-2.04-1.16-2.76-2.47
		c-1.16-1.31-1.16-3.05-1.75-4.94c-2.62-9.6,5.82-13.67,10.18-17.45c0-1.89-0.44-2.47-0.73-3.78c-4.07-2.18-8.14-3.2-12.5-0.44
		c-1.16,0.73-1.6,0.29-2.18,1.75c-1.89,1.89,0.29,5.38,1.02,6.98c-1.89,0.15-2.62,0.58-2.76,2.47c-0.29,0.44-0.14,0.29-0.29,1.02
		c1.89,1.75,4.22,3.78,4.51,6.98c-1.16,1.45-1.45,3.2-3.49,3.93c0-1.45,0.29-1.89-0.73-2.47c-0.73,1.16-1.75,2.18-3.05,2.76
		c-0.58-1.16-1.6-2.04-3.2-2.04c-0.29,0.44-0.29,0.29-0.73,0.73c0.29,0.73,1.31,3.64,0.73,4.51c-1.31,1.16-3.64,0.44-5.53,1.02
		c-3.05,0.87-5.82,1.74-8.14,3.2v0.58h5.23c0.58-0.29,0.87-0.29,1.74-0.29c0,0.73,0,0.58-0.29,1.02c-2.18,1.89-4.94,1.31-8.43,2.18
		c-4.94,1.16-19.19,6.25-19.48,6.25c-1.16,0.15-2.33,0.15-3.49,0.29c-1.02-0.29-2.18-1.02-3.49-1.31c-0.87-1.45-2.18-2.76-2.76-4.65
		c-0.87-2.62,0.44-5.67,1.02-6.98c0.58-1.31,2.04-4.07,2.47-4.51c0.73-0.58,3.34-3.49,4.51-4.22c3.2-1.6,11.05-4.51,11.92-4.8
		c0-0.29,2.76-1.16,3.05-3.2c-1.02-1.6-0.73-3.93-2.76-4.8c-0.73,0.58-1.6,0.44-3.2,0.29c-0.29-1.45-1.02-2.33-1.74-3.49
		c-1.89,1.02-2.18,3.05-4.51,3.78c0-0.15,0.15-6.98,0-6.98V86.2c-1.31-0.15-2.47-0.29-3.78-0.29c-1.31-0.73-5.67-7.56-5.96-9.45
		c0.58-0.29,0.58-0.29,1.45-0.44c2.18,2.62,7.71,8.14,11.78,8.43c0-0.15,0.29-0.29,0.44-0.29c0-3.2,0.87-4.51,1.02-7.71
		c-0.15,0-0.44-0.29-0.44-0.44c-2.47,0.58-5.82,0.15-5.82-3.05c-1.02-1.6,1.89-3.2,2.33-4.51c0-0.87,0-3.2-0.29-3.49
		c-0.44-0.73-1.6-1.02-2.04-1.74c2.47,0,4.22,0.15,4.8-1.75c-1.31-1.02-1.45-2.62-1.31-4.94c0.87-0.87,1.02-2.47,2.04-3.2
		c3.63-2.47,8.43-2.04,8.43-8.29c-1.89-1.74-2.33-4.22-4.94-5.23c-1.02-0.44-6.98-1.02-8.43-0.73c-0.73,0.15-3.05,1.02-4.07,0.73
		c-0.29-0.15-3.05-1.31-3.49-1.45C538.87,36.32,537.13,34.72,536.54,32.83z M558.5,75.44c-1.89,2.62-3.93,6.11-4.51,10.03
		c2.91,1.6,8.14,1.89,11.2,3.2c0.73,0.29,2.04,0,2.04,0c0.29-0.44,0.29-0.58,0.44-1.45C564.17,83.72,563.15,77.62,558.5,75.44z
		 M573.19,49.26h1.02c1.89-1.6,4.22-1.89,6.25-3.2c4.51-2.62,9.74-4.94,14.4-7.27c2.04-1.16,6.11-1.45,6.98-3.93
		c-0.87-0.44-1.31-0.73-2.76-0.73c-1.16-0.87-5.96-0.87-6.98-1.02c-1.75,1.16-6.69,0.44-8.72,1.45
		C579.29,36.47,572.9,44.17,573.19,49.26z M597.32,57.55c3.2,1.02,5.53,6.11,9.31,6.25c0.29-0.44,0.44-0.73,0.73-1.02
		c-0.29-2.33,0-5.96,0.44-7.71c-0.15-0.87-0.29-1.74-0.44-2.76h-0.73c-0.29-0.29-0.29-0.15-1.02-0.29
		C603.43,54.06,597.61,53.77,597.32,57.55z M607.07,65.99h-1.75c-1.31,2.47-4.51,3.49-4.94,6.98h0.44v0.29
		c2.18,0.15,3.64,0.73,5.82,1.02v-0.58C607.07,73.11,607.07,67.29,607.07,65.99z"/>
	<path d="M744.91,27.94c0.29,1.02,0.29,4.94,0,6.4c-0.73,3.78-3.34,8.43-5.23,11.2c-2.03,3.05-4.65,5.23-6.83,8.14
		c1.6,0.73,5.23,2.33,5.38,4.36c-2.03,1.31-2.18,3.78-2.03,6.4c2.03,1.31,3.93,4.07,4.94,6.54c0,1.02,0.15,2.18,0.29,3.2
		c0.44,1.31,1.89,2.33,1.75,3.49c-0.44,2.04-0.15,5.23-1.02,6.54c-0.44,1.31-0.87,2.04-2.47,2.18c-0.58-0.58-0.87-0.58-2.03-0.73
		c-0.44,0.58-0.58,0.58-0.73,1.45c0.44,0.58,0.14,1.6,0.73,2.33c0.29,0.29,0.58,0.58,1.02,0.73c2.91,5.38,4.22,10.32,2.76,17.45
		c-1.75,0.58-1.6,1.89-3.78,2.18c-1.16,0.58-3.34,0-4.65-0.44h-2.04c-2.62-0.87-4.51-3.2-5.96-5.53c-0.15-0.58-0.15-1.16-0.29-1.74
		c-0.44-0.15-0.73-0.29-1.02-0.44c-0.73-0.87-1.02-2.18-1.16-3.49c1.02,0,0.58,0.29,0.73-0.58c-1.89-1.89-1.02-6.4-4.51-6.69
		c-0.29,0.29-1.45,0.58-2.76,0.73c0-0.73,0.29-0.15,0-0.73c0.29-0.29,0.73-0.44,1.02-0.73c-0.73-0.15-0.73,0-1.02-0.29h0.73
		c0.29-0.44,0.58-0.58,1.02-1.02c-1.02-0.58-1.6-0.87-1.75-1.45c0.58-0.15,0.29,0,0.73-0.29c-0.58-0.58-0.44-1.02-0.58-2.04
		c-0.87,0-1.75,0.29-2.33,0.58c-2.33,0.58-2.62,2.18-4.07,3.49c-0.14,3.34,2.91,9.31,4.8,10.47c1.6,1.31,3.93,0.73,5.96,1.02v9.16
		c0.58,1.02,0.29,4.07,0.29,6.25c-2.91-0.15-4.07-1.89-6.25-2.76c-0.58-0.15-1.16-0.29-1.74-0.44c-0.29-0.15-0.73-0.87-1.02-1.02
		h-1.45c-0.58-0.29-1.02-1.45-1.75-1.74c-1.16-0.58-2.33-0.44-3.49-1.02c-1.16-0.73-2.33-2.04-3.49-2.76
		c-1.02-0.44-2.04-0.73-3.05-1.16v-1.02c6.11,0.15,11.49,4.51,17.45,3.93c0.15-0.44,0.15-0.73,0.29-1.16
		c-4.22-2.47-9.6-6.54-12.5-10.47c-1.6,0.58-3.34,1.02-4.94,1.45v0.73h-2.03c-0.15,0.29-0.29,0.73-0.44,1.02
		c-0.87,0.58-2.47,0.44-3.49,1.02c-0.29,0.44-0.58,1.02-1.02,1.45c-0.73,0.29-1.02-0.58-1.31-0.44c0,0-4.8,4.8-4.94,4.94
		c-1.02,1.31-2.76,4.07-3.49,8.72c-1.45,0-4.65-4.07-5.82-4.22c0,0.15-2.76,3.78-2.91,3.78c9.74,10.03,19.78-5.67,30.1,5.67
		c1.6,1.89,2.04,5.82,0.58,7.56c-3.34,4.07-6.54,5.09-14.25,4.8c-1.6-0.15-15.41-0.58-18.9-3.93c-2.62-2.33-8.14-5.09-10.61-10.91
		c-2.18-4.07-2.91-7.12-2.91-10.47c0-6.4,1.16-11.63,2.03-15.7c-0.44-0.87-0.14-0.58-1.45-0.73c-0.29,1.02-1.45,3.05-2.03,3.93
		c-0.73,0.58-1.45,1.16-2.04,1.75c-0.44,1.02-0.73,2.04-1.16,3.05c-0.29,0.58-1.45,0.87-1.75,1.16c0,0.44-0.14,0.87-0.29,1.31
		c-0.44,0.73-1.31,1.16-1.75,1.74v0.73c-0.29,0.29-1.45,0.58-1.74,1.02c-1.31,2.18-1.89,4.94-4.36,5.67
		c-4.8,3.93-12.94,3.05-14.83-3.93c-1.45-5.53-3.34-34.46-3.34-36.21c-0.73-8.29-1.02-20.94-1.16-27.63
		c-0.29-12.21-0.87-21.67,8.72-25.45c4.65-1.89,10.91,1.89,12.5,4.22c1.02,1.45,1.16,4.36,3.2,4.8c1.45-2.18,4.51-3.93,6.54-5.53
		c0.73-0.87,1.45-1.6,2.18-2.47h3.78c1.89,1.89,3.49,0.87,6.25,0.73c0.73,2.76,2.76,5.38,5.23,6.25c1.02,0.15,1.89,0.29,2.91,0.29
		c2.47,1.02,0.73,2.18,5.53,2.18c0.87-0.58,9.16,0,10.47-0.29c0.15-0.58,0.29-0.58,0.29-1.45c-0.29-1.02-2.33-4.36-3.05-5.96
		c10.47-1.31,23.41-2.33,35.04-4.07c-1.6,3.2-4.94,8.58-5.82,10.32c0,0.73-0.87,2.91-1.02,3.2c-0.73,1.45-5.67,13.38-5.23,14.25
		c0.44,0.87,0.14,0.58,1.45,0.73c3.64-6.54,14.39-19.19,14.69-19.48c2.47-2.91,10.03-6.69,14.25-2.91
		C742.73,24.45,744.33,25.9,744.91,27.94z M633.53,76.94c0.44-0.29,0.15-0.15,0.73-0.29c0.58-2.18,2.47-3.64,3.49-5.23
		c0.29-0.73,0.44-1.45,0.73-2.18c0.87-0.73,1.6-1.31,2.47-2.04c1.16-1.6,1.74-3.78,3.05-5.23c2.91-3.05,5.82-3.49,5.67-8.72h1.02
		c0.58-0.73,1.16-1.45,1.74-2.18h-0.29c-0.87-2.91-6.98-6.69-10.18-7.27c-1.31,0.29-2.62,0.44-3.78,0.73
		c-0.44,1.16-1.16,2.33-1.45,3.49c-0.58,2.33,0.87,4.8,1.02,6.98c-3.93,2.62-6.4,6.83-10.76,9.01v0.73
		c1.31,0.73,2.33,1.74,2.76,3.49c-1.45,0.44-3.05,1.74-3.2,3.49C628.73,73.01,630.62,76.65,633.53,76.94z M632.95,51.06
		c0.87,1.75,0.44,3.2,2.33,3.93v-0.44c0.44-0.44,0.44-0.73,0.44-1.74c-1.89-2.33-2.03-10.18,0.73-11.05
		c1.31-1.16,3.64-0.58,5.82-0.73c0.44,0,6.98,2.33,8.14,3.05c1.74,1.31,2.04,3.05,5.23,3.2c0.29-0.29,0-0.15,0.58-0.29
		c0.29-0.58,0.29-0.58,0.44-1.45c-0.58-0.58-0.29-1.02-0.73-1.74c-1.6-2.76-5.38-4.07-5.96-8c2.18-0.87,3.93-1.89,3.93-4.94
		c-0.44-0.29-0.14,0-0.44-0.73c-1.02-0.44-1.75-0.58-3.49-0.58c-0.29,0.29,0,0-0.73,0.29c-1.31,2.33-3.2,4.94-4.51,7.27
		c-0.29-0.29,0,0.15-0.29-0.29c-0.58-0.87-0.29-5.53-0.44-6.98c-1.75,0.29-1.31,1.45-2.33,1.45c-0.58-0.58-0.58-1.6-1.16-2.18
		c-1.45,1.16-3.34-0.73-5.23-1.02c-1.31,1.89-4.22,3.05-5.23,5.23C627.28,39.72,630.62,46.84,632.95,51.06z M662.61,51.78
		c-1.02-0.29-1.31-0.58-1.75-1.31h-2.18c-0.29,0.15-1.02,0.44-1.31,0.58c-3.64,1.31-3.49,6.54-5.96,8.72
		c-4.07,3.64-9.31,6.54-12.21,11.2c-1.6,2.33-2.04,8-3.2,10.91c-0.14,0.44-1.16,0.87-1.31,1.31c-0.73,1.31-0.44,2.33-1.16,3.49
		c-0.14,0.44-1.16,1.02-1.31,1.45c-1.45,2.62-1.89,5.67-1.31,8.43c1.02,0.87,3.05,1.89,4.36,2.33c2.91,0.87,7.42-1.74,7.71-1.74
		c0.44-0.15,3.34-1.45,4.22-2.04c0.58-0.44,4.94-2.33,6.25-3.2c0.44-0.29,8.58-3.64,9.45-5.96c0.29-0.44,0,0,0-1.02
		c-1.31-0.15-1.31-0.73-2.04-1.02c-1.02-0.15-1.89-0.29-2.91-0.29c-1.74-0.87-3.78-2.47-5.53-3.49c-1.31-0.87-3.2-0.73-3.78-2.18
		v-2.47c0.87-0.73,1.02-2.33,2.04-3.05c4.36-3.34,11.34-9.31,12.94-14.98C664.35,54.84,663.05,53.82,662.61,51.78z M650.69,97.88
		c-0.15,0-0.58-0.15-0.73-0.15c-1.45,1.89-4.22,2.76-5.23,5.09c0.15,0,0.44,0,1.02,0.29C648.07,101.66,649.38,99.77,650.69,97.88z
		 M661.16,68.51h-1.75c-1.74,2.62-6.98,3.78-7.27,6.98c1.02,0.73,1.75,2.18,2.76,2.91c1.02,0.58,1.89,0.15,3.05,0.58
		c1.75,0.87,0.73,1.45,3.93,1.45c0.15-0.58,0.29-1.16,0.29-2.04C661.59,77.52,661.59,70.69,661.16,68.51z M695.76,89.88
		c-2.33-2.91-3.64-8-5.23-11.49c-0.58-1.16-2.04-1.89-2.47-2.91c-0.87-1.45-0.58-3.05-1.45-4.51c-0.87-1.45-2.62-2.76-3.49-4.22
		c-1.45-2.47-2.33-8.72-5.53-9.02v0.73c-0.73,0.87-1.02,6.83-1.02,8.72c-0.14,3.78,0.29,8.29,0.29,12.5
		c7.27,0.58,12.94,4.65,12.94,13.23c0.87,0,1.31,0,1.74-0.29C692.85,92.21,695.04,91.04,695.76,89.88z M683.55,55.27
		c1.74,0.29,5.38,0.44,5.53,0.44c1.89-5.38,3.34-9.02,4.94-13.96c-2.18-1.16-4.07-2.47-6.98-2.91c-0.29,0.87,0.29,2.91,0.29,2.91
		c-0.44,0.29-0.87,0.58-1.45,1.02c0.14,1.16,0.29,2.33,0.44,3.49c-0.44,0.29-1.02,0.73-1.45,1.02v2.76
		C684.42,51.64,683.11,54.98,683.55,55.27z M696.05,68.22c-1.45-1.6-0.44-3.78-1.02-6.25c-0.58-2.33-1.45-3.64-2.47-5.23h-3.2
		c-0.58,1.02-0.87,1.31-1.02,3.05c2.33,1.6,6.25,8.43,6.98,11.63h0.73V68.22z M697.8,52.8c0.29-0.29,0.29-1.02,0.73-1.31
		c1.31-0.73,2.76-0.44,4.22-1.02c0.44-0.29,0.87-1.16,1.31-1.45c1.45-0.73,1.45,0.58,2.18-1.02c0.29-0.44,0.15-0.29,0.29-1.02h-0.73
		c-1.16-0.87-4.51-1.16-6.54-1.16c-2.91,2.76-6.69,2.04-6.69,8.14c0.58,0.15,1.16,0.29,2.04,0.29
		C695.47,53.53,696.93,53.67,697.8,52.8z M731.24,96.86c-1.16-1.02-1.6-2.76-2.76-3.93c0.58-0.58,0.73-0.58,1.02-1.75
		c-0.58-0.15-0.29,0-0.58-0.29h0.58v-1.02c0,0,0.15-2.91-0.29-3.49c-0.15,0.73,0,0.58-0.29,1.02c0-7.56-0.29-14.83,1.31-21.67
		c0.29-1.16-0.29-2.47-0.29-3.05c0.58-1.6,0.15-3.93,0-5.67c-0.44-5.53,3.64-9.31,3.64-11.05c2.18-5.23-1.16-9.6-4.8-11.2
		c-5.23-1.02-10.61,1.89-11.78,9.02c-0.14,1.16-0.14,2.91-0.73,4.22c-1.16-0.44-1.89-0.15-3.49,0c-0.58,0.73-0.73,0.44-1.02,1.74
		c1.16,0.73,2.18,2.18,2.47,3.78c-3.64-0.44-5.67-2.62-9.74-2.76c-2.04,2.18-4.65,3.64-5.96,6.69c-2.33,5.23,1.16,15.27,2.76,18.76
		c0.73,1.89,0.87,4.51,2.04,5.96c0.44,0.29,0.87,0.29,1.75,0.29c2.33-1.74,8.58-3.49,9.16-6.54c-1.31-1.31-4.94-8.14-5.67-10.18
		h0.73c1.45,2.04,5.53,3.34,8,4.22c1.31,0.44,2.62-0.44,3.2,0.73v3.78c-0.73,0.87,0,2.04-0.73,3.2c-1.02,1.89-4.36,2.47-4.8,5.23
		c3.49,1.74,6.11,5.96,8.72,8.72c1.16,1.31,2.76,2.47,4.07,3.78c0.29,0.29,0.58,0.44,0.73,0.73c1.02,1.16,0.58,1.6,2.18,2.47
		c-0.29-0.44-0.58-1.02-0.73-1.45C730.66,97.15,730.95,97.15,731.24,96.86z"/>
	<path d="M795.36,27.23c-3.2,3.93-5.53,20.21-4.22,25.88v7.27c0.73,2.47,1.02,5.67,2.18,7.71c1.75-0.73,2.18-1.89,3.49-2.76
		c1.6-1.16,3.2-1.45,4.8-2.47c0.87-0.58,0.87-1.31,2.18-1.74v0.73c0.58,0.87,1.02,6.98,1.16,7.85c0.44,2.04,0.14,7.27,0.14,9.31
		c0,3.78-0.87,7.27-3.34,9.02c-5.67,4.22-18.18,1.02-25.15-0.73c-4.22-1.16-7.71-1.16-11.2,0c-0.73,1.02-1.6,0.73-2.04,2.04
		c-3.34,3.93,1.31,12.36,3.05,14.98c5.09,7.42,11.49,13.81,19.19,18.61c2.18,1.31,5.38,2.18,8,3.05c0.87,0.15,1.6,0.29,2.47,0.44
		c0.29,0.44,0.73,0.87,1.02,1.31c3.64,2.47,5.09,2.62,6.98,6.98h-3.78c-2.18-0.73-4.22-1.31-6.25-2.04
		c-2.04-0.87-3.93-2.76-5.67-3.93c-1.74-1.02-3.49-1.6-5.23-2.76c-1.6-1.89-3.2-3.64-4.8-5.53c-4.51-3.34-7.27-8-10.47-12.65
		c-1.31-1.74-3.64-3.34-4.65-5.23c-0.44-1.31-0.87-2.76-1.31-4.07c-0.58-0.87-1.75-1.89-2.18-2.91c-0.87-2.33-1.16-4.36-2.04-6.54
		c-1.31-0.44-2.76-0.73-3.49-1.74c1.31-0.15,2.33-0.73,3.2-1.02c0.15,0,0.44,0.15,0.58,0.29c1.89-0.15,1.89-0.87,1.75-2.76
		c-3.2-4.22,1.16-8-7.56-7.71c-0.44,0.29-0.14,0.15-0.73,0.29c0.15-2.62,1.45-4.94,1.75-7.27c0-0.58-0.44-2.18,0-3.49
		c1.16-3.93,2.18-8.87,3.49-12.5c0.58-1.6,0.44-4.94,0.73-5.67c0.87-3.34,2.91-6.25,3.05-10.47c-0.29-0.29,0,0-0.29-0.29
		c-2.33,1.02-5.82,2.91-8,1.02c-1.16-1.02-1.16-2.62-1.16-4.94c0.87-0.73,0.44-1.31,1.16-2.33c1.16-2.18,10.47-7.27,13.52-7.71
		v-1.74c-1.6-1.16-2.76-3.2-4.22-4.51v-0.73c0.44-0.29,0.14,0,0.44-0.44c1.75,0.44,3.34,1.74,4.8,2.47
		c1.31,0.58,4.07,1.16,5.23,1.45c1.6,0.15,5.67,1.02,5.67,1.02c1.31,0,9.89,1.16,12.21,1.74h5.53c0.58,0.15,6.98-0.73,9.45-0.73V22
		h-0.29c-1.02,0.87-1.6,0.44-2.91,1.02C800.6,23.6,796.09,26.51,795.36,27.23z M778.35,69.4c-0.73,0.29-3.78,2.04-4.65,2.18
		c-1.16,0.73-3.93,4.36-4.51,5.96c-0.44,1.31-0.29,2.62-0.73,3.78h-0.58c0-1.6-0.44-2.18-0.73-3.2v-4.8
		c-1.02-3.64-1.02-9.74-3.93-11.49c-0.44-0.58-1.02-0.58-2.04-0.73c-0.44,0.73-1.45,2.18-1.75,3.05
		c-0.58,2.33,2.62,16.72,3.78,18.61c0.73,0.58,1.45,1.16,2.18,1.74c4.36,0.29,31.7-1.89,36.64-2.47c0-6.69-5.82-11.05-10.91-12.65
		C787.8,68.53,781.26,68.38,778.35,69.4z M765.41,60.1c0.58,0.15,0.73,0.29,1.74,0.29c1.16-1.89,3.34-2.91,5.23-4.22
		c1.31-1.02,2.33-2.91,3.49-4.22c4.22-4.65,12.5-11.49,8.72-20.94c-1.89-1.02-3.05-1.74-6.25-1.74c-0.58,0.44-1.02,0.58-1.75,0.73
		c-0.73,1.45-1.45,2.04-1.45,4.22c0.73,0.73,2.04,3.49,2.04,4.94c-1.89,0.87-4.94,1.74-5.24,4.51c-0.58,1.02,0.44,1.45,0.73,2.76
		c-2.62,1.45-0.14,1.45-1.31,3.2c-0.73,0.15-1.45,0.44-2.18,0.58c-0.15,1.16-0.15,2.18-0.29,3.2c-0.44,0.29-1.02,0.73-1.45,1.02
		C766.43,55.88,765.56,58.06,765.41,60.1z"/>
	<path d="M926.23,2.66h18.61l0.15,79.39c0,15.12-6.83,24.57-23.12,31.84l-68.48,30.39c-4.07,2.04-9.31,3.05-15.41,3.05
		c-5.82,0-13.96-1.45-19.63-2.91l-5.82-22.1l36.06-14.83c0-2.76-0.15-5.67-0.44-8.87l-4.65-61.8L926.23,2.66z M848.44,112.15
		l-29.52,12.07c5.96,2.18,13.09,4.07,17.74,4.07C844.51,128.29,848,123.35,848.44,112.15z M868.07,114.91
		c-0.14,8.43-1.74,15.41-5.09,20.65l44.49-19.34c3.2-3.64,4.51-6.25,4.51-14.54V79.87l22.1-9.74v21.96c0,3.93,0.15,7.42-0.58,10.18
		c4.51-4.65,7.85-11.34,7.85-21.67L941.2,5.28l-71.54,31.55L868.07,114.91z M902.96,98.05v2.76l-26.32,11.63v-2.91L902.96,98.05z
		 M903.25,90.78v2.76l-26.32,11.63v-2.91L903.25,90.78z M877.08,46.43l32.28-14.1v36.35l-32.28,14.25V46.43z M903.4,83.51v2.76
		L877.08,97.9v-2.91L903.4,83.51z M934.08,21.27v2.62l-19.63,9.02V30L934.08,21.27z M934.08,28.54v2.62l-19.63,9.01v-2.91
		L934.08,28.54z M934.08,35.81v2.62l-19.63,9.02v-2.91L934.08,35.81z M934.08,43.08v2.62l-19.63,9.02v-2.91L934.08,43.08z"/>
</g>
</svg>
