<svg id="Layer_1" data-name="Layer 1" xmlns="http://www.w3.org/2000/svg" viewBox="0 0 1133.31 150"><path d="M43.82,25.66h78.94L90,118.42C80.92,143.68,72.63,150,47.37,150H0l5.53-15.79h7.89c12.63,0,16.58-3.16,21.32-15.79L62,41.45H38.29Z"/><path d="M144.48,25.66h85.85c22.11,0,25.66,5.52,17.76,27.63l-25.26,71.05H179.41l-8.68-7.89-3.16,7.89H140.92c-39.47,0-47-6.71-37.5-33.55s21.71-33.55,61.19-33.55h26.64l1.58-4c3.16-9.47,2-11.84-7.5-11.84H135Zm29,82.89L185.73,73h-3.95c-12.63,0-17,3.55-22.11,17.76-4.73,14.21-2.76,17.76,9.87,17.76Z"/><path d="M337.9,25.66,347,0h55.26L358,124.34H316.58l-10.65-7.89-3.16,7.89h-30.6c-36.31,0-41.84-9.87-27.63-49.34C258.36,35.53,271,25.66,307.31,25.66Zm-29.21,82.89,23.68-67.1h-3.95c-12.63,0-18.15,6.71-27.63,33.55s-8.68,33.55,3.95,33.55Z"/><path d="M465.8,98.68c-2.77,7.9-1.19,9.87,6.71,9.87h13.81l-5.92,15.79H427.11c-20.13-.19-23.68-5.33-16.58-25.66L445.66,0h55.27l-9.08,25.66h23.68L510,41.45H486.32Z"/><path d="M602.38,25.66c36.31,0,41.84,9.87,28,49.34-14.21,39.47-26.84,49.34-63.15,49.34H525.8c-36.32,0-41.84-9.87-27.63-49.34C512,35.53,524.61,25.66,560.93,25.66ZM576.13,41.45c-7.9,0-12.24,6.71-21.71,33.55s-9.87,33.55-2,33.55,12.24-6.71,21.71-33.55S584,41.45,576.13,41.45Z"/><path d="M724,33.55l14.6-7.89H782l-35.14,98.68C739.75,144.87,733,150,712.51,150H620.74l9.47-15.79h48.35c7.9,0,10.27-2,13-9.87H661c-36.32,0-41.84-9.87-27.63-49.34,13.81-39.47,26.44-49.34,62.76-49.34h30.59Zm-26.45,75,23.69-67.1h-4c-12.83,0-18.36,6.71-27.63,33.55-9.48,26.84-8.69,33.55,3.94,33.55Z"/><path d="M825.8,124.34l23.69-67.1c4.73-12.63,2.76-15.79-9.87-15.79h-4l-29.6,82.89H750.8L795,0h55.27L841.2,25.66h43.42c25.26,0,29.21,6.31,20.13,31.58l-23.68,67.1Z"/><path d="M971.86,124.34l-8.69-7.89L960,124.34H916.4c-25.07,0-29-6.31-19.94-31.58l23.69-67.1h55.26l-23.68,67.1c-4.74,12.63-2.17,15.79,11,15.79h3.16l29.21-82.89h55.26l-35.13,98.68Z"/><path d="M1054.36,25.66h79l-32.77,92.76c-9.08,25.26-17.37,31.58-42.63,31.58h-47.37l5.53-15.79H1024c12.64,0,16.58-3.16,21.32-15.79l27.24-77h-23.69Z"/></svg>